<svg width="40" height="40" viewBox="0 0 40 40" fill="none" xmlns="http://www.w3.org/2000/svg">
<path d="M11.6667 33.3337H28.3333M15 26.667V33.3337M25 26.667V33.3337M5 8.33366C5 7.89163 5.17559 7.46771 5.48816 7.15515C5.80072 6.84259 6.22464 6.66699 6.66667 6.66699H33.3333C33.7754 6.66699 34.1993 6.84259 34.5118 7.15515C34.8244 7.46771 35 7.89163 35 8.33366V25.0003C35 25.4424 34.8244 25.8663 34.5118 26.1788C34.1993 26.4914 33.7754 26.667 33.3333 26.667H6.66667C6.22464 26.667 5.80072 26.4914 5.48816 26.1788C5.17559 25.8663 5 25.4424 5 25.0003V8.33366Z" stroke="black" stroke-width="2" stroke-linecap="round" stroke-linejoin="round"/>
<path d="M13.3333 20.0007L18.3333 15.0007L21.6666 18.334L26.6666 13.334" stroke="black" stroke-width="2" stroke-linecap="round" stroke-linejoin="round"/>
</svg>
