<svg width="48" height="48" viewBox="0 0 48 48" fill="none" xmlns="http://www.w3.org/2000/svg">
<path d="M29.6569 10.1572C37.3149 10.1572 43.4999 16.3422 43.4999 24.0002C43.4999 31.6582 37.3149 37.8432 29.6569 37.8432C24.7489 37.8432 9.92386 29.5962 5.01486 26.8472C4.85844 26.7588 4.72831 26.6304 4.63776 26.4751C4.54722 26.3199 4.49951 26.1434 4.49951 25.9637C4.49951 25.784 4.54722 25.6075 4.63776 25.4523C4.72831 25.2971 4.85844 25.1687 5.01486 25.0802L10.9049 22.0372L8.74586 20.6622C8.05886 20.2692 8.15686 19.2882 8.84386 18.9932C13.1639 16.6372 25.7299 10.1582 29.6569 10.1582V10.1572Z" stroke="black" stroke-linecap="round" stroke-linejoin="round"/>
<path d="M36.137 24.0003L26.418 18.4043V29.5963L36.137 24.0003Z" stroke="black" stroke-linecap="round" stroke-linejoin="round"/>
</svg>
