<svg width="40" height="40" viewBox="0 0 40 40" fill="none" xmlns="http://www.w3.org/2000/svg">
<path d="M20 33.75C15.5 33.75 11.125 31.5 8.5 27.5H15V25H5V35H7.5V30.375C10.625 34.125 15.125 36.25 20 36.25V33.75ZM38.75 28.75V26.25H36.125C36 25.5 35.625 24.75 35.25 24L37.125 22.125L35.375 20.375L33.5 22.25C32.875 21.875 32.125 21.5 31.25 21.375V18.75H28.75V21.375C28 21.5 27.25 21.875 26.5 22.25L24.625 20.375L22.875 22.125L24.75 24C24.375 24.625 24 25.375 23.875 26.25H21.25V28.75H23.875C24 29.5 24.375 30.25 24.75 31L22.875 32.875L24.625 34.625L26.5 32.75C27.125 33.125 27.875 33.5 28.75 33.625V36.25H31.25V33.625C32 33.5 32.75 33.125 33.5 32.75L35.375 34.625L37.125 32.875L35.25 31C35.625 30.375 36 29.625 36.125 28.75H38.75ZM30 31.25C27.875 31.25 26.25 29.625 26.25 27.5C26.25 25.375 27.875 23.75 30 23.75C32.125 23.75 33.75 25.375 33.75 27.5C33.75 29.625 32.125 31.25 30 31.25ZM25 12.5H31.5C27.375 6.125 18.875 4.375 12.5 8.5C8.625 11 6.25 15.375 6.25 20H3.75C3.75 11 11 3.75 20 3.75C24.875 3.75 29.375 5.875 32.5 9.625V5H35V15H25V12.5Z" fill="black"/>
</svg>
