<svg width="48" height="50" viewBox="0 0 48 50" fill="none" xmlns="http://www.w3.org/2000/svg">
<ellipse cx="24" cy="25" rx="24" ry="25" transform="rotate(180 24 25)" fill="black"/>
<path d="M10.3999 40H36.5332C37.5599 40 38.3999 39.2125 38.3999 38.25V33C38.3999 32.0375 37.5599 31.25 36.5332 31.25H10.3999C9.37324 31.25 8.53324 32.0375 8.53324 33V38.25C8.53324 39.2125 9.37324 40 10.3999 40ZM10.3999 29.5H36.5332C37.5599 29.5 38.3999 28.7125 38.3999 27.75V22.5C38.3999 21.5375 37.5599 20.75 36.5332 20.75H10.3999C9.37324 20.75 8.53324 21.5375 8.53324 22.5V27.75C8.53324 28.7125 9.37324 29.5 10.3999 29.5ZM10.3999 19H36.5332C37.5599 19 38.3999 18.2125 38.3999 17.25V12C38.3999 11.0375 37.5599 10.25 36.5332 10.25H10.3999C9.37324 10.25 8.53324 11.0375 8.53324 12V17.25C8.53324 18.2125 9.37324 19 10.3999 19Z" fill="white"/>
</svg>
