<svg width="20" height="21" viewBox="0 0 20 21" fill="none" xmlns="http://www.w3.org/2000/svg">
<g clip-path="url(#clip0_2343_1278)">
<path d="M2.02837 16.9008L16.6256 2.30302C16.8428 2.0858 18.23 3.47358 18.0128 3.69025L3.41559 18.288C3.19892 18.5052 1.81114 17.1175 2.02837 16.9008Z" fill="#292F33"/>
<path d="M16.9121 2.56702L2.30322 17.1759L2.79378 17.6665L17.4027 3.05757L16.9121 2.56702Z" fill="#66757F"/>
<path d="M19.1921 1.72588L18.9632 1.49699L18.5904 1.12421C18.5485 1.08559 18.5007 1.0539 18.4487 1.03032C18.3454 0.975261 18.2272 0.954673 18.1114 0.971565C17.9955 0.988456 17.8881 1.04194 17.8049 1.12421L16.6371 2.29199L16.9121 2.56699L17.4026 3.05754L18.0243 3.67921L19.1921 2.51143C19.2437 2.45988 19.2847 2.39866 19.3126 2.33126C19.3406 2.26386 19.355 2.19162 19.355 2.11865C19.355 2.04569 19.3406 1.97344 19.3126 1.90605C19.2847 1.83865 19.2437 1.77742 19.1921 1.72588ZM2.79374 17.6664L2.30319 17.1759L2.02819 16.9009L0.800967 18.1275C0.718699 18.2108 0.665214 18.3182 0.648323 18.4341C0.631431 18.5499 0.652019 18.6681 0.707078 18.7714C0.732634 18.8214 0.7593 18.8714 0.800967 18.9131L1.17374 19.2859L1.40263 19.5148C1.45418 19.5664 1.51541 19.6074 1.5828 19.6353C1.6502 19.6633 1.72245 19.6777 1.79541 19.6777C1.86837 19.6777 1.94062 19.6633 2.00802 19.6353C2.07542 19.6074 2.13664 19.5664 2.18819 19.5148L3.41486 18.2881L2.79374 17.6664Z" fill="#E1E8ED"/>
<path d="M17.4026 3.0575L18.9631 1.49694L18.5904 1.12416C18.5484 1.08555 18.5006 1.05385 18.4487 1.03027L16.9115 2.5675L17.4026 3.0575ZM2.30314 17.1758L0.707031 18.7719C0.732587 18.8219 0.759253 18.8719 0.80092 18.9136L1.1737 19.2864L2.7937 17.6664L2.30314 17.1758Z" fill="#F5F8FA"/>
<path d="M16.0539 8.60137L16.9106 8.28415L17.2439 7.06193C17.2653 6.9835 17.3119 6.91428 17.3765 6.86494C17.4411 6.8156 17.5201 6.78887 17.6014 6.78887C17.6827 6.78887 17.7617 6.8156 17.8263 6.86494C17.8909 6.91428 17.9375 6.9835 17.9589 7.06193L18.2922 8.28415L19.1489 8.60137C19.2202 8.62728 19.2818 8.6745 19.3253 8.73662C19.3688 8.79874 19.3922 8.87275 19.3922 8.94859C19.3922 9.02444 19.3688 9.09845 19.3253 9.16057C19.2818 9.22269 19.2202 9.26991 19.1489 9.29582L18.2967 9.61137L17.9606 10.953C17.9403 11.0329 17.894 11.1038 17.8289 11.1544C17.7639 11.205 17.6838 11.2324 17.6014 11.2324C17.519 11.2324 17.4389 11.205 17.3739 11.1544C17.3088 11.1038 17.2625 11.0329 17.2422 10.953L16.9061 9.61137L16.0539 9.29582C15.9826 9.26991 15.921 9.22269 15.8775 9.16057C15.834 9.09845 15.8107 9.02444 15.8107 8.94859C15.8107 8.87275 15.834 8.79874 15.8775 8.73662C15.921 8.6745 15.9826 8.62728 16.0539 8.60137ZM6.64502 3.25248L8.09502 2.71582L8.63169 1.26582C8.67502 1.1482 8.75337 1.0467 8.85619 0.975003C8.95901 0.903308 9.08134 0.864868 9.20669 0.864868C9.33203 0.864868 9.45436 0.903308 9.55718 0.975003C9.66 1.0467 9.73836 1.1482 9.78169 1.26582L10.3184 2.71582L11.7678 3.25248C11.8854 3.29581 11.9869 3.37417 12.0586 3.47699C12.1303 3.57981 12.1687 3.70214 12.1687 3.82748C12.1687 3.95283 12.1303 4.07516 12.0586 4.17798C11.9869 4.2808 11.8854 4.35915 11.7678 4.40248L10.3184 4.93915L9.78169 6.38915C9.73788 6.50629 9.65935 6.60726 9.55659 6.67854C9.45383 6.74982 9.33175 6.78802 9.20669 6.78802C9.08162 6.78802 8.95955 6.74982 8.85679 6.67854C8.75403 6.60726 8.67549 6.50629 8.63169 6.38915L8.09502 4.93915L6.64502 4.40248C6.52764 4.35891 6.42641 4.28047 6.35492 4.17768C6.28343 4.07489 6.24512 3.95269 6.24512 3.82748C6.24512 3.70228 6.28343 3.58008 6.35492 3.47729C6.42641 3.3745 6.52764 3.29605 6.64502 3.25248ZM13.4056 11.8564L14.1739 11.5719L14.4584 10.8041C14.4815 10.7421 14.5231 10.6886 14.5775 10.6509C14.6319 10.6131 14.6966 10.5929 14.7628 10.5929C14.829 10.5929 14.8937 10.6131 14.9481 10.6509C15.0025 10.6886 15.0441 10.7421 15.0672 10.8041L15.3517 11.5719L16.1195 11.8564C16.1817 11.8793 16.2355 11.9208 16.2734 11.9752C16.3114 12.0297 16.3318 12.0944 16.3318 12.1608C16.3318 12.2272 16.3114 12.292 16.2734 12.3464C16.2355 12.4008 16.1817 12.4423 16.1195 12.4653L15.3517 12.7497L15.0672 13.5175C15.0441 13.5795 15.0025 13.633 14.9481 13.6707C14.8937 13.7085 14.829 13.7287 14.7628 13.7287C14.6966 13.7287 14.6319 13.7085 14.5775 13.6707C14.5231 13.633 14.4815 13.5795 14.4584 13.5175L14.1739 12.7497L13.4056 12.4653C13.3435 12.4421 13.2901 12.4005 13.2523 12.3461C13.2146 12.2917 13.1943 12.227 13.1943 12.1608C13.1943 12.0946 13.2146 12.0299 13.2523 11.9755C13.2901 11.9211 13.3435 11.8795 13.4056 11.8564Z" fill="#FFAC33"/>
</g>
<defs>
<clipPath id="clip0_2343_1278">
<rect width="20" height="20" fill="white" transform="translate(0 0.316406)"/>
</clipPath>
</defs>
</svg>
