<svg width="40" height="40" viewBox="0 0 40 40" fill="none" xmlns="http://www.w3.org/2000/svg">
<path d="M32.9166 16.6665C32.9166 16.335 32.7849 16.0171 32.5505 15.7827C32.3161 15.5482 31.9981 15.4165 31.6666 15.4165C31.3351 15.4165 31.0171 15.5482 30.7827 15.7827C30.5483 16.0171 30.4166 16.335 30.4166 16.6665H32.9166ZM9.58326 16.6665C9.58326 16.335 9.45157 16.0171 9.21715 15.7827C8.98273 15.5482 8.66478 15.4165 8.33326 15.4165C8.00174 15.4165 7.6838 15.5482 7.44938 15.7827C7.21496 16.0171 7.08326 16.335 7.08326 16.6665H9.58326ZM34.1166 20.8832C34.231 21.006 34.369 21.1045 34.5224 21.1728C34.6757 21.2412 34.8412 21.2779 35.0091 21.2809C35.1769 21.2838 35.3436 21.253 35.4993 21.1901C35.6549 21.1272 35.7963 21.0336 35.915 20.9149C36.0337 20.7962 36.1273 20.6549 36.1901 20.4992C36.253 20.3436 36.2839 20.1768 36.2809 20.009C36.278 19.8412 36.2412 19.6756 36.1729 19.5223C36.1046 19.369 36.0061 19.231 35.8833 19.1165L34.1166 20.8832ZM19.9999 4.99988L20.8833 4.11654C20.6489 3.88246 20.3312 3.75098 19.9999 3.75098C19.6687 3.75098 19.351 3.88246 19.1166 4.11654L19.9999 4.99988ZM4.1166 19.1165C3.99379 19.231 3.89528 19.369 3.82696 19.5223C3.75864 19.6756 3.72191 19.8412 3.71894 20.009C3.71598 20.1768 3.74686 20.3436 3.80973 20.4992C3.87259 20.6549 3.96617 20.7962 4.08487 20.9149C4.20356 21.0336 4.34495 21.1272 4.5006 21.1901C4.65625 21.253 4.82296 21.2838 4.9908 21.2809C5.15864 21.2779 5.32416 21.2412 5.47749 21.1728C5.63083 21.1045 5.76883 21.006 5.88326 20.8832L4.1166 19.1165ZM11.6666 36.2499H28.3333V33.7499H11.6666V36.2499ZM32.9166 31.6665V16.6665H30.4166V31.6665H32.9166ZM9.58326 31.6665V16.6665H7.08326V31.6665H9.58326ZM35.8833 19.1165L20.8833 4.11654L19.1166 5.88321L34.1166 20.8832L35.8833 19.1165ZM19.1166 4.11654L4.1166 19.1165L5.88326 20.8832L20.8833 5.88321L19.1166 4.11654ZM28.3333 36.2499C29.5488 36.2499 30.7146 35.767 31.5742 34.9075C32.4337 34.0479 32.9166 32.8821 32.9166 31.6665H30.4166C30.4166 32.8165 29.4833 33.7499 28.3333 33.7499V36.2499ZM11.6666 33.7499C10.5166 33.7499 9.58326 32.8165 9.58326 31.6665H7.08326C7.08326 32.8821 7.56615 34.0479 8.42569 34.9075C9.28523 35.767 10.451 36.2499 11.6666 36.2499V33.7499Z" fill="#076EFF"/>
</svg>
