<svg width="730" height="380" viewBox="0 0 730 380" fill="none" xmlns="http://www.w3.org/2000/svg">
<circle cx="309.5" cy="125.5" r="96.5" fill="#75E3EA"/>
<g filter="url(#filter0_b_301_1469)">
<rect x="355.212" width="374.788" height="269.606" rx="24" fill="#F8F8F8" fill-opacity="0.4"/>
<rect x="355.712" y="0.5" width="373.788" height="268.606" rx="23.5" stroke="url(#paint0_linear_301_1469)"/>
</g>
<path opacity="0.5" d="M641.827 135.134V144.634H640.587V135.134H641.827ZM645.998 138.187V142.589C645.998 142.953 646.076 143.212 646.23 143.366C646.385 143.512 646.653 143.584 647.034 143.584L647.947 143.584V144.634H646.83C646.139 144.634 645.621 144.475 645.276 144.157C644.931 143.839 644.758 143.316 644.758 142.589V138.187H643.791V137.165H644.758V135.284H645.998V137.165H647.947V138.187H645.998ZM656.81 140.613C656.81 140.85 656.796 141.099 656.769 141.363H650.799C650.845 142.099 651.095 142.676 651.549 143.094C652.012 143.503 652.571 143.707 653.225 143.707C653.761 143.707 654.207 143.584 654.561 143.339C654.924 143.085 655.179 142.748 655.324 142.331H656.66C656.46 143.048 656.06 143.634 655.46 144.089C654.861 144.534 654.116 144.756 653.225 144.756C652.517 144.756 651.881 144.597 651.317 144.279C650.763 143.961 650.327 143.512 650.009 142.93C649.691 142.34 649.532 141.658 649.532 140.886C649.532 140.114 649.686 139.437 649.995 138.855C650.304 138.274 650.736 137.828 651.29 137.52C651.853 137.202 652.498 137.043 653.225 137.043C653.934 137.043 654.561 137.197 655.106 137.506C655.651 137.815 656.069 138.242 656.36 138.787C656.66 139.323 656.81 139.932 656.81 140.613ZM655.529 140.354C655.529 139.882 655.424 139.478 655.215 139.141C655.006 138.796 654.72 138.537 654.356 138.365C654.002 138.183 653.607 138.092 653.171 138.092C652.544 138.092 652.008 138.292 651.563 138.692C651.126 139.091 650.877 139.646 650.813 140.354H655.529ZM667.973 137.029C668.555 137.029 669.073 137.152 669.527 137.397C669.981 137.633 670.34 137.992 670.604 138.474C670.867 138.955 670.999 139.541 670.999 140.232V144.634H669.772V140.409C669.772 139.664 669.586 139.096 669.213 138.705C668.85 138.305 668.355 138.106 667.728 138.106C667.083 138.106 666.569 138.315 666.188 138.732C665.806 139.141 665.615 139.736 665.615 140.518V144.634H664.389V140.409C664.389 139.664 664.203 139.096 663.83 138.705C663.467 138.305 662.971 138.106 662.345 138.106C661.699 138.106 661.186 138.315 660.804 138.732C660.423 139.141 660.232 139.736 660.232 140.518V144.634H658.992V137.165H660.232V138.242C660.477 137.851 660.804 137.551 661.213 137.342C661.631 137.133 662.09 137.029 662.59 137.029C663.217 137.029 663.771 137.17 664.253 137.451C664.734 137.733 665.093 138.146 665.329 138.692C665.538 138.165 665.884 137.756 666.365 137.465C666.847 137.174 667.383 137.029 667.973 137.029ZM677.226 135.911V134.78H679.788V144.634H678.534V135.911H677.226Z" fill="#232D42"/>
<circle cx="612.279" cy="138.36" r="5.45154" fill="#7951F9"/>
<path opacity="0.5" d="M641.827 197.828V207.327H640.587V197.828H641.827ZM645.998 200.881V205.283C645.998 205.646 646.076 205.905 646.23 206.06C646.385 206.205 646.653 206.278 647.034 206.278L647.947 206.278V207.327H646.83C646.139 207.327 645.621 207.168 645.276 206.85C644.931 206.532 644.758 206.01 644.758 205.283V200.881H643.791V199.859H644.758V197.978H645.998V199.859H647.947V200.881H645.998ZM656.81 203.307C656.81 203.543 656.796 203.793 656.769 204.056H650.799C650.845 204.792 651.095 205.369 651.549 205.787C652.012 206.196 652.571 206.4 653.225 206.4C653.761 206.4 654.207 206.278 654.561 206.032C654.924 205.778 655.179 205.442 655.324 205.024H656.66C656.46 205.742 656.06 206.328 655.46 206.782C654.861 207.227 654.116 207.45 653.225 207.45C652.517 207.45 651.881 207.291 651.317 206.973C650.763 206.655 650.327 206.205 650.009 205.624C649.691 205.033 649.532 204.352 649.532 203.579C649.532 202.807 649.686 202.13 649.995 201.549C650.304 200.967 650.736 200.522 651.29 200.213C651.853 199.895 652.498 199.736 653.225 199.736C653.934 199.736 654.561 199.89 655.106 200.199C655.651 200.508 656.069 200.935 656.36 201.48C656.66 202.016 656.81 202.625 656.81 203.307ZM655.529 203.048C655.529 202.575 655.424 202.171 655.215 201.835C655.006 201.489 654.72 201.231 654.356 201.058C654.002 200.876 653.607 200.785 653.171 200.785C652.544 200.785 652.008 200.985 651.563 201.385C651.126 201.785 650.877 202.339 650.813 203.048H655.529ZM667.973 199.722C668.555 199.722 669.073 199.845 669.527 200.09C669.981 200.326 670.34 200.685 670.604 201.167C670.867 201.648 670.999 202.235 670.999 202.925V207.327H669.772V203.102C669.772 202.357 669.586 201.789 669.213 201.399C668.85 200.999 668.355 200.799 667.728 200.799C667.083 200.799 666.569 201.008 666.188 201.426C665.806 201.835 665.615 202.43 665.615 203.211V207.327H664.389V203.102C664.389 202.357 664.203 201.789 663.83 201.399C663.467 200.999 662.971 200.799 662.345 200.799C661.699 200.799 661.186 201.008 660.804 201.426C660.423 201.835 660.232 202.43 660.232 203.211V207.327H658.992V199.859H660.232V200.935C660.477 200.545 660.804 200.245 661.213 200.036C661.631 199.827 662.09 199.722 662.59 199.722C663.217 199.722 663.771 199.863 664.253 200.145C664.734 200.426 665.093 200.84 665.329 201.385C665.538 200.858 665.884 200.449 666.365 200.158C666.847 199.868 667.383 199.722 667.973 199.722ZM677.525 199.954C677.589 199.118 677.912 198.464 678.493 197.991C679.075 197.519 679.829 197.283 680.755 197.283C681.373 197.283 681.905 197.396 682.35 197.623C682.804 197.841 683.145 198.141 683.372 198.523C683.608 198.905 683.727 199.336 683.727 199.818C683.727 200.381 683.563 200.867 683.236 201.276C682.918 201.685 682.5 201.948 681.982 202.066V202.135C682.573 202.28 683.041 202.566 683.386 202.993C683.731 203.42 683.904 203.979 683.904 204.67C683.904 205.187 683.786 205.655 683.549 206.073C683.313 206.482 682.959 206.805 682.486 207.041C682.014 207.277 681.446 207.395 680.783 207.395C679.82 207.395 679.029 207.145 678.411 206.646C677.793 206.137 677.448 205.419 677.375 204.492H678.575C678.638 205.038 678.861 205.483 679.243 205.828C679.624 206.173 680.133 206.346 680.769 206.346C681.405 206.346 681.887 206.182 682.214 205.855C682.55 205.519 682.718 205.087 682.718 204.56C682.718 203.879 682.491 203.388 682.037 203.089C681.582 202.789 680.896 202.639 679.979 202.639H679.665V201.603H679.992C680.828 201.594 681.46 201.458 681.887 201.194C682.314 200.922 682.527 200.504 682.527 199.94C682.527 199.459 682.368 199.073 682.05 198.782C681.741 198.491 681.296 198.346 680.715 198.346C680.151 198.346 679.697 198.491 679.352 198.782C679.006 199.073 678.802 199.463 678.738 199.954H677.525Z" fill="#232D42"/>
<circle cx="612.279" cy="201.053" r="5.45154" fill="#25CADF"/>
<path opacity="0.5" d="M641.827 166.481V175.98H640.587V166.481H641.827ZM645.998 169.534V173.936C645.998 174.3 646.076 174.559 646.23 174.713C646.385 174.858 646.653 174.931 647.034 174.931L647.947 174.931V175.98H646.83C646.139 175.98 645.621 175.821 645.276 175.503C644.931 175.185 644.758 174.663 644.758 173.936V169.534H643.791V168.512H644.758V166.631H645.998V168.512H647.947V169.534H645.998ZM656.81 171.96C656.81 172.196 656.796 172.446 656.769 172.71H650.799C650.845 173.446 651.095 174.022 651.549 174.44C652.012 174.849 652.571 175.054 653.225 175.054C653.761 175.054 654.207 174.931 654.561 174.686C654.924 174.431 655.179 174.095 655.324 173.677H656.66C656.46 174.395 656.06 174.981 655.46 175.435C654.861 175.881 654.116 176.103 653.225 176.103C652.517 176.103 651.881 175.944 651.317 175.626C650.763 175.308 650.327 174.858 650.009 174.277C649.691 173.686 649.532 173.005 649.532 172.233C649.532 171.46 649.686 170.783 649.995 170.202C650.304 169.62 650.736 169.175 651.29 168.866C651.853 168.548 652.498 168.389 653.225 168.389C653.934 168.389 654.561 168.544 655.106 168.853C655.651 169.162 656.069 169.589 656.36 170.134C656.66 170.67 656.81 171.279 656.81 171.96ZM655.529 171.701C655.529 171.229 655.424 170.824 655.215 170.488C655.006 170.143 654.72 169.884 654.356 169.711C654.002 169.529 653.607 169.439 653.171 169.439C652.544 169.439 652.008 169.639 651.563 170.038C651.126 170.438 650.877 170.992 650.813 171.701H655.529ZM667.973 168.376C668.555 168.376 669.073 168.498 669.527 168.744C669.981 168.98 670.34 169.339 670.604 169.82C670.867 170.302 670.999 170.888 670.999 171.578V175.98H669.772V171.756C669.772 171.01 669.586 170.443 669.213 170.052C668.85 169.652 668.355 169.452 667.728 169.452C667.083 169.452 666.569 169.661 666.188 170.079C665.806 170.488 665.615 171.083 665.615 171.865V175.98H664.389V171.756C664.389 171.01 664.203 170.443 663.83 170.052C663.467 169.652 662.971 169.452 662.345 169.452C661.699 169.452 661.186 169.661 660.804 170.079C660.423 170.488 660.232 171.083 660.232 171.865V175.98H658.992V168.512H660.232V169.589C660.477 169.198 660.804 168.898 661.213 168.689C661.631 168.48 662.09 168.376 662.59 168.376C663.217 168.376 663.771 168.516 664.253 168.798C664.734 169.08 665.093 169.493 665.329 170.038C665.538 169.511 665.884 169.102 666.365 168.812C666.847 168.521 667.383 168.376 667.973 168.376ZM677.403 174.986C678.557 174.059 679.461 173.3 680.115 172.71C680.769 172.11 681.319 171.487 681.764 170.842C682.218 170.188 682.445 169.548 682.445 168.921C682.445 168.33 682.3 167.867 682.009 167.531C681.728 167.185 681.269 167.013 680.633 167.013C680.015 167.013 679.533 167.208 679.188 167.599C678.852 167.98 678.67 168.494 678.643 169.139H677.444C677.48 168.121 677.789 167.335 678.37 166.781C678.952 166.227 679.701 165.95 680.619 165.95C681.555 165.95 682.295 166.209 682.841 166.726C683.395 167.244 683.672 167.958 683.672 168.866C683.672 169.62 683.445 170.356 682.991 171.074C682.545 171.783 682.037 172.41 681.464 172.955C680.892 173.491 680.16 174.118 679.27 174.836H683.958V175.871H677.403V174.986Z" fill="#232D42"/>
<circle cx="612.279" cy="169.706" r="5.45154" fill="#EC9C27"/>
<circle cx="486.05" cy="134.926" r="83.136" fill="#F9F7FF"/>
<path d="M557.708 92.7744C566.374 107.507 570.288 124.552 568.919 141.589C567.549 158.626 560.961 174.827 550.052 187.985C539.144 201.144 524.444 210.62 507.956 215.124C491.468 219.628 473.993 218.94 457.91 213.155L486.05 134.926L557.708 92.7744Z" fill="#7951F9"/>
<path d="M427.264 76.14C436.339 67.0647 447.392 60.2139 459.558 56.124C471.723 52.0342 484.67 50.8165 497.385 52.5663C510.099 54.3161 522.236 58.9859 532.844 66.2099C543.452 73.4339 552.244 83.0159 558.53 94.2053L486.05 134.926L427.264 76.14Z" fill="#FD4C5C"/>
<path d="M458.64 213.413C447.655 209.577 437.597 203.477 429.118 195.509L486.05 134.926L458.64 213.413Z" fill="#25CADF"/>
<g filter="url(#filter1_dd_301_1469)">
<path d="M469.695 87.224C469.695 84.2132 472.136 81.7725 475.147 81.7725H509.219C512.23 81.7725 514.671 84.2132 514.671 87.224V101.398C514.671 104.409 512.23 106.85 509.219 106.85H498.608L492.183 113.119L485.758 106.85H475.147C472.136 106.85 469.695 104.409 469.695 101.398V87.224Z" fill="white"/>
</g>
<path d="M486.334 95.5261C486.334 95.9804 486.221 96.4074 485.994 96.8072C485.776 97.207 485.448 97.5432 485.012 97.8157C484.585 98.0883 484.076 98.2519 483.486 98.3064V99.4103H482.6V98.3064C481.746 98.2246 481.055 97.9566 480.528 97.5023C480.001 97.048 479.738 96.4483 479.738 95.7033H481.401C481.428 96.0576 481.542 96.3529 481.741 96.5891C481.941 96.8163 482.228 96.9617 482.6 97.0253V94.0269C481.991 93.8725 481.496 93.718 481.114 93.5635C480.733 93.4 480.406 93.1456 480.133 92.8003C479.87 92.4551 479.738 91.9826 479.738 91.3829C479.738 90.6288 480.001 90.0064 480.528 89.5158C481.055 89.0161 481.746 88.7253 482.6 88.6435V87.5396H483.486V88.6435C484.285 88.7162 484.926 88.9706 485.408 89.4067C485.898 89.8338 486.175 90.4244 486.239 91.1785H484.576C484.549 90.8968 484.44 90.647 484.249 90.4289C484.058 90.2018 483.804 90.0473 483.486 89.9655V92.9094C484.095 93.0547 484.59 93.2092 484.971 93.3727C485.353 93.5272 485.676 93.7771 485.939 94.1223C486.203 94.4585 486.334 94.9264 486.334 95.5261ZM481.319 91.3012C481.319 91.6737 481.428 91.9644 481.646 92.1734C481.873 92.3824 482.191 92.5505 482.6 92.6777V89.9246C482.209 89.9701 481.896 90.1109 481.66 90.3471C481.432 90.5834 481.319 90.9014 481.319 91.3012ZM483.486 97.0253C483.886 96.9617 484.199 96.8027 484.426 96.5483C484.653 96.2848 484.767 95.9713 484.767 95.6079C484.767 95.2444 484.653 94.9628 484.426 94.7629C484.208 94.5539 483.895 94.3858 483.486 94.2586V97.0253ZM490.006 96.1121C490.878 95.358 491.564 94.7402 492.064 94.2586C492.573 93.768 492.995 93.2592 493.331 92.7322C493.667 92.2052 493.836 91.6782 493.836 91.1512C493.836 90.6061 493.704 90.179 493.44 89.8701C493.186 89.5612 492.782 89.4067 492.227 89.4067C491.691 89.4067 491.273 89.5794 490.973 89.9246C490.683 90.2608 490.528 90.7151 490.51 91.2875H489.011C489.038 90.2517 489.347 89.4613 489.938 88.9161C490.537 88.3619 491.296 88.0847 492.214 88.0847C493.204 88.0847 493.976 88.3573 494.531 88.9025C495.094 89.4476 495.376 90.1745 495.376 91.0831C495.376 91.7373 495.207 92.3687 494.871 92.9775C494.544 93.5772 494.149 94.1178 493.686 94.5993C493.231 95.0718 492.65 95.6215 491.941 96.2484L491.328 96.7936H495.648V98.0883H489.025V96.9571L490.006 96.1121ZM503.964 89.6248H499.398V92.3369C499.589 92.0825 499.871 91.869 500.243 91.6964C500.625 91.5238 501.029 91.4374 501.456 91.4374C502.219 91.4374 502.837 91.601 503.31 91.9281C503.791 92.2552 504.132 92.6686 504.332 93.1683C504.541 93.668 504.645 94.195 504.645 94.7493C504.645 95.4216 504.513 96.0213 504.25 96.5483C503.996 97.0662 503.609 97.475 503.092 97.7749C502.583 98.0747 501.956 98.2246 501.211 98.2246C500.22 98.2246 499.425 97.9793 498.826 97.4887C498.226 96.998 497.867 96.3484 497.749 95.5397H499.262C499.362 95.9668 499.584 96.3075 499.93 96.5619C500.275 96.8072 500.706 96.9299 501.224 96.9299C501.869 96.9299 502.351 96.7345 502.669 96.3438C502.996 95.9531 503.16 95.4352 503.16 94.7901C503.16 94.136 502.996 93.6362 502.669 93.291C502.342 92.9366 501.86 92.7594 501.224 92.7594C500.779 92.7594 500.402 92.873 500.093 93.1002C499.793 93.3182 499.575 93.6181 499.439 93.9997H497.967V88.2619H503.964V89.6248Z" fill="#232D42"/>
<path d="M615.192 51.2319V63.0073C615.192 64.2975 615.528 65.2878 616.201 65.9784C616.873 66.6507 617.818 66.9869 619.035 66.9869C620.271 66.9869 621.225 66.6507 621.898 65.9784C622.57 65.2878 622.906 64.2975 622.906 63.0073V51.2319H626.749V62.98C626.749 64.5973 626.395 65.9693 625.686 67.0959C624.996 68.2044 624.06 69.0403 622.879 69.6036C621.716 70.167 620.417 70.4486 618.981 70.4486C617.564 70.4486 616.273 70.167 615.11 69.6036C613.966 69.0403 613.057 68.2044 612.385 67.0959C611.712 65.9693 611.376 64.5973 611.376 62.98V51.2319H615.192ZM636.215 70.5031C634.979 70.5031 633.871 70.2851 632.89 69.8489C631.908 69.3947 631.127 68.7859 630.545 68.0227C629.982 67.2595 629.673 66.4145 629.619 65.4877H633.462C633.535 66.0692 633.816 66.5508 634.307 66.9324C634.816 67.314 635.443 67.5048 636.188 67.5048C636.915 67.5048 637.478 67.3594 637.878 67.0687C638.296 66.7779 638.505 66.4054 638.505 65.9511C638.505 65.4605 638.25 65.097 637.741 64.8608C637.251 64.6064 636.46 64.3338 635.37 64.0431C634.243 63.7705 633.317 63.4888 632.59 63.1981C631.881 62.9073 631.263 62.4621 630.736 61.8624C630.227 61.2628 629.973 60.4541 629.973 59.4365C629.973 58.6006 630.209 57.8374 630.682 57.1469C631.172 56.4563 631.863 55.9112 632.753 55.5114C633.662 55.1116 634.725 54.9117 635.942 54.9117C637.741 54.9117 639.177 55.366 640.249 56.2746C641.321 57.165 641.912 58.3735 642.021 59.8999H638.368C638.314 59.3002 638.06 58.8278 637.605 58.4825C637.169 58.1191 636.579 57.9373 635.833 57.9373C635.143 57.9373 634.607 58.0645 634.225 58.3189C633.862 58.5733 633.68 58.9277 633.68 59.382C633.68 59.8908 633.935 60.2815 634.443 60.5541C634.952 60.8085 635.743 61.072 636.815 61.3445C637.905 61.6171 638.805 61.8988 639.513 62.1895C640.222 62.4803 640.831 62.9346 641.34 63.5524C641.866 64.1521 642.139 64.9516 642.157 65.9511C642.157 66.8233 641.912 67.6047 641.421 68.2953C640.949 68.9858 640.258 69.5309 639.35 69.9307C638.459 70.3123 637.414 70.5031 636.215 70.5031ZM659.327 62.3803C659.327 62.9255 659.291 63.4161 659.218 63.8523H648.179C648.27 64.9426 648.652 65.7966 649.324 66.4145C649.996 67.0323 650.823 67.3412 651.804 67.3412C653.222 67.3412 654.23 66.7325 654.83 65.515H658.946C658.51 66.9687 657.674 68.1681 656.438 69.113C655.202 70.0398 653.685 70.5031 651.886 70.5031C650.432 70.5031 649.124 70.1851 647.961 69.5491C646.816 68.8949 645.917 67.9773 645.262 66.7961C644.626 65.6149 644.308 64.252 644.308 62.7074C644.308 61.1447 644.626 59.7727 645.262 58.5915C645.899 57.4104 646.789 56.5018 647.934 55.8658C649.079 55.2297 650.396 54.9117 651.886 54.9117C653.322 54.9117 654.603 55.2207 655.729 55.8385C656.874 56.4563 657.756 57.3377 658.373 58.4825C659.009 59.6091 659.327 60.9084 659.327 62.3803ZM655.375 61.29C655.357 60.3088 655.003 59.5274 654.312 58.9459C653.622 58.3462 652.777 58.0464 651.777 58.0464C650.832 58.0464 650.033 58.3371 649.378 58.9186C648.742 59.4819 648.352 60.2724 648.206 61.29H655.375ZM665.929 57.5012C666.42 56.7017 667.056 56.0747 667.837 55.6204C668.637 55.1661 669.545 54.939 670.563 54.939V58.9459H669.554C668.355 58.9459 667.446 59.2275 666.828 59.7909C666.229 60.3542 665.929 61.3355 665.929 62.7347V70.2578H662.113V55.1571H665.929V57.5012ZM678.912 70.5031C677.676 70.5031 676.568 70.2851 675.586 69.8489C674.605 69.3947 673.824 68.7859 673.242 68.0227C672.679 67.2595 672.37 66.4145 672.315 65.4877H676.159C676.231 66.0692 676.513 66.5508 677.004 66.9324C677.512 67.314 678.139 67.5048 678.884 67.5048C679.611 67.5048 680.175 67.3594 680.574 67.0687C680.992 66.7779 681.201 66.4054 681.201 65.9511C681.201 65.4605 680.947 65.097 680.438 64.8608C679.947 64.6064 679.157 64.3338 678.067 64.0431C676.94 63.7705 676.013 63.4888 675.286 63.1981C674.578 62.9073 673.96 62.4621 673.433 61.8624C672.924 61.2628 672.67 60.4541 672.67 59.4365C672.67 58.6006 672.906 57.8374 673.378 57.1469C673.869 56.4563 674.56 55.9112 675.45 55.5114C676.359 55.1116 677.422 54.9117 678.639 54.9117C680.438 54.9117 681.874 55.366 682.946 56.2746C684.018 57.165 684.609 58.3735 684.718 59.8999H681.065C681.011 59.3002 680.756 58.8278 680.302 58.4825C679.866 58.1191 679.275 57.9373 678.53 57.9373C677.84 57.9373 677.303 58.0645 676.922 58.3189C676.558 58.5733 676.377 58.9277 676.377 59.382C676.377 59.8908 676.631 60.2815 677.14 60.5541C677.649 60.8085 678.439 61.072 679.511 61.3445C680.602 61.6171 681.501 61.8988 682.21 62.1895C682.919 62.4803 683.527 62.9346 684.036 63.5524C684.563 64.1521 684.836 64.9516 684.854 65.9511C684.854 66.8233 684.609 67.6047 684.118 68.2953C683.645 68.9858 682.955 69.5309 682.046 69.9307C681.156 70.3123 680.111 70.5031 678.912 70.5031Z" fill="#232D42"/>
<g filter="url(#filter2_b_301_1469)">
<rect x="0.862305" y="110.394" width="374.788" height="269.606" rx="24" fill="#F8F8F8" fill-opacity="0.4"/>
<rect x="1.3623" y="110.894" width="373.788" height="268.606" rx="23.5" stroke="url(#paint1_linear_301_1469)"/>
</g>
<mask id="mask0_301_1469" style="mask-type:alpha" maskUnits="userSpaceOnUse" x="0" y="110" width="376" height="270">
<rect x="1.3623" y="110.894" width="373.788" height="268.606" rx="23.5" fill="#F8F8F8" fill-opacity="0.5" stroke="url(#paint2_linear_301_1469)"/>
</mask>
<g mask="url(#mask0_301_1469)">
<path opacity="0.3" d="M37.998 333.539V379.712C37.998 387.532 44.3376 393.872 52.1579 393.872C59.9782 393.872 66.3177 387.532 66.3177 379.712V333.539C66.3177 325.718 59.9782 319.379 52.1579 319.379C44.3376 319.379 37.998 325.718 37.998 333.539Z" fill="#7951F9"/>
<path opacity="0.3" d="M83.3096 322.705V379.713C83.3096 387.534 89.6491 393.873 97.4694 393.873C105.29 393.873 111.629 387.534 111.629 379.713V322.705C111.629 314.885 105.29 308.545 97.4694 308.545C89.6491 308.545 83.3096 314.885 83.3096 322.705Z" fill="#7951F9"/>
<path opacity="0.3" d="M128.62 359.274V379.714C128.62 387.534 134.96 393.873 142.78 393.873C150.6 393.873 156.94 387.534 156.94 379.714V359.274C156.94 351.454 150.6 345.114 142.78 345.114C134.96 345.114 128.62 351.454 128.62 359.274Z" fill="#7951F9"/>
<path opacity="0.3" d="M173.933 234.667V379.713C173.933 387.533 180.272 393.873 188.092 393.873C195.913 393.873 202.252 387.533 202.252 379.713V234.667C202.252 226.846 195.913 220.507 188.092 220.507C180.272 220.507 173.933 226.846 173.933 234.667Z" fill="#7951F9"/>
<path opacity="0.3" d="M218.925 295.064V379.563C218.925 387.466 225.332 393.873 233.235 393.873C241.138 393.873 247.545 387.466 247.545 379.563V295.064C247.545 287.161 241.138 280.754 233.235 280.754C225.332 280.754 218.925 287.161 218.925 295.064Z" fill="#7951F9"/>
<path opacity="0.3" d="M264.555 336.248V379.712C264.555 387.533 270.894 393.872 278.715 393.872C286.535 393.872 292.874 387.533 292.874 379.712V336.248C292.874 328.427 286.535 322.088 278.715 322.088C270.894 322.088 264.555 328.427 264.555 336.248Z" fill="#7951F9"/>
<path d="M310.238 186.033V379.563C310.238 387.466 316.645 393.873 324.549 393.873C332.452 393.873 338.859 387.466 338.859 379.563V186.033C338.859 178.13 332.452 171.723 324.549 171.723C316.645 171.723 310.238 178.13 310.238 186.033Z" fill="#7951F9"/>
</g>
<path d="M34.7277 169.723H30.2364L37.0799 149.899H42.4811L49.3149 169.723H44.8235L39.8579 154.429H39.703L34.7277 169.723ZM34.447 161.931H45.0559V165.202H34.447V161.931ZM55.747 161.127V169.723H51.6235V154.855H55.5534V157.478H55.7276C56.0567 156.613 56.6084 155.929 57.3828 155.426C58.1572 154.916 59.0961 154.661 60.1996 154.661C61.232 154.661 62.1322 154.887 62.9002 155.339C63.6681 155.791 64.265 156.436 64.6909 157.275C65.1168 158.107 65.3297 159.101 65.3297 160.256V169.723H61.2062V160.992C61.2127 160.082 60.9804 159.372 60.5093 158.862C60.0382 158.346 59.3897 158.088 58.5637 158.088C58.0087 158.088 57.5183 158.207 57.0924 158.446C56.673 158.685 56.3439 159.033 56.1051 159.491C55.8728 159.943 55.7534 160.488 55.747 161.127ZM72.8193 170.003C71.8707 170.003 71.0254 169.839 70.2833 169.51C69.5412 169.174 68.9539 168.68 68.5216 168.029C68.0957 167.371 67.8827 166.551 67.8827 165.57C67.8827 164.744 68.0344 164.05 68.3377 163.489C68.641 162.928 69.054 162.476 69.5766 162.134C70.0993 161.792 70.693 161.534 71.3577 161.36C72.0288 161.185 72.7322 161.063 73.4678 160.992C74.3325 160.901 75.0295 160.817 75.5586 160.74C76.0878 160.656 76.4717 160.534 76.7105 160.372C76.9493 160.211 77.0686 159.972 77.0686 159.656V159.598C77.0686 158.985 76.8751 158.51 76.4879 158.175C76.1071 157.839 75.5651 157.672 74.8617 157.672C74.1196 157.672 73.5291 157.836 73.0903 158.165C72.6515 158.488 72.3611 158.894 72.2192 159.385L68.4054 159.075C68.599 158.172 68.9797 157.391 69.5476 156.733C70.1155 156.068 70.8479 155.558 71.7449 155.203C72.6483 154.842 73.6937 154.661 74.8811 154.661C75.707 154.661 76.4975 154.758 77.2526 154.952C78.014 155.145 78.6884 155.445 79.2756 155.852C79.8693 156.258 80.3371 156.781 80.6791 157.42C81.0211 158.052 81.1921 158.811 81.1921 159.695V169.723H77.2816V167.661H77.1654C76.9267 168.126 76.6072 168.535 76.2072 168.89C75.8071 169.239 75.3263 169.513 74.7649 169.713C74.2035 169.907 73.555 170.003 72.8193 170.003ZM74.0002 167.158C74.6068 167.158 75.1424 167.038 75.607 166.799C76.0716 166.554 76.4362 166.225 76.7008 165.812C76.9654 165.399 77.0977 164.931 77.0977 164.409V162.831C76.9686 162.915 76.7912 162.992 76.5653 163.063C76.3459 163.128 76.0975 163.189 75.82 163.247C75.5425 163.299 75.265 163.347 74.9875 163.392C74.7101 163.431 74.4584 163.466 74.2325 163.499C73.7485 163.57 73.3259 163.683 72.9645 163.837C72.6031 163.992 72.3224 164.202 72.1224 164.467C71.9223 164.725 71.8223 165.047 71.8223 165.435C71.8223 165.996 72.0256 166.425 72.4321 166.722C72.8451 167.012 73.3678 167.158 74.0002 167.158ZM88.5147 149.899V169.723H84.3912V149.899H88.5147ZM94.3636 175.298C93.8409 175.298 93.3505 175.256 92.8923 175.172C92.4406 175.095 92.0663 174.995 91.7695 174.872L92.6987 171.794C93.1827 171.943 93.6183 172.023 94.0055 172.036C94.3991 172.049 94.7379 171.959 95.0218 171.765C95.3122 171.571 95.5478 171.242 95.7284 170.778L95.9704 170.149L90.637 154.855H94.9734L98.0515 165.773H98.2064L101.314 154.855H105.679L99.9003 171.329C99.6229 172.13 99.2454 172.827 98.7678 173.42C98.2968 174.02 97.6999 174.482 96.9771 174.804C96.2544 175.134 95.3832 175.298 94.3636 175.298ZM115.697 154.855V157.952H106.744V154.855H115.697ZM108.777 151.293H112.9V165.154C112.9 165.535 112.958 165.831 113.074 166.044C113.19 166.251 113.352 166.396 113.558 166.48C113.771 166.564 114.016 166.606 114.294 166.606C114.487 166.606 114.681 166.59 114.875 166.557C115.068 166.519 115.217 166.49 115.32 166.47L115.968 169.539C115.762 169.603 115.472 169.677 115.097 169.761C114.723 169.852 114.268 169.907 113.732 169.926C112.739 169.965 111.868 169.832 111.119 169.529C110.377 169.226 109.799 168.755 109.386 168.116C108.973 167.477 108.77 166.67 108.777 165.696V151.293ZM118.384 169.723V154.855H122.507V169.723H118.384ZM120.455 152.938C119.842 152.938 119.316 152.735 118.877 152.328C118.445 151.915 118.229 151.422 118.229 150.847C118.229 150.28 118.445 149.792 118.877 149.386C119.316 148.973 119.842 148.766 120.455 148.766C121.068 148.766 121.591 148.973 122.023 149.386C122.462 149.792 122.681 150.28 122.681 150.847C122.681 151.422 122.462 151.915 122.023 152.328C121.591 152.735 121.068 152.938 120.455 152.938ZM132.528 170.013C131.005 170.013 129.695 169.69 128.598 169.045C127.507 168.393 126.668 167.49 126.081 166.335C125.5 165.18 125.21 163.85 125.21 162.347C125.21 160.824 125.504 159.488 126.091 158.339C126.685 157.184 127.527 156.284 128.617 155.639C129.708 154.987 131.005 154.661 132.508 154.661C133.805 154.661 134.941 154.897 135.916 155.368C136.89 155.839 137.661 156.5 138.229 157.352C138.797 158.204 139.11 159.204 139.168 160.353H135.277C135.167 159.611 134.877 159.014 134.406 158.562C133.941 158.104 133.331 157.875 132.576 157.875C131.937 157.875 131.379 158.049 130.902 158.398C130.431 158.74 130.063 159.24 129.798 159.898C129.534 160.556 129.401 161.353 129.401 162.289C129.401 163.237 129.53 164.044 129.788 164.709C130.053 165.373 130.424 165.88 130.902 166.228C131.379 166.577 131.937 166.751 132.576 166.751C133.047 166.751 133.47 166.654 133.844 166.461C134.225 166.267 134.538 165.986 134.783 165.619C135.035 165.244 135.199 164.796 135.277 164.273H139.168C139.103 165.409 138.794 166.409 138.239 167.274C137.69 168.132 136.932 168.803 135.964 169.287C134.996 169.771 133.851 170.013 132.528 170.013ZM154.179 159.094L150.404 159.327C150.339 159.004 150.2 158.714 149.987 158.456C149.774 158.191 149.494 157.981 149.145 157.826C148.803 157.665 148.393 157.584 147.916 157.584C147.277 157.584 146.738 157.72 146.299 157.991C145.861 158.256 145.641 158.61 145.641 159.056C145.641 159.411 145.783 159.711 146.067 159.956C146.351 160.201 146.838 160.398 147.529 160.546L150.22 161.088C151.665 161.385 152.743 161.863 153.453 162.521C154.162 163.179 154.517 164.044 154.517 165.115C154.517 166.09 154.23 166.945 153.656 167.68C153.088 168.416 152.307 168.99 151.313 169.403C150.326 169.81 149.187 170.013 147.897 170.013C145.928 170.013 144.36 169.603 143.192 168.784C142.031 167.958 141.35 166.835 141.15 165.415L145.206 165.202C145.328 165.802 145.625 166.261 146.096 166.577C146.567 166.887 147.171 167.041 147.906 167.041C148.629 167.041 149.21 166.903 149.649 166.625C150.094 166.341 150.32 165.977 150.326 165.531C150.32 165.157 150.162 164.851 149.852 164.612C149.542 164.367 149.065 164.179 148.419 164.05L145.844 163.537C144.393 163.247 143.312 162.744 142.602 162.027C141.898 161.311 141.547 160.398 141.547 159.288C141.547 158.333 141.805 157.51 142.321 156.82C142.844 156.129 143.576 155.597 144.518 155.223C145.467 154.848 146.577 154.661 147.848 154.661C149.726 154.661 151.204 155.058 152.281 155.852C153.365 156.646 153.998 157.726 154.179 159.094Z" fill="#232D42" fill-opacity="0.6"/>
<defs>
<filter id="filter0_b_301_1469" x="325.212" y="-30" width="434.788" height="329.606" filterUnits="userSpaceOnUse" color-interpolation-filters="sRGB">
<feFlood flood-opacity="0" result="BackgroundImageFix"/>
<feGaussianBlur in="BackgroundImageFix" stdDeviation="15"/>
<feComposite in2="SourceAlpha" operator="in" result="effect1_backgroundBlur_301_1469"/>
<feBlend mode="normal" in="SourceGraphic" in2="effect1_backgroundBlur_301_1469" result="shape"/>
</filter>
<filter id="filter1_dd_301_1469" x="436.986" y="54.5148" width="110.394" height="96.7651" filterUnits="userSpaceOnUse" color-interpolation-filters="sRGB">
<feFlood flood-opacity="0" result="BackgroundImageFix"/>
<feColorMatrix in="SourceAlpha" type="matrix" values="0 0 0 0 0 0 0 0 0 0 0 0 0 0 0 0 0 0 127 0" result="hardAlpha"/>
<feOffset dy="5.45154"/>
<feGaussianBlur stdDeviation="16.3546"/>
<feColorMatrix type="matrix" values="0 0 0 0 0 0 0 0 0 0 0 0 0 0 0 0 0 0 0.08 0"/>
<feBlend mode="normal" in2="BackgroundImageFix" result="effect1_dropShadow_301_1469"/>
<feColorMatrix in="SourceAlpha" type="matrix" values="0 0 0 0 0 0 0 0 0 0 0 0 0 0 0 0 0 0 127 0" result="hardAlpha"/>
<feOffset dy="2.72577"/>
<feGaussianBlur stdDeviation="2.72577"/>
<feColorMatrix type="matrix" values="0 0 0 0 0 0 0 0 0 0 0 0 0 0 0 0 0 0 0.08 0"/>
<feBlend mode="normal" in2="effect1_dropShadow_301_1469" result="effect2_dropShadow_301_1469"/>
<feBlend mode="normal" in="SourceGraphic" in2="effect2_dropShadow_301_1469" result="shape"/>
</filter>
<filter id="filter2_b_301_1469" x="-29.1377" y="80.3936" width="434.788" height="329.606" filterUnits="userSpaceOnUse" color-interpolation-filters="sRGB">
<feFlood flood-opacity="0" result="BackgroundImageFix"/>
<feGaussianBlur in="BackgroundImageFix" stdDeviation="15"/>
<feComposite in2="SourceAlpha" operator="in" result="effect1_backgroundBlur_301_1469"/>
<feBlend mode="normal" in="SourceGraphic" in2="effect1_backgroundBlur_301_1469" result="shape"/>
</filter>
<linearGradient id="paint0_linear_301_1469" x1="397.396" y1="-2.89347e-06" x2="533.147" y2="339.557" gradientUnits="userSpaceOnUse">
<stop stop-opacity="0.1"/>
<stop offset="1" stop-color="#666666" stop-opacity="0"/>
</linearGradient>
<linearGradient id="paint1_linear_301_1469" x1="43.0463" y1="110.394" x2="178.797" y2="449.95" gradientUnits="userSpaceOnUse">
<stop stop-opacity="0.1"/>
<stop offset="1" stop-color="#666666" stop-opacity="0"/>
</linearGradient>
<linearGradient id="paint2_linear_301_1469" x1="43.0463" y1="110.394" x2="178.797" y2="449.95" gradientUnits="userSpaceOnUse">
<stop stop-opacity="0.1"/>
<stop offset="1" stop-color="#666666" stop-opacity="0"/>
</linearGradient>
</defs>
</svg>
