<svg width="620" height="401" viewBox="0 0 620 401" fill="none" xmlns="http://www.w3.org/2000/svg">
<path d="M348.179 353.512L318.935 277.668H193.628C178.546 277.165 156.72 281.341 134.003 288.849C57.1112 314.263 21.5115 356.64 76.7286 353.507H103.584C54.4096 374.476 35.8253 401.838 76.4822 399.535H254.769L237.024 353.507L348.179 353.512Z" fill="#4D089A" fill-opacity="0.1"/>
<path d="M332.549 123.71L281.636 123.439V315.914C281.479 325.744 287.897 335.602 300.888 343.105C309.927 348.324 320.951 351.665 332.549 353.21V123.71Z" fill="#4D089A"/>
<path d="M398.29 124.055L328.707 123.686V352.627C351.059 356.438 376.222 353.281 393.858 343.095C395.432 342.185 396.906 341.242 398.285 340.271L398.29 124.055Z" fill="#E6E1D7"/>
<path d="M387.754 123.992V346.184C389.868 345.232 391.92 344.213 393.863 343.089C406.547 335.766 412.964 326.197 413.116 316.599V124.125L387.754 123.992Z" fill="#CC256F"/>
<path d="M347.337 123.484L387.639 153.724C370.391 161.43 349.84 163.649 328.891 160.065L347.337 123.484Z" fill="#F8F6EE"/>
<path d="M393.723 96.4748C410.288 106.039 417.563 120.401 410.563 134.288C406.487 142.364 399.159 148.592 387.642 153.726L347.34 123.486L316.343 120.884L284.113 112.689C294.299 92.4792 330.861 80.9333 365.782 86.8958C376.707 88.7585 386.177 92.119 393.723 96.4748Z" fill="#DE2879"/>
<path d="M347.335 123.486L328.888 160.072C317.835 158.181 308.375 154.972 300.824 150.612C294.061 146.706 288.828 141.881 285.34 136.255L347.335 123.486Z" fill="url(#paint0_linear_488_10023)"/>
<path d="M347.34 123.478L285.34 136.242C280.435 128.298 280.032 120.757 284.108 112.676L347.34 123.478Z" fill="url(#paint1_linear_488_10023)"/>
<path d="M254.773 217.875V400.377C267.556 400.609 280.472 397.936 290.226 392.3C299.487 386.954 304.17 379.968 304.284 372.963V218.14L254.773 217.875Z" fill="#E6E1D7"/>
<path d="M219.004 217.678V390.16C220.042 390.895 221.156 391.61 222.345 392.298C233.678 398.843 249.267 401.412 263.964 400.042V217.915L219.004 217.678Z" fill="#9B6396"/>
<path d="M298.906 218.105V385.412C302.395 381.511 304.205 377.241 304.276 372.956V218.134L298.906 218.105Z" fill="#E6E1D7"/>
<path d="M222.71 217.707L208.287 217.631V372.453C208.173 379.629 212.861 386.828 222.345 392.303C222.464 392.374 222.587 392.436 222.71 392.497V217.707Z" fill="#4D089A"/>
<path d="M256.276 217.525L263.922 244.897C248.266 246.338 233.806 243.613 222.559 237.119L256.276 217.525Z" fill="url(#paint2_linear_488_10023)"/>
<path d="M289.995 197.924C304.992 206.583 308.513 219.191 298.972 230.097L256.277 217.518L289.995 197.924Z" fill="#F8F6EE"/>
<path d="M298.972 230.109C291.82 238.295 279.563 243.461 263.922 244.897L256.277 217.525L298.972 230.109Z" fill="#F8F6EE"/>
<path d="M256.279 217.517L222.561 237.111C207.574 228.456 204.052 215.848 213.589 204.938L256.279 217.517Z" fill="url(#paint3_linear_488_10023)"/>
<path d="M263.6 190.153C242.722 188.243 223.104 194.035 213.582 204.941L256.272 217.52L289.99 197.926C282.492 193.599 274.041 191.115 263.6 190.153Z" fill="url(#paint4_linear_488_10023)"/>
<path d="M429.988 229.221L430.287 344.955L442.373 351.979L442.074 236.245L429.988 229.221Z" fill="#841647"/>
<path d="M442.086 236.25L442.385 351.984H459.533L459.234 236.25H442.086Z" fill="#AD1659"/>
<path d="M459.234 236.245L459.533 351.979L471.7 344.955L471.401 229.221L459.234 236.245Z" fill="#D54987"/>
<path d="M471.389 229.228V219.261L459.36 212.27H442.207L430.045 219.294L429.988 229.228L442.074 236.252H459.223L471.389 229.228Z" fill="#CC256F"/>
<path d="M450.76 203.449C456.854 203.449 461.794 200.597 461.794 197.079C461.794 193.561 456.854 190.709 450.76 190.709C444.666 190.709 439.727 193.561 439.727 197.079C439.727 200.597 444.666 203.449 450.76 203.449Z" fill="#F8F6EE"/>
<path d="M461.799 197.018V221.479C461.823 223.129 460.747 224.783 458.567 226.043C454.258 228.532 447.272 228.532 442.959 226.043C440.831 224.816 439.75 223.209 439.727 221.598V197.136C439.75 198.748 440.831 200.354 442.959 201.582C447.267 204.07 454.254 204.07 458.567 201.582C460.747 200.326 461.828 198.672 461.799 197.018Z" fill="url(#paint5_linear_488_10023)"/>
<path d="M518.125 20.9835L498.787 9.89258C512.172 17.5709 520.476 34.0982 520.476 57.5929C520.476 104.303 487.682 161.098 447.366 184.223C427.346 195.708 409.179 196.755 395.965 189.176L415.303 200.267C428.517 207.846 446.684 206.798 466.704 195.319C507.025 172.194 539.814 115.393 539.814 68.6885C539.814 45.1891 531.515 28.6618 518.125 20.9835Z" fill="url(#paint6_linear_488_10023)"/>
<path d="M455.127 188.642C495.448 165.517 528.237 108.717 528.241 62.0119C528.241 40.4605 521.246 24.7911 509.757 16.416C525.004 23.2033 534.65 40.4036 534.65 65.7136C534.65 112.423 501.856 169.219 461.54 192.344C439.842 204.79 420.329 204.956 406.93 195.188C419.807 200.923 436.676 199.226 455.127 188.642Z" fill="#D7D2C7"/>
<path opacity="0.8" d="M455.126 19.2719C414.82 42.3921 382.031 99.1879 382.031 145.879C382.031 192.588 414.825 211.765 455.126 188.65C495.447 165.525 528.236 108.724 528.236 62.0192C528.24 15.3238 495.447 -3.85304 455.126 19.2719Z" fill="#F8F6EE"/>
<path d="M520.377 17.0464L501.039 5.95547C487.238 -1.95981 468.265 -0.869686 447.353 11.1265C405.279 35.261 371.035 94.5688 371.035 143.312C371.035 167.849 379.709 185.111 393.686 193.131L413.024 204.222C399.047 196.202 390.373 178.94 390.373 154.403C390.373 105.66 424.617 46.3519 466.691 22.2174C487.607 10.2212 506.58 9.13107 520.377 17.0464Z" fill="url(#paint7_linear_488_10023)"/>
<path d="M466.709 199.048C424.635 223.183 390.391 203.153 390.391 154.396C390.391 105.653 424.635 46.3449 466.709 22.2104C482.899 12.9253 497.924 10.1763 510.29 13.077C530.073 17.7219 543.036 36.8418 543.036 66.8394C543.041 115.597 508.797 174.904 466.709 199.048ZM393.609 152.547C393.609 199.257 426.403 218.434 466.704 195.318C507.024 172.193 539.813 115.393 539.813 68.6878C539.813 21.9971 507.02 2.81558 466.704 25.9453C426.403 49.056 393.609 105.857 393.609 152.547Z" fill="#E6E1D7"/>
<path d="M390.391 154.388C391.542 74.178 461.779 1.66074 510.29 13.0739C462.775 4.89795 396.059 74.543 390.391 154.388Z" fill="url(#paint8_radial_488_10023)"/>
<path d="M252.409 146.281L223.923 134.91L208.505 153.224L189.907 152.433L170.872 170.576L151.767 156.443L139.515 178.634L130.799 183.383L115.428 155.523L102.778 183.838L78.3968 210.812L63.519 243.994L57.3906 247.497V272.736L256.276 157.907V143.953L252.409 146.281Z" fill="url(#paint9_linear_488_10023)"/>
<path d="M107.509 114.07L101.703 117.426V119.924L107.509 116.568V114.07Z" fill="#E6E1D7"/>
<path d="M118.419 107.762L110.859 112.127V114.625L118.419 110.26V107.762Z" fill="#E6E1D7"/>
<path d="M142.557 96.324V93.8262L121.793 105.818V108.315L142.557 96.324Z" fill="#E6E1D7"/>
<path d="M113.95 117.133L101.703 124.204V126.707L113.95 119.635V117.133Z" fill="#E6E1D7"/>
<path d="M117.324 117.687L124.884 113.327V110.824L117.324 115.189V117.687Z" fill="#E6E1D7"/>
<path d="M134.644 107.672V105.174L128.227 108.88V111.378L134.644 107.672Z" fill="#E6E1D7"/>
<path d="M137.996 105.74L142.285 103.261V100.764L137.996 103.243V105.74Z" fill="#E6E1D7"/>
<path d="M107.509 127.637L101.703 130.988V133.49L107.509 130.135V127.637Z" fill="#E6E1D7"/>
<path d="M110.859 128.191L118.419 123.826V121.328L110.859 125.689V128.191Z" fill="#E6E1D7"/>
<path d="M121.793 121.891L138.012 112.525V110.027L121.793 119.388V121.891Z" fill="#E6E1D7"/>
<path d="M113.95 130.699L101.703 137.771V140.273L113.95 133.202V130.699Z" fill="#E6E1D7"/>
<path d="M124.884 124.391L117.324 128.756V131.254L124.884 126.888V124.391Z" fill="#E6E1D7"/>
<path d="M128.227 122.462V124.96L134.644 121.254V118.756L128.227 122.462Z" fill="#E6E1D7"/>
<path d="M107.509 141.205L101.703 144.556V147.059L107.509 143.703V141.205Z" fill="#E6E1D7"/>
<path d="M110.859 141.764L118.419 137.399V134.896L110.859 139.262V141.764Z" fill="#E6E1D7"/>
<path d="M136.6 126.909V124.406L121.793 132.957V135.454L136.6 126.909Z" fill="#E6E1D7"/>
<path d="M90.9025 127.356C85.9828 123.427 77.6884 125.522 69.7305 132.703L75.584 147.334L94.5189 136.4C94.5189 132.215 93.3624 129.319 90.9025 127.356Z" fill="url(#paint10_linear_488_10023)"/>
<path d="M75.5873 147.321L56.6523 158.251C56.6523 149.885 61.7807 139.865 69.7386 132.689L75.5873 147.321Z" fill="url(#paint11_linear_488_10023)"/>
<path d="M75.5873 147.328L64.4585 169.074C59.3823 168.315 56.6523 164.533 56.6523 158.263L75.5873 147.328Z" fill="#DE2879"/>
<path d="M81.4384 161.956C89.3963 154.775 94.5246 144.76 94.5246 136.395L75.5896 147.329L64.4609 169.075C69.5324 169.828 75.4712 167.34 81.4384 161.956Z" fill="#F8F6EE"/>
<path d="M209.622 55.125L203.816 58.4807V60.9785L209.622 57.6276V55.125Z" fill="#E6E1D7"/>
<path d="M220.532 48.8164L212.973 53.1817V55.6842L220.532 51.319V48.8164Z" fill="#E6E1D7"/>
<path d="M244.415 37.5377V35.0352L223.906 46.8797V49.3775L244.415 37.5377Z" fill="#E6E1D7"/>
<path d="M252.041 30.625L247.766 33.0896V35.5922L252.041 33.1228V30.625Z" fill="#E6E1D7"/>
<path d="M216.064 58.1895L203.816 65.2611V67.7589L216.064 60.6873V58.1895Z" fill="#E6E1D7"/>
<path d="M219.438 58.742L226.997 54.3767V51.8789L219.438 56.2442V58.742Z" fill="#E6E1D7"/>
<path d="M236.757 48.742V46.2441L230.34 49.9458V52.4484L236.757 48.742Z" fill="#E6E1D7"/>
<path d="M240.109 46.8078L248.366 42.0397V39.5371L240.109 44.3052V46.8078Z" fill="#E6E1D7"/>
<path d="M209.622 68.6934L203.816 72.0491V74.5469L209.622 71.1959V68.6934Z" fill="#E6E1D7"/>
<path d="M212.973 69.2478L220.532 64.8826V62.3848L212.973 66.75V69.2478Z" fill="#E6E1D7"/>
<path d="M223.906 62.9439L244.415 51.1041V48.6016L223.906 60.4461V62.9439Z" fill="#E6E1D7"/>
<path d="M216.064 71.7715L203.816 78.8431V81.3409L216.064 74.2693V71.7715Z" fill="#E6E1D7"/>
<path d="M226.997 65.4629L219.438 69.8234V72.326L226.997 67.9607V65.4629Z" fill="#E6E1D7"/>
<path d="M230.34 63.5142V66.0168L236.757 62.3103V59.8125L230.34 63.5142Z" fill="#E6E1D7"/>
<path d="M248.366 53.1055L240.109 57.8736V60.3762L248.366 55.6033V53.1055Z" fill="#E6E1D7"/>
<path d="M209.622 82.2617L203.816 85.6174V88.1152L209.622 84.7595V82.2617Z" fill="#E6E1D7"/>
<path d="M212.973 82.8143L220.532 78.449V75.9512L212.973 80.3164V82.8143Z" fill="#E6E1D7"/>
<path d="M244.415 64.6725V62.1699L223.906 74.0144V76.5122L244.415 64.6725Z" fill="#E6E1D7"/>
<path d="M178.113 88.1528L169.017 76.6875C165.325 80.83 162.733 85.0578 160.927 89.897C158.216 97.1582 158.382 103.102 161.396 106.903L178.113 88.1528Z" fill="url(#paint12_linear_488_10023)"/>
<path d="M178.119 88.1457L169.023 76.6804C178.256 66.3242 189.816 63.068 194.836 69.4002C199.86 75.7325 196.447 89.2596 187.214 99.6158C183.522 103.758 179.82 106.583 175.65 108.446L178.119 88.1457Z" fill="#DE2879"/>
<path d="M178.12 88.1426L175.651 108.438C169.399 111.23 164.413 110.689 161.398 106.888L178.12 88.1426Z" fill="#F8F6EE"/>
<path d="M570.046 75.2843L562.031 79.915C561.538 33.8404 528.744 15.1518 488.462 37.9924L488.438 28.7784L487.116 29.5415L487.144 38.7555C446.867 62.4208 414.286 118.861 414.054 165.353L406.039 169.983L406.044 171.529L414.059 166.898C414.551 212.972 447.35 231.661 487.628 208.82L487.651 218.034L488.974 217.271L488.945 208.057C529.223 184.392 561.808 127.952 562.036 81.4601L570.05 76.8295L570.046 75.2843ZM487.528 176.216C462.877 190.037 442.843 178.643 442.402 150.527L468.086 135.696C468.456 147.555 476.935 152.385 487.448 146.73L487.528 176.216ZM487.443 145.185C477.674 150.442 469.797 145.925 469.404 134.933L487.381 124.553L487.443 145.185ZM487.376 123.013L469.399 133.393C469.726 121.985 477.551 108.41 487.319 102.381L487.376 123.013ZM487.315 100.836C476.802 107.32 468.38 121.904 468.081 134.151L442.397 148.982C442.677 120.449 462.583 85.996 487.23 71.3504L487.315 100.836ZM487.144 40.2959L487.23 69.8052C461.834 84.8822 441.359 120.378 441.079 149.74L415.371 164.58C415.599 118.951 447.587 63.5488 487.144 40.2959ZM415.376 166.13L441.084 151.29C441.525 180.235 462.142 192.009 487.537 177.761L487.623 207.275C448.061 229.694 415.864 211.347 415.376 166.13ZM488.462 39.5328C528.019 17.1093 560.216 35.4567 560.704 80.6733L534.996 95.5133C534.579 66.5538 513.942 54.7946 488.542 69.0421L488.462 39.5328ZM488.552 70.592C513.203 56.7711 533.237 68.1653 533.678 96.2812L507.994 111.112C507.624 99.2529 499.15 94.4232 488.632 100.078L488.552 70.592ZM488.642 101.618C498.41 96.3665 506.288 100.879 506.676 111.87L488.699 122.25L488.642 101.618ZM488.703 123.795L506.681 113.415C506.354 124.819 498.529 138.398 488.76 144.427L488.703 123.795ZM488.765 145.967C499.278 139.483 507.7 124.899 507.999 112.652L533.683 97.8263C533.403 126.359 513.497 160.807 488.846 175.458L488.765 145.967ZM488.936 206.507L488.855 176.998C514.25 161.921 534.754 126.407 535.005 97.0632L560.713 82.2232C560.481 127.852 528.493 183.259 488.936 206.507Z" fill="#E6E1D7"/>
<defs>
<linearGradient id="paint0_linear_488_10023" x1="285.339" y1="141.784" x2="347.334" y2="141.784" gradientUnits="userSpaceOnUse">
<stop offset="0.0099" stop-color="#791CE2"/>
<stop offset="1" stop-color="#9481FF"/>
</linearGradient>
<linearGradient id="paint1_linear_488_10023" x1="281.327" y1="124.462" x2="347.339" y2="124.462" gradientUnits="userSpaceOnUse">
<stop offset="0.0099" stop-color="#791CE2"/>
<stop offset="1" stop-color="#9481FF"/>
</linearGradient>
<linearGradient id="paint2_linear_488_10023" x1="222.558" y1="231.399" x2="263.92" y2="231.399" gradientUnits="userSpaceOnUse">
<stop stop-color="#D496CF"/>
<stop offset="1" stop-color="#E4ACE3"/>
</linearGradient>
<linearGradient id="paint3_linear_488_10023" x1="208.284" y1="221.029" x2="256.278" y2="221.029" gradientUnits="userSpaceOnUse">
<stop offset="0.0099" stop-color="#791CE2"/>
<stop offset="1" stop-color="#9481FF"/>
</linearGradient>
<linearGradient id="paint4_linear_488_10023" x1="213.582" y1="203.656" x2="289.987" y2="203.656" gradientUnits="userSpaceOnUse">
<stop stop-color="#FFA688"/>
<stop offset="1" stop-color="#FFA081"/>
</linearGradient>
<linearGradient id="paint5_linear_488_10023" x1="461.8" y1="212.465" x2="439.729" y2="212.464" gradientUnits="userSpaceOnUse">
<stop stop-color="#E6E1D7"/>
<stop offset="1" stop-color="#D6D1C6"/>
</linearGradient>
<linearGradient id="paint6_linear_488_10023" x1="521.537" y1="54.2793" x2="433.594" y2="197.847" gradientUnits="userSpaceOnUse">
<stop stop-color="#D6D1C6"/>
<stop offset="1" stop-color="#F8F6EE"/>
</linearGradient>
<linearGradient id="paint7_linear_488_10023" x1="471.931" y1="17.0994" x2="402.918" y2="136.633" gradientUnits="userSpaceOnUse">
<stop stop-color="#F8F6EE"/>
<stop offset="1" stop-color="#D6D1C6"/>
</linearGradient>
<radialGradient id="paint8_radial_488_10023" cx="0" cy="0" r="1" gradientUnits="userSpaceOnUse" gradientTransform="translate(457.58 26.4233) scale(248.471 248.473)">
<stop stop-color="#F8F6EE"/>
<stop offset="1" stop-color="#D6D1C6"/>
</radialGradient>
<linearGradient id="paint9_linear_488_10023" x1="57.3865" y1="203.842" x2="256.275" y2="203.842" gradientUnits="userSpaceOnUse">
<stop offset="0.0099" stop-color="#791CE2"/>
<stop offset="1" stop-color="#9481FF"/>
</linearGradient>
<linearGradient id="paint10_linear_488_10023" x1="82.1266" y1="124.577" x2="90.3444" y2="138.809" gradientUnits="userSpaceOnUse">
<stop stop-color="#FFA688"/>
<stop offset="1" stop-color="#FFA081"/>
</linearGradient>
<linearGradient id="paint11_linear_488_10023" x1="66.1198" y1="134.78" x2="73.9183" y2="148.286" gradientUnits="userSpaceOnUse">
<stop offset="0.0099" stop-color="#7B7BE6"/>
<stop offset="1" stop-color="#9481FF"/>
</linearGradient>
<linearGradient id="paint12_linear_488_10023" x1="168.56" y1="76.9499" x2="179.738" y2="96.3094" gradientUnits="userSpaceOnUse">
<stop offset="0.0099" stop-color="#7B7BE6"/>
<stop offset="1" stop-color="#9481FF"/>
</linearGradient>
</defs>
</svg>
