<svg width="690" height="476" viewBox="0 0 690 476" fill="none" xmlns="http://www.w3.org/2000/svg">
<path opacity="0.5" d="M270.14 391.702H349.316L215.833 314.64H411.539L689.984 475.401H494.279L366.953 401.888H314.058L342.51 409.685L380.565 419.771L368.635 426.658H364.507L275.131 398.646L269.349 400.286L313.788 458.456L302.925 464.731H298.569L292.061 449.408L267.178 413.567L262.732 391.702L275.316 393.56L270.14 391.702Z" fill="#4D089A" fill-opacity="0.1"/>
<path d="M199.747 323.183L199.771 330.908L243.305 387.898L243.281 380.173L199.747 323.183Z" fill="#EEE8DE"/>
<path d="M133.772 361.267L133.791 368.992L234.391 395.027L234.367 387.297L133.772 361.267Z" fill="#E4DFD5"/>
<path d="M234.396 387.3L234.419 395.03L253.961 406.387L253.937 398.656L234.396 387.3Z" fill="#EEE8DE"/>
<path d="M266.225 393.532L266.244 401.263L364.492 426.663L364.468 418.937L266.225 393.532Z" fill="#E4DFD5"/>
<path d="M364.481 418.941L364.505 426.666L375.762 420.168L375.738 412.442L364.481 418.941Z" fill="#CBC7BC"/>
<path d="M298.541 457.006L298.565 464.736L309.793 458.252L309.769 450.526L298.541 457.006Z" fill="#CBC7BC"/>
<path d="M253.948 398.661L253.972 406.392L298.586 464.747L298.562 457.016L253.948 398.661Z" fill="#EEE8DE"/>
<path d="M234.379 387.293L253.921 398.649L298.536 457.004L309.764 450.525L266.23 393.53L364.474 418.935L375.73 412.437L275.107 386.421L255.566 375.064L210.98 316.69L199.723 323.193L243.257 380.183L145.008 354.779L133.785 361.262L234.379 387.293Z" fill="#F7F5ED"/>
<path d="M275.135 386.427L295.582 391.712H254.717L258.006 376.474L275.135 386.427Z" fill="#CBC7BC"/>
<path d="M248.415 246.711C251.894 248.716 257.53 248.716 261.004 246.711C264.478 244.706 264.478 241.45 261.004 239.44C257.53 237.435 251.889 237.435 248.415 239.44C244.936 241.45 244.936 244.706 248.415 246.711Z" fill="#CBC7BC"/>
<path d="M245.807 243.036V386.54C245.788 387.872 246.656 389.208 248.414 390.223C251.893 392.227 257.528 392.227 261.003 390.223C262.718 389.232 263.59 387.933 263.609 386.635V243.131C263.59 244.43 262.718 245.724 261.003 246.719C257.528 248.724 251.888 248.724 248.414 246.719C246.656 245.705 245.783 244.368 245.807 243.036Z" fill="url(#paint0_linear_488_10124)"/>
<path d="M385.204 377.327L393.219 372.701V165.979L385.204 170.605V377.327Z" fill="#CBC7BC"/>
<path d="M98.4173 211.746L385.195 377.318V170.596L98.4173 5.02441V211.746Z" fill="#EEE8DE"/>
<path d="M380.449 173.334L103.15 13.2314V209.009L380.449 369.102V173.334Z" fill="#F7F5ED"/>
<path d="M385.204 170.597L393.219 165.971L106.441 0.399414L98.4259 5.02542L385.204 170.597Z" fill="#F7F5ED"/>
<path d="M126.193 205.459C126.382 205.217 126.69 205.094 126.994 205.127L133.435 205.872C133.819 205.914 134.132 206.203 134.212 206.583C134.26 206.805 134.217 207.028 134.113 207.213C134.037 207.346 133.923 207.459 133.786 207.54L132.482 208.294L350.891 334.393C350.763 335.009 350.644 335.63 350.516 336.246L130.686 209.327L128.629 210.516C128.397 210.649 128.117 210.673 127.866 210.578C127.615 210.483 127.42 210.284 127.33 210.033L126.041 206.312C125.941 206.023 126.003 205.691 126.193 205.459Z" fill="#CBC7BC"/>
<path d="M159.005 137.777L169.527 138.275C171.371 138.36 173.551 139.517 175.476 141.427L196.88 162.665C198.217 163.992 199.695 164.974 201.108 165.466L220.062 172.088C221.754 172.68 223.536 173.965 225.048 175.695L249.523 203.64C251.05 205.384 252.846 206.678 254.552 207.261L278.653 215.513C280.151 216.025 281.725 217.087 283.128 218.532L301.674 237.628C303.409 239.415 305.39 240.6 307.158 240.913L326.647 244.33C328.846 244.714 331.339 246.449 333.278 248.928L350.891 271.508V335.247L130.747 208.147V124.866L143.18 127.099C144.82 127.393 146.64 128.44 148.284 130.023L153.194 134.763C155.095 136.597 157.214 137.692 159.005 137.777Z" fill="url(#paint1_linear_488_10124)"/>
<path d="M159.005 137.777L169.527 138.275C171.371 138.36 173.551 139.517 175.476 141.427L196.88 162.665C198.217 163.992 199.695 164.974 201.108 165.466L220.062 172.088C221.754 172.68 223.536 173.965 225.048 175.695L249.523 203.64C251.05 205.384 252.846 206.678 254.552 207.261L278.653 215.513C280.151 216.025 281.725 217.087 283.128 218.532L301.674 237.628C303.409 239.415 305.39 240.6 307.158 240.913L326.647 244.33C328.846 244.714 331.339 246.449 333.278 248.928L350.891 271.508V335.247L130.747 208.147V124.866L143.18 127.099C144.82 127.393 146.64 128.44 148.284 130.023L153.194 134.763C155.095 136.597 157.214 137.692 159.005 137.777Z" fill="black" fill-opacity="0.2"/>
<path opacity="0.9" d="M136.664 160.926L146.556 171.434C148.404 173.396 150.556 174.676 152.433 174.927L183.184 179.065C184.762 179.279 186.545 180.217 188.184 181.7L207.428 199.105C208.712 200.266 210.091 201.1 211.395 201.508L235.79 209.101C237.586 209.66 239.501 211.02 241.103 212.888L265.588 241.302C266.934 242.861 268.503 244.084 270.048 244.762L289.049 253.151C290.386 253.739 291.741 254.734 292.964 256.014L314.359 278.428C315.975 280.12 317.824 281.3 319.521 281.722L337.598 286.201V295.861V342.945L117.454 215.845V154.864L131.105 157.481C132.911 157.827 134.925 159.073 136.664 160.926Z" fill="url(#paint2_linear_488_10124)"/>
<g opacity="0.9">
<path d="M120.857 180.208L131.734 189.981C133.374 191.455 135.156 192.385 136.73 192.588L147.598 193.991C149.266 194.205 151.157 195.238 152.873 196.859L167.651 210.836C169.438 212.528 171.415 213.571 173.126 213.723L190.966 215.339C192.999 215.524 195.383 216.955 197.369 219.188L230.03 255.873C231.988 258.072 234.343 259.499 236.362 259.712L249.463 261.091C251.373 261.29 253.586 262.584 255.492 264.599L279.029 289.586C280.996 291.672 283.294 292.975 285.238 293.112L299.097 294.065C300.755 294.179 302.685 295.146 304.448 296.748L322.406 313.033V351.695L102.263 224.595V173.976L116.629 177.753C118.004 178.113 119.482 178.971 120.857 180.208Z" fill="url(#paint3_linear_488_10124)"/>
<path d="M120.857 180.208L131.734 189.981C133.374 191.455 135.156 192.385 136.73 192.588L147.598 193.991C149.266 194.205 151.157 195.238 152.873 196.859L167.651 210.836C169.438 212.528 171.415 213.571 173.126 213.723L190.966 215.339C192.999 215.524 195.383 216.955 197.369 219.188L230.03 255.873C231.988 258.072 234.343 259.499 236.362 259.712L249.463 261.091C251.373 261.29 253.586 262.584 255.492 264.599L279.029 289.586C280.996 291.672 283.294 292.975 285.238 293.112L299.097 294.065C300.755 294.179 302.685 295.146 304.448 296.748L322.406 313.033V351.695L102.263 224.595V173.976L116.629 177.753C118.004 178.113 119.482 178.971 120.857 180.208Z" fill="white" fill-opacity="0.2"/>
</g>
<path opacity="0.9" d="M106.738 209.739L117.596 219.498C119.269 221.005 121.089 221.939 122.682 222.119L132.981 223.266C134.877 223.479 137.072 224.754 138.953 226.749L147.821 236.125C149.978 238.404 152.509 239.727 154.537 239.637L176.97 238.622C179.131 238.523 181.852 240.03 184.075 242.556L209.674 271.658C211.726 273.995 214.224 275.473 216.309 275.587L235.401 276.673C237.292 276.782 239.524 278.004 241.472 279.995L265.322 304.404C267.071 306.191 269.062 307.372 270.83 307.665L285.21 310.04C286.755 310.296 288.475 311.225 290.058 312.661L308.32 329.222V359.816L88.1772 232.717V203.345L102.572 207.293C103.937 207.677 105.387 208.525 106.738 209.739Z" fill="#EEE8DE"/>
<path opacity="0.9" d="M93.4854 229.266L101.069 234.708C103.377 236.362 105.723 237.604 107.989 238.371L115.932 241.059C118.824 242.035 121.843 243.789 124.729 246.168L131.355 251.628C134.171 253.951 137.114 255.676 139.944 256.666L160.921 264.018C163.504 264.923 166.178 266.44 168.77 268.464L192.644 287.119C195.715 289.517 198.895 291.195 201.891 291.996L216.518 295.907C219.726 296.764 223.139 298.627 226.404 301.296L247.662 318.69C250.781 321.245 254.041 323.06 257.132 323.961L265.256 326.34C269.204 327.497 273.417 330.141 277.233 333.857L292.684 348.91L292.793 368.817L72.6499 241.718L72.5408 222.304L84.7644 225.1C87.5608 225.731 90.5515 227.162 93.4854 229.266Z" fill="#F7F5ED"/>
<path d="M282.839 373.859L349.896 335.145V173.11C349.896 172.617 350.299 172.214 350.792 172.214C351.289 172.214 351.688 172.617 351.688 173.11V335.662C351.688 335.98 351.517 336.278 351.237 336.439L283.735 375.409C283.593 375.49 283.441 375.528 283.285 375.528C282.977 375.528 282.673 375.367 282.507 375.077C282.261 374.66 282.408 374.11 282.839 373.859Z" fill="#CBC7BC"/>
<path d="M347.586 172.023L350.165 169.047C350.364 168.814 350.681 168.7 350.98 168.748C351.283 168.795 351.544 168.994 351.667 169.279L354.245 175.232C354.402 175.587 354.307 176.004 354.018 176.256C353.847 176.407 353.634 176.483 353.421 176.483C353.264 176.483 353.113 176.445 352.975 176.365L347.823 173.388C347.591 173.255 347.43 173.023 347.387 172.758C347.335 172.497 347.411 172.227 347.586 172.023Z" fill="#CBC7BC"/>
<path d="M279.4 376.331L280.145 372.468C280.201 372.165 280.419 371.909 280.699 371.805C280.983 371.691 281.31 371.738 281.557 371.918L286.761 375.781C287.074 376.014 287.202 376.416 287.079 376.781C287.008 376.995 286.861 377.17 286.676 377.279C286.543 377.355 286.391 377.398 286.23 377.402H280.282C280.017 377.402 279.761 377.284 279.59 377.075C279.419 376.867 279.348 376.596 279.4 376.331Z" fill="#CBC7BC"/>
<path d="M321.077 170.397L331.902 176.644V174.317L321.077 168.065V170.397Z" fill="#D6D1C7"/>
<path d="M310.894 164.512L317.938 168.578V166.251L310.894 162.185V164.512Z" fill="#D6D1C7"/>
<path d="M293.162 154.288L307.77 162.72V160.393L293.162 151.956V154.288Z" fill="#D6D1C7"/>
<path d="M273.342 142.833L290.035 152.469V150.141L273.342 140.501V142.833Z" fill="#D6D1C7"/>
<path d="M270.223 138.702V141.029L253.525 131.393V129.062L270.223 138.702Z" fill="#D6D1C7"/>
<path d="M243.417 125.57L250.375 129.585V127.258L243.417 123.243V125.57Z" fill="#D6D1C7"/>
<path d="M229.997 117.811L240.301 123.76V121.433L229.997 115.479V117.811Z" fill="#D6D1C7"/>
<path d="M315.077 173.256L331.902 182.968V180.64L315.077 170.929V173.256Z" fill="#D6D1C7"/>
<path d="M304.895 167.38L311.934 171.446V169.115L304.895 165.048V167.38Z" fill="#D6D1C7"/>
<path d="M293.158 160.612L301.766 165.579V163.252L293.158 158.28V160.612Z" fill="#D6D1C7"/>
<path d="M280.47 153.272L290.035 158.793V156.466L280.47 150.944V153.272Z" fill="#D6D1C7"/>
<path d="M277.328 149.144V151.471L261.938 142.584V140.257L277.328 149.144Z" fill="#D6D1C7"/>
<path d="M248.45 134.809L258.797 140.781V138.454L248.45 132.478V134.809Z" fill="#D6D1C7"/>
<path d="M230.005 124.136L245.352 132.994V130.667L230.005 121.804V124.136Z" fill="#D6D1C7"/>
<path d="M321.077 183.041L331.902 189.293V186.961L321.077 180.714V183.041Z" fill="#D6D1C7"/>
<path d="M310.894 177.165L317.938 181.232V178.9L310.894 174.833V177.165Z" fill="#D6D1C7"/>
<path d="M293.162 166.936L307.77 175.368V173.041L293.162 164.604V166.936Z" fill="#D6D1C7"/>
<path d="M273.342 155.477L290.035 165.117V162.785L273.342 153.149V155.477Z" fill="#D6D1C7"/>
<path d="M270.223 151.346V153.678L253.525 144.037V141.71L270.223 151.346Z" fill="#D6D1C7"/>
<path d="M243.417 138.203L250.375 142.222V139.89L243.417 135.876V138.203Z" fill="#D6D1C7"/>
<path d="M229.997 130.455L240.301 136.403V134.076L229.997 128.128V130.455Z" fill="#D6D1C7"/>
<path d="M315.077 185.904L331.902 195.621V193.289L315.077 183.577V185.904Z" fill="#D6D1C7"/>
<path d="M304.895 180.028L311.934 184.095V181.763L304.895 177.696V180.028Z" fill="#D6D1C7"/>
<path d="M293.158 173.256L301.766 178.228V175.896L293.158 170.929V173.256Z" fill="#D6D1C7"/>
<path d="M280.47 165.925L290.035 171.447V169.115L280.47 163.593V165.925Z" fill="#D6D1C7"/>
<path d="M277.328 161.792V164.119L261.938 155.237V152.905L277.328 161.792Z" fill="#D6D1C7"/>
<path d="M248.45 147.453L258.797 153.425V151.098L248.45 145.126V147.453Z" fill="#D6D1C7"/>
<path d="M230.005 136.779L245.352 145.638V143.311L230.005 134.452V136.779Z" fill="#D6D1C7"/>
<path d="M321.077 195.688L331.902 201.939V199.607L321.077 193.36V195.688Z" fill="#D6D1C7"/>
<path d="M310.894 189.813L317.938 193.88V191.548L310.894 187.481V189.813Z" fill="#D6D1C7"/>
<path d="M293.162 179.564L307.77 188.001V185.669L293.162 177.237V179.564Z" fill="#D6D1C7"/>
<path d="M273.342 168.125L290.035 177.766V175.438L273.342 165.798V168.125Z" fill="#D6D1C7"/>
<path d="M270.223 163.981V166.313L253.525 156.672V154.345L270.223 163.981Z" fill="#D6D1C7"/>
<path d="M243.417 150.856L250.375 154.871V152.544L243.417 148.524V150.856Z" fill="#D6D1C7"/>
<path d="M229.997 143.104L240.301 149.052V146.725L229.997 140.776V143.104Z" fill="#D6D1C7"/>
<path d="M315.077 198.553L331.902 208.269V205.937L315.077 196.226V198.553Z" fill="#D6D1C7"/>
<path d="M304.895 192.672L311.934 196.739V194.411L304.895 190.345V192.672Z" fill="#D6D1C7"/>
<path d="M293.158 185.889L301.766 190.861V188.534L293.158 183.562V185.889Z" fill="#D6D1C7"/>
<path d="M280.47 178.568L290.035 184.09V181.763L280.47 176.241V178.568Z" fill="#D6D1C7"/>
<path d="M277.328 174.425V176.757L261.938 167.87V165.538L277.328 174.425Z" fill="#D6D1C7"/>
<path d="M248.45 160.086L258.797 166.063V163.731L248.45 157.759V160.086Z" fill="#D6D1C7"/>
<path d="M230.005 149.428L245.352 158.291V155.959L230.005 147.101V149.428Z" fill="#D6D1C7"/>
<path d="M183.57 95.8437C188.49 91.9145 196.784 94.0094 204.742 101.19L198.893 115.821L179.959 104.887C179.954 100.702 181.11 97.8059 183.57 95.8437Z" fill="url(#paint4_linear_488_10124)"/>
<path d="M198.885 115.819L217.82 126.754C217.82 118.388 212.692 108.368 204.734 101.192L198.885 115.819Z" fill="url(#paint5_linear_488_10124)"/>
<path d="M198.885 115.815L210.014 137.561C215.09 136.803 217.82 133.025 217.82 126.75L198.885 115.815Z" fill="#D54987"/>
<path d="M193.029 130.443C185.072 123.262 179.948 113.247 179.948 104.882L198.883 115.816L210.012 137.562C204.931 138.316 198.997 135.827 193.029 130.443Z" fill="#EEE8DE"/>
<path d="M149.041 87.0542L158.137 75.5889C161.829 79.7314 164.422 83.9593 166.227 88.7985C168.939 96.0597 168.773 102.003 165.758 105.804L149.041 87.0542Z" fill="url(#paint6_linear_488_10124)"/>
<path d="M149.035 87.0471L158.131 75.5817C148.898 65.2255 137.338 61.9694 132.319 68.3016C127.295 74.6339 130.707 88.161 139.94 98.5172C143.632 102.66 147.334 105.484 151.505 107.347L149.035 87.0471Z" fill="#D54987"/>
<path d="M149.034 87.0439L151.504 107.339C157.755 110.131 162.741 109.591 165.756 105.79L149.034 87.0439Z" fill="#EEE8DE"/>
<path d="M60.2758 146.703C60.4796 146.703 60.6834 146.65 60.8683 146.546L112.303 116.847C112.872 116.52 113.066 115.79 112.734 115.226C112.407 114.658 111.677 114.477 111.118 114.79L61.4607 143.465V81.3563C61.4607 80.9344 61.2332 80.5411 60.8683 80.3279L1.7931 46.221C1.2433 45.9034 0.508675 46.0836 0.172157 46.6571C-0.150139 47.2211 0.0441666 47.9463 0.608185 48.2781L59.0909 82.0436V145.522C59.0909 145.944 59.3184 146.338 59.6834 146.551C59.8635 146.655 60.072 146.703 60.2758 146.703Z" fill="#E6E1D7"/>
<path d="M434.929 289.865C435.133 289.865 435.341 289.813 435.521 289.709C435.886 289.495 436.114 289.102 436.114 288.68V206.048L517.897 253.27C518.47 253.588 519.186 253.398 519.513 252.834C519.84 252.27 519.646 251.545 519.082 251.213L435.521 202.968C435.156 202.754 434.701 202.754 434.336 202.968C433.972 203.181 433.744 203.574 433.744 203.996V286.628L363.796 246.241L373.806 240.463C374.375 240.136 374.569 239.406 374.238 238.842C373.911 238.278 373.181 238.089 372.621 238.406L360.834 245.212C360.469 245.426 360.241 245.819 360.241 246.241C360.241 246.663 360.469 247.056 360.834 247.269L434.336 289.704C434.517 289.813 434.725 289.865 434.929 289.865Z" fill="#E6E1D7"/>
<path d="M513.043 209.7L518.508 212.857V215.208L513.043 212.051V209.7Z" fill="#E6E1D7"/>
<path d="M502.752 203.759L509.871 207.868V210.219L502.752 206.11V203.759Z" fill="#E6E1D7"/>
<path d="M480.072 193.002V190.651L499.613 201.936V204.287L480.072 193.002Z" fill="#E6E1D7"/>
<path d="M506.981 212.579L518.508 219.238V221.589L506.981 214.935V212.579Z" fill="#E6E1D7"/>
<path d="M503.84 213.113L496.726 209.009V206.653L503.84 210.763V213.113Z" fill="#E6E1D7"/>
<path d="M487.504 203.696V201.341L493.547 204.829V207.18L487.504 203.696Z" fill="#E6E1D7"/>
<path d="M484.328 201.858L480.285 199.526V197.175L484.328 199.507V201.858Z" fill="#E6E1D7"/>
<path d="M513.043 222.472L518.508 225.628V227.984L513.043 224.827V222.472Z" fill="#E6E1D7"/>
<path d="M509.871 222.99L502.752 218.886V216.53L509.871 220.639V222.99Z" fill="#E6E1D7"/>
<path d="M499.613 217.065L484.352 208.254V205.903L499.613 214.714V217.065Z" fill="#E6E1D7"/>
<path d="M506.981 225.351L518.508 232.005V234.356L506.981 227.701V225.351Z" fill="#E6E1D7"/>
<path d="M496.726 219.425L503.84 223.534V225.885L496.726 221.776V219.425Z" fill="#E6E1D7"/>
<path d="M493.547 217.599V219.95L487.504 216.461V214.11L493.547 217.599Z" fill="#E6E1D7"/>
<path d="M513.043 235.243L518.508 238.4V240.751L513.043 237.594V235.243Z" fill="#E6E1D7"/>
<path d="M509.871 235.778L502.752 231.668V229.317L509.871 233.427V235.778Z" fill="#E6E1D7"/>
<path d="M485.679 221.791V219.44L499.613 227.488V229.839L485.679 221.791Z" fill="#E6E1D7"/>
<path d="M54.416 37.5361L59.8809 40.6927V43.0484L54.416 39.8917V37.5361Z" fill="#E6E1D7"/>
<path d="M44.1252 31.6084L51.2441 35.7177V38.0686L44.1252 33.9641V31.6084Z" fill="#E6E1D7"/>
<path d="M21.6817 20.9905V18.6396L40.9863 29.7826V32.1383L21.6817 20.9905Z" fill="#E6E1D7"/>
<path d="M14.4867 14.4893L18.5059 16.8164V19.1673L14.4867 16.8449V14.4893Z" fill="#E6E1D7"/>
<path d="M48.354 40.4443L59.8809 47.0988V49.4497L48.354 42.7952V40.4443Z" fill="#E6E1D7"/>
<path d="M45.2129 40.9632L38.0986 36.8538V34.5029L45.2129 38.6123V40.9632Z" fill="#E6E1D7"/>
<path d="M28.8768 31.5412V29.1904L34.9199 32.6788V35.0297L28.8768 31.5412Z" fill="#E6E1D7"/>
<path d="M25.7012 29.7192L17.9281 25.2308V22.8799L25.7012 27.3683V29.7192Z" fill="#E6E1D7"/>
<path d="M54.416 50.3213L59.8809 53.478V55.8288L54.416 52.6722V50.3213Z" fill="#E6E1D7"/>
<path d="M51.2441 50.8556L44.1252 46.7463V44.3955L51.2441 48.5047V50.8556Z" fill="#E6E1D7"/>
<path d="M40.9863 44.9097L21.6817 33.7667V31.4111L40.9863 42.5588V44.9097Z" fill="#E6E1D7"/>
<path d="M48.354 53.2158L59.8809 59.8703V62.226L48.354 55.5667V53.2158Z" fill="#E6E1D7"/>
<path d="M38.0986 47.2744L45.2129 51.3837V53.7346L38.0986 49.6301V47.2744Z" fill="#E6E1D7"/>
<path d="M34.9199 45.4485V47.804L28.8768 44.3156V41.96L34.9199 45.4485Z" fill="#E6E1D7"/>
<path d="M17.932 35.6514L25.7051 40.14V42.4909L17.932 38.007V35.6514Z" fill="#E6E1D7"/>
<path d="M54.416 63.0928L59.8809 66.2493V68.605L54.416 65.4484V63.0928Z" fill="#E6E1D7"/>
<path d="M51.2441 63.6272L44.1252 59.5227V57.167L51.2441 61.2763V63.6272Z" fill="#E6E1D7"/>
<path d="M21.6817 46.5472V44.1963L40.9863 55.3394V57.6949L21.6817 46.5472Z" fill="#E6E1D7"/>
<defs>
<linearGradient id="paint0_linear_488_10124" x1="263.608" y1="317.383" x2="245.805" y2="317.383" gradientUnits="userSpaceOnUse">
<stop stop-color="#CBC7BC"/>
<stop offset="1" stop-color="#EEE8DE"/>
</linearGradient>
<linearGradient id="paint1_linear_488_10124" x1="350.895" y1="230.086" x2="130.749" y2="230.086" gradientUnits="userSpaceOnUse">
<stop offset="0.0099" stop-color="#791CE2"/>
<stop offset="1" stop-color="#9481FF"/>
</linearGradient>
<linearGradient id="paint2_linear_488_10124" x1="337.602" y1="248.931" x2="117.456" y2="248.931" gradientUnits="userSpaceOnUse">
<stop offset="0.0099" stop-color="#791CE2"/>
<stop offset="1" stop-color="#9481FF"/>
</linearGradient>
<linearGradient id="paint3_linear_488_10124" x1="322.411" y1="262.86" x2="102.265" y2="262.86" gradientUnits="userSpaceOnUse">
<stop offset="0.0099" stop-color="#791CE2"/>
<stop offset="1" stop-color="#9481FF"/>
</linearGradient>
<linearGradient id="paint4_linear_488_10124" x1="192.348" y1="93.0638" x2="184.13" y2="107.296" gradientUnits="userSpaceOnUse">
<stop stop-color="#FFA688"/>
<stop offset="1" stop-color="#FFA081"/>
</linearGradient>
<linearGradient id="paint5_linear_488_10124" x1="208.354" y1="103.278" x2="200.556" y2="116.784" gradientUnits="userSpaceOnUse">
<stop offset="0.0099" stop-color="#7B7BE6"/>
<stop offset="1" stop-color="#9481FF"/>
</linearGradient>
<linearGradient id="paint6_linear_488_10124" x1="158.593" y1="75.8522" x2="147.415" y2="95.2116" gradientUnits="userSpaceOnUse">
<stop offset="0.0099" stop-color="#7B7BE6"/>
<stop offset="1" stop-color="#9481FF"/>
</linearGradient>
</defs>
</svg>
