<svg width="464" height="381" viewBox="0 0 464 381" fill="none" xmlns="http://www.w3.org/2000/svg">
<path d="M283.423 252.683H340.867L463.182 323.301L363.857 380.645H246.803L283.423 252.683Z" fill="#4D089A" fill-opacity="0.1"/>
<path d="M246.8 380.645L347.789 322.338V234.632L246.8 292.938V380.645Z" fill="#CBC7BC"/>
<path d="M138.5 318.127L246.801 380.65V292.944L138.5 230.421V318.127Z" fill="#EEE8DE"/>
<path d="M246.8 292.941L347.789 234.635L239.492 172.112L138.499 230.418L246.8 292.941Z" fill="#F7F5ED"/>
<path d="M255.568 287.879L287.831 284.508L347.789 234.635L239.492 172.112L246.868 287.879H255.568Z" fill="#CBC7BC"/>
<path d="M246.864 287.874L340.324 233.918V180.193L246.864 234.153V287.874Z" fill="url(#paint0_linear_540_17159)"/>
<path d="M146.64 230.01L246.865 287.873V234.152L146.64 176.289V230.01Z" fill="url(#paint1_linear_540_17159)"/>
<path d="M246.864 234.154L340.324 180.194L240.099 122.331L146.639 176.291L246.864 234.154Z" fill="#F7F5ED"/>
<path d="M246.8 277.96L347.789 219.654V116.701L246.8 175.011V277.96Z" fill="#CBC7BC"/>
<path d="M138.5 215.443L246.801 277.966V175.016L138.5 112.49V215.443Z" fill="#EEE8DE"/>
<path d="M246.8 175.014L347.789 116.704L239.492 54.1816L138.499 112.488L246.8 175.014Z" fill="#F7F5ED"/>
<path opacity="0.5" d="M239.271 297.618V367.516L145.249 313.232V243.334L239.271 297.618ZM145.975 312.813L238.541 366.254V298.041L145.975 244.6V312.813Z" fill="#BEB9B0"/>
<path d="M145.247 130.654V157.755C145.247 160.354 147.352 163.674 149.951 165.175L234.565 214.024C237.165 215.525 239.27 214.635 239.27 212.035V184.934C239.27 182.335 237.165 179.015 234.565 177.514L149.951 128.665C147.352 127.164 145.247 128.054 145.247 130.654Z" fill="url(#paint2_linear_540_17159)"/>
<path d="M231.973 184.513C233.095 185.161 234.006 186.597 234.006 187.723C234.006 188.849 233.095 189.231 231.973 188.583C230.85 187.935 229.939 186.498 229.939 185.373C229.939 184.25 230.85 183.865 231.973 184.513Z" fill="#9E8DFF"/>
<path d="M220.725 178.017C221.847 178.665 222.758 180.101 222.758 181.224C222.758 182.346 221.847 182.732 220.725 182.083C219.602 181.435 218.691 179.999 218.691 178.877C218.691 177.754 219.602 177.369 220.725 178.017Z" fill="#9E8DFF"/>
<path d="M209.478 171.523C210.601 172.171 211.512 173.607 211.512 174.733C211.512 175.859 210.601 176.241 209.478 175.593C208.356 174.945 207.445 173.508 207.445 172.383C207.445 171.257 208.353 170.871 209.478 171.523Z" fill="#6262C9"/>
<path d="M198.23 165.031C199.353 165.679 200.264 167.115 200.264 168.237C200.264 169.36 199.353 169.745 198.23 169.097C197.108 168.449 196.197 167.013 196.197 165.887C196.194 164.768 197.105 164.382 198.23 165.031Z" fill="#6262C9"/>
<path d="M186.982 158.535C188.105 159.183 189.016 160.62 189.016 161.745C189.016 162.871 188.105 163.253 186.982 162.605C185.86 161.957 184.949 160.521 184.949 159.395C184.949 158.269 185.86 157.887 186.982 158.535Z" fill="#9E8DFF"/>
<path d="M175.734 152.038C176.857 152.686 177.768 154.122 177.768 155.248C177.768 156.374 176.857 156.756 175.734 156.108C174.612 155.46 173.701 154.024 173.701 152.898C173.701 151.772 174.612 151.39 175.734 152.038Z" fill="#9E8DFF"/>
<path d="M164.488 145.547C165.611 146.195 166.521 147.632 166.521 148.757C166.521 149.883 165.611 150.265 164.488 149.617C163.366 148.969 162.455 147.533 162.455 146.407C162.455 145.284 163.366 144.899 164.488 145.547Z" fill="#6262C9"/>
<path d="M153.24 139.053C154.363 139.701 155.273 141.137 155.273 142.259C155.273 143.382 154.363 143.767 153.24 143.119C152.118 142.471 151.207 141.035 151.207 139.912C151.207 138.79 152.114 138.401 153.24 139.053Z" fill="#6262C9"/>
<path d="M231.973 199.965C233.095 200.613 234.006 202.049 234.006 203.175C234.006 204.301 233.095 204.683 231.973 204.035C230.85 203.387 229.939 201.951 229.939 200.825C229.939 199.702 230.85 199.317 231.973 199.965Z" fill="#9E8DFF"/>
<path d="M220.725 193.475C221.847 194.123 222.758 195.559 222.758 196.682C222.758 197.804 221.847 198.189 220.725 197.541C219.602 196.893 218.691 195.457 218.691 194.335C218.691 193.212 219.602 192.827 220.725 193.475Z" fill="#6262C9"/>
<path d="M209.478 186.979C210.601 187.628 211.512 189.064 211.512 190.19C211.512 191.315 210.601 191.698 209.478 191.049C208.356 190.401 207.445 188.965 207.445 187.839C207.445 186.713 208.353 186.331 209.478 186.979Z" fill="#6262C9"/>
<path d="M198.23 180.483C199.353 181.131 200.264 182.567 200.264 183.69C200.264 184.812 199.353 185.197 198.23 184.549C197.108 183.901 196.197 182.465 196.197 181.339C196.194 180.22 197.105 179.835 198.23 180.483Z" fill="#9E8DFF"/>
<path d="M186.982 173.993C188.105 174.641 189.016 176.078 189.016 177.203C189.016 178.329 188.105 178.711 186.982 178.063C185.86 177.415 184.949 175.979 184.949 174.853C184.949 173.727 185.86 173.345 186.982 173.993Z" fill="#9E8DFF"/>
<path d="M175.734 167.496C176.857 168.144 177.768 169.581 177.768 170.706C177.768 171.829 176.857 172.214 175.734 171.566C174.612 170.918 173.701 169.482 173.701 168.356C173.701 167.23 174.612 166.848 175.734 167.496Z" fill="#9E8DFF"/>
<path d="M164.488 160.999C165.611 161.647 166.521 163.084 166.521 164.206C166.521 165.328 165.611 165.714 164.488 165.066C163.366 164.418 162.455 162.981 162.455 161.859C162.455 160.737 163.366 160.351 164.488 160.999Z" fill="#6262C9"/>
<path d="M153.24 154.511C154.363 155.159 155.273 156.595 155.273 157.717C155.273 158.84 154.363 159.225 153.24 158.577C152.118 157.929 151.207 156.493 151.207 155.37C151.207 154.248 152.114 153.859 153.24 154.511Z" fill="#9E8DFF"/>
<path d="M145.247 176.756V203.857C145.247 206.457 147.352 209.78 149.951 211.277L234.565 260.127C237.165 261.628 239.27 260.737 239.27 258.138V231.037C239.27 228.437 237.165 225.118 234.565 223.617L149.951 174.767C147.352 173.266 145.247 174.157 145.247 176.756Z" fill="url(#paint3_linear_540_17159)"/>
<path d="M231.973 230.611C233.095 231.259 234.006 232.695 234.006 233.821C234.006 234.947 233.095 235.329 231.973 234.681C230.85 234.032 229.939 232.596 229.939 231.47C229.939 230.348 230.85 229.962 231.973 230.611Z" fill="#9E8DFF"/>
<path d="M220.725 224.12C221.847 224.769 222.758 226.205 222.758 227.331C222.758 228.456 221.847 228.838 220.725 228.19C219.602 227.542 218.691 226.106 218.691 224.98C218.691 223.858 219.602 223.472 220.725 224.12Z" fill="#6262C9"/>
<path d="M209.478 217.624C210.601 218.272 211.512 219.709 211.512 220.831C211.512 221.953 210.601 222.339 209.478 221.691C208.356 221.043 207.445 219.606 207.445 218.484C207.445 217.362 208.353 216.976 209.478 217.624Z" fill="#6262C9"/>
<path d="M198.23 211.127C199.353 211.775 200.264 213.212 200.264 214.334C200.264 215.456 199.353 215.842 198.23 215.194C197.108 214.546 196.197 213.109 196.197 211.987C196.194 210.864 197.105 210.479 198.23 211.127Z" fill="#9E8DFF"/>
<path d="M186.982 204.64C188.105 205.288 189.016 206.725 189.016 207.85C189.016 208.976 188.105 209.358 186.982 208.71C185.86 208.062 184.949 206.626 184.949 205.5C184.949 204.374 185.86 203.989 186.982 204.64Z" fill="#9E8DFF"/>
<path d="M175.734 198.141C176.857 198.789 177.768 200.225 177.768 201.351C177.768 202.477 176.857 202.859 175.734 202.211C174.612 201.563 173.701 200.126 173.701 199.001C173.701 197.878 174.612 197.493 175.734 198.141Z" fill="#9E8DFF"/>
<path d="M164.488 191.645C165.611 192.293 166.521 193.729 166.521 194.855C166.521 195.981 165.611 196.363 164.488 195.715C163.366 195.067 162.455 193.63 162.455 192.504C162.455 191.382 163.366 190.997 164.488 191.645Z" fill="#6262C9"/>
<path d="M153.24 185.155C154.363 185.803 155.273 187.239 155.273 188.361C155.273 189.484 154.363 189.869 153.24 189.221C152.118 188.573 151.207 187.137 151.207 186.014C151.207 184.892 152.114 184.506 153.24 185.155Z" fill="#9E8DFF"/>
<path d="M231.973 246.069C233.095 246.717 234.006 248.153 234.006 249.276C234.006 250.398 233.095 250.783 231.973 250.135C230.85 249.487 229.939 248.051 229.939 246.925C229.939 245.806 230.85 245.421 231.973 246.069Z" fill="#9E8DFF"/>
<path d="M220.725 239.572C221.847 240.221 222.758 241.657 222.758 242.783C222.758 243.908 221.847 244.291 220.725 243.642C219.602 242.994 218.691 241.558 218.691 240.432C218.691 239.31 219.602 238.924 220.725 239.572Z" fill="#9E8DFF"/>
<path d="M209.478 233.083C210.601 233.731 211.512 235.167 211.512 236.293C211.512 237.419 210.601 237.801 209.478 237.153C208.356 236.505 207.445 235.068 207.445 233.943C207.445 232.817 208.353 232.435 209.478 233.083Z" fill="#9E8DFF"/>
<path d="M198.23 226.586C199.353 227.234 200.264 228.671 200.264 229.793C200.264 230.915 199.353 231.301 198.23 230.653C197.108 230.004 196.197 228.568 196.197 227.446C196.194 226.323 197.105 225.938 198.23 226.586Z" fill="#9E8DFF"/>
<path d="M186.982 220.098C188.105 220.746 189.016 222.183 189.016 223.308C189.016 224.434 188.105 224.816 186.982 224.168C185.86 223.52 184.949 222.084 184.949 220.958C184.949 219.832 185.86 219.447 186.982 220.098Z" fill="#6262C9"/>
<path d="M175.734 213.599C176.857 214.247 177.768 215.683 177.768 216.809C177.768 217.935 176.857 218.317 175.734 217.669C174.612 217.021 173.701 215.584 173.701 214.459C173.701 213.336 174.612 212.951 175.734 213.599Z" fill="#9E8DFF"/>
<path d="M164.488 207.103C165.611 207.751 166.521 209.187 166.521 210.313C166.521 211.435 165.611 211.821 164.488 211.173C163.366 210.524 162.455 209.088 162.455 207.962C162.455 206.84 163.366 206.455 164.488 207.103Z" fill="#6262C9"/>
<path d="M153.24 200.613C154.363 201.261 155.273 202.697 155.273 203.819C155.273 204.942 154.363 205.327 153.24 204.679C152.118 204.031 151.207 202.595 151.207 201.472C151.207 200.35 152.114 199.964 153.24 200.613Z" fill="#6262C9"/>
<path opacity="0.5" d="M341.365 134.591V161.692C341.365 164.292 339.26 167.615 336.661 169.112L258.781 214.076C256.182 215.577 254.077 214.687 254.077 212.087V184.986C254.077 182.387 256.182 179.067 258.781 177.566L336.661 132.602C339.26 131.101 341.365 131.992 341.365 134.591Z" fill="#BEB9B0"/>
<path opacity="0.5" d="M341.365 286.215V313.316C341.365 315.916 339.26 319.238 336.661 320.736L258.781 365.7C256.182 367.201 254.077 366.31 254.077 363.711V336.61C254.077 334.01 256.182 330.687 258.781 329.19L336.661 284.226C339.26 282.728 341.365 283.619 341.365 286.215Z" fill="#BEB9B0"/>
<path opacity="0.9" d="M98.3674 237.697L181.262 285.557V61.0896L98.3674 13.2295V237.697Z" fill="url(#paint4_linear_540_17159)"/>
<path d="M93.5535 17.2464L176.451 65.1065V48.5095L93.5535 0.649414V17.2464Z" fill="#CC256F"/>
<path d="M93.5535 17.2464L176.451 65.1065V48.5095L93.5535 0.649414V17.2464Z" fill="white" fill-opacity="0.5"/>
<path d="M169.261 111.639L174.836 114.856V117.254L169.261 114.037V111.639Z" fill="#9E8DFF"/>
<path d="M158.788 105.588L166.041 109.777V112.172L158.788 107.986V105.588Z" fill="#9E8DFF"/>
<path d="M145.605 100.377V97.9785L155.566 103.73V106.129L145.605 100.377Z" fill="#9E8DFF"/>
<path d="M132.294 92.6942V90.2959L142.252 96.0443V98.4426L132.294 92.6942Z" fill="#9E8DFF"/>
<path d="M163.083 114.582L174.836 121.368V123.766L163.083 116.98V114.582Z" fill="#9E8DFF"/>
<path d="M159.857 115.121L152.605 110.931V108.533L159.857 112.723V115.121Z" fill="#9E8DFF"/>
<path d="M143.225 105.517V103.122L149.383 106.677V109.075L143.225 105.517Z" fill="#9E8DFF"/>
<path d="M140 103.653L128.592 97.0653V94.667L140 101.255V103.653Z" fill="#9E8DFF"/>
<path d="M169.261 124.657L174.836 127.874V130.273L169.261 127.056V124.657Z" fill="#9E8DFF"/>
<path d="M166.041 125.202L158.788 121.013V118.614L166.041 122.804V125.202Z" fill="#9E8DFF"/>
<path d="M155.566 119.152L146.314 113.809V111.411L155.566 116.754V119.152Z" fill="#9E8DFF"/>
<path d="M142.906 111.844L134.063 106.74V104.342L142.906 109.445V111.844Z" fill="#9E8DFF"/>
<path d="M163.083 127.603L174.836 134.388V136.786L163.083 130.001V127.603Z" fill="#9E8DFF"/>
<path d="M132.806 110.125L137.002 112.547V114.945L132.806 112.523V110.125Z" fill="#9E8DFF"/>
<path d="M152.605 121.553L159.857 125.742V128.14L152.605 123.951V121.553Z" fill="#9E8DFF"/>
<path d="M149.383 119.698V122.097L140.915 117.208V114.81L149.383 119.698Z" fill="#9E8DFF"/>
<path d="M169.261 137.684L174.836 140.904V143.299L169.261 140.082V137.684Z" fill="#9E8DFF"/>
<path d="M166.041 138.218L158.788 134.029V131.634L166.041 135.82V138.218Z" fill="#9E8DFF"/>
<path d="M142.6 124.688L135.347 120.499V118.101L142.6 122.29V124.688Z" fill="#9E8DFF"/>
<path d="M146.604 126.996V124.598L155.566 129.773V132.171L146.604 126.996Z" fill="#9E8DFF"/>
<path d="M169.261 191.421L174.836 194.638V197.036L169.261 193.819V191.421Z" fill="#9E8DFF"/>
<path d="M158.788 185.378L166.041 189.564V191.962L158.788 187.776V185.378Z" fill="#9E8DFF"/>
<path d="M135.646 174.41V172.012L155.566 183.512V185.91L135.646 174.41Z" fill="#9E8DFF"/>
<path d="M163.083 194.366L174.836 201.152V203.547L163.083 196.765V194.366Z" fill="#9E8DFF"/>
<path d="M159.857 194.901L152.605 190.715V188.316L159.857 192.502V194.901Z" fill="#9E8DFF"/>
<path d="M143.225 185.298V182.899L149.383 186.454V188.852L143.225 185.298Z" fill="#9E8DFF"/>
<path d="M140 183.437L135.882 181.059V178.661L140 181.039V183.437Z" fill="#9E8DFF"/>
<path d="M169.261 204.447L174.836 207.664V210.063L169.261 206.846V204.447Z" fill="#9E8DFF"/>
<path d="M166.041 204.982L158.788 200.796V198.397L166.041 202.583V204.982Z" fill="#9E8DFF"/>
<path d="M155.566 198.931L140.006 189.948V187.55L155.566 196.536V198.931Z" fill="#9E8DFF"/>
<path d="M163.083 207.386L174.836 214.171V216.57L163.083 209.784V207.386Z" fill="#9E8DFF"/>
<path d="M152.605 201.343L159.857 205.529V207.927L152.605 203.741V201.343Z" fill="#9E8DFF"/>
<path d="M149.383 199.484V201.882L143.225 198.324V195.926L149.383 199.484Z" fill="#9E8DFF"/>
<path d="M169.261 217.467L174.836 220.684V223.082L169.261 219.865V217.467Z" fill="#9E8DFF"/>
<path d="M166.041 218.005L158.788 213.815V211.417L166.041 215.606V218.005Z" fill="#9E8DFF"/>
<path d="M141.361 203.755V201.356L155.566 209.561V211.959L141.361 203.755Z" fill="#9E8DFF"/>
<path d="M169.261 70.7725L174.836 73.9895V76.3878L169.261 73.1708V70.7725Z" fill="#9E8DFF"/>
<path d="M158.788 64.7227L166.041 68.9086V71.3069L158.788 67.1209V64.7227Z" fill="#9E8DFF"/>
<path d="M135.888 53.8944V51.4961L155.566 62.8564V65.2547L135.888 53.8944Z" fill="#9E8DFF"/>
<path d="M128.561 47.2715L132.658 49.6391V52.0374L128.561 49.6698V47.2715Z" fill="#9E8DFF"/>
<path d="M163.083 73.7178L174.836 80.5032V82.8982L163.083 76.1161V73.7178Z" fill="#9E8DFF"/>
<path d="M159.857 74.2512L152.605 70.0653V67.667L159.857 71.8529V74.2512Z" fill="#9E8DFF"/>
<path d="M143.225 64.6483V62.25L149.383 65.8048V68.2031L143.225 64.6483Z" fill="#9E8DFF"/>
<path d="M140 62.7866L132.078 58.2118V55.8135L140 60.3883V62.7866Z" fill="#9E8DFF"/>
<path d="M169.261 83.792L174.836 87.009V89.4073L169.261 86.1902V83.792Z" fill="#9E8DFF"/>
<path d="M166.041 84.3264L158.788 80.1405V77.7422L166.041 81.9281V84.3264Z" fill="#9E8DFF"/>
<path d="M155.566 78.2811L135.888 66.9207V64.5225L155.566 75.8862V78.2811Z" fill="#9E8DFF"/>
<path d="M163.083 86.7373L174.836 93.5228V95.9211L163.083 89.1356V86.7373Z" fill="#9E8DFF"/>
<path d="M152.605 80.6865L159.857 84.8725V87.2707L152.605 83.0848V80.6865Z" fill="#9E8DFF"/>
<path d="M149.383 78.8243V81.2227L143.225 77.6644V75.2695L149.383 78.8243Z" fill="#9E8DFF"/>
<path d="M132.078 68.833L140 73.4078V75.8061L132.078 71.2313V68.833Z" fill="#9E8DFF"/>
<path d="M169.261 96.8115L174.836 100.029V102.427L169.261 99.2098V96.8115Z" fill="#9E8DFF"/>
<path d="M166.041 97.346L158.788 93.16V90.7617L166.041 94.951V97.346Z" fill="#9E8DFF"/>
<path d="M135.888 79.9369V77.542L155.566 88.9023V91.3006L135.888 79.9369Z" fill="#9E8DFF"/>
<path d="M169.261 151.59L174.836 154.807V157.205L169.261 153.988V151.59Z" fill="#9E8DFF"/>
<path d="M158.788 145.539L166.041 149.728V152.127L158.788 147.937V145.539Z" fill="#9E8DFF"/>
<path d="M135.888 134.719V132.32L155.566 143.681V146.079L135.888 134.719Z" fill="#9E8DFF"/>
<path d="M128.561 128.089L132.658 130.456V132.855L128.561 130.487V128.089Z" fill="#9E8DFF"/>
<path d="M163.083 154.535L174.836 161.321V163.719L163.083 156.933V154.535Z" fill="#9E8DFF"/>
<path d="M159.857 155.072L152.605 150.883V148.484L159.857 152.674V155.072Z" fill="#9E8DFF"/>
<path d="M143.225 145.466V143.067L149.383 146.622V149.02L143.225 145.466Z" fill="#9E8DFF"/>
<path d="M140 143.604L128.588 137.016V134.618L140 141.206V143.604Z" fill="#9E8DFF"/>
<path d="M169.261 164.609L174.836 167.83V170.228L169.261 167.008V164.609Z" fill="#9E8DFF"/>
<path d="M166.041 165.147L158.788 160.958V158.56L166.041 162.749V165.147Z" fill="#9E8DFF"/>
<path d="M134.283 146.816L130.043 144.366V141.968L134.283 144.417V146.816Z" fill="#9E8DFF"/>
<path d="M155.566 159.099L138.276 149.117V146.719L155.566 156.701V159.099Z" fill="#9E8DFF"/>
<path d="M163.083 167.555L174.836 174.34V176.738L163.083 169.953V167.555Z" fill="#9E8DFF"/>
<path d="M152.605 161.511L159.857 165.697V168.095L152.605 163.909V161.511Z" fill="#9E8DFF"/>
<path d="M149.383 159.642V162.04L143.225 158.485V156.087L149.383 159.642Z" fill="#9E8DFF"/>
<path d="M132.078 149.65L140 154.225V156.624L132.078 152.049V149.65Z" fill="#9E8DFF"/>
<path d="M169.261 177.636L174.836 180.853V183.251L169.261 180.031V177.636Z" fill="#9E8DFF"/>
<path d="M166.041 178.17L158.788 173.984V171.586L166.041 175.772V178.17Z" fill="#9E8DFF"/>
<path d="M135.888 160.758V158.359L155.566 169.72V172.118L135.888 160.758Z" fill="#9E8DFF"/>
<path d="M109.523 77.1467L103.949 73.9297V76.328L109.523 79.545V77.1467Z" fill="#9E8DFF"/>
<path d="M113.068 85.7024L103.953 80.4385V82.8368L113.068 88.1007V85.7024Z" fill="#9E8DFF"/>
<path d="M109.523 90.1663L103.949 86.9492V89.3475L109.523 92.5646V90.1663Z" fill="#9E8DFF"/>
<path d="M113.068 98.7263L103.953 93.4658V95.8641L113.068 101.125V98.7263Z" fill="#9E8DFF"/>
<path d="M109.523 103.193L103.949 99.9756V102.374L109.523 105.591V103.193Z" fill="#9E8DFF"/>
<path d="M109.523 156.935L103.949 153.715V156.113L109.523 159.334V156.935Z" fill="#9E8DFF"/>
<path d="M113.068 165.489L103.953 160.225V162.623L113.068 167.887V165.489Z" fill="#9E8DFF"/>
<path d="M109.523 169.958L103.949 166.741V169.14L109.523 172.357V169.958Z" fill="#9E8DFF"/>
<path d="M113.068 178.515L103.953 173.251V175.649L113.068 180.913V178.515Z" fill="#9E8DFF"/>
<path d="M109.523 182.978L103.949 179.761V182.159L109.523 185.376V182.978Z" fill="#9E8DFF"/>
<path d="M109.523 36.2825L103.949 33.0654V35.4637L109.523 38.6808V36.2825Z" fill="#9E8DFF"/>
<path d="M113.068 44.8382L103.953 39.5742V41.9725L113.068 47.2365V44.8382Z" fill="#9E8DFF"/>
<path d="M109.523 49.302L103.949 46.085V48.4833L109.523 51.7003V49.302Z" fill="#9E8DFF"/>
<path d="M113.068 57.8587L103.953 52.5947V54.993L113.068 60.257V57.8587Z" fill="#9E8DFF"/>
<path d="M109.523 62.3284L103.949 59.1113V61.5096L109.523 64.7267V62.3284Z" fill="#9E8DFF"/>
<path d="M169.261 233.18L174.836 236.397V238.795L169.261 235.578V233.18Z" fill="#9E8DFF"/>
<path d="M158.788 227.129L166.041 231.318V233.717L158.788 229.527V227.129Z" fill="#9E8DFF"/>
<path d="M135.888 216.305V213.91L155.566 225.27V227.669L135.888 216.305Z" fill="#9E8DFF"/>
<path d="M128.561 209.679L132.658 212.046V214.445L128.561 212.077V209.679Z" fill="#9E8DFF"/>
<path d="M163.083 236.125L174.836 242.91V245.309L163.083 238.523V236.125Z" fill="#9E8DFF"/>
<path d="M159.857 236.662L152.605 232.473V230.074L159.857 234.264V236.662Z" fill="#9E8DFF"/>
<path d="M143.225 227.056V224.657L149.383 228.212V230.61L143.225 227.056Z" fill="#9E8DFF"/>
<path d="M140 225.194L132.078 220.619V218.221L140 222.795V225.194Z" fill="#9E8DFF"/>
<path d="M169.261 246.199L174.836 249.42V251.815L169.261 248.598V246.199Z" fill="#9E8DFF"/>
<path d="M166.041 246.74L158.788 242.551V240.156L166.041 244.342V246.74Z" fill="#9E8DFF"/>
<path d="M155.566 240.688L135.888 229.328V226.93L155.566 238.29V240.688Z" fill="#9E8DFF"/>
<path d="M163.083 249.145L174.836 255.93V258.328L163.083 251.543V249.145Z" fill="#9E8DFF"/>
<path d="M152.605 243.094L159.857 247.283V249.681L152.605 245.492V243.094Z" fill="#9E8DFF"/>
<path d="M149.383 241.232V243.63L143.225 240.075V237.677L149.383 241.232Z" fill="#9E8DFF"/>
<path d="M132.078 231.24L140 235.815V238.213L132.078 233.638V231.24Z" fill="#9E8DFF"/>
<path d="M169.261 259.219L174.836 262.439V264.838L169.261 261.617V259.219Z" fill="#9E8DFF"/>
<path d="M166.041 259.76L158.788 255.574V253.176L166.041 257.362V259.76Z" fill="#9E8DFF"/>
<path d="M135.888 242.348V239.949L155.566 251.31V253.708L135.888 242.348Z" fill="#9E8DFF"/>
<path d="M109.523 198.69L103.949 195.473V197.871L109.523 201.088V198.69Z" fill="#9E8DFF"/>
<path d="M113.068 207.243L103.953 201.982V204.381L113.068 209.641V207.243Z" fill="#9E8DFF"/>
<path d="M109.523 211.709L103.949 208.492V210.89L109.523 214.108V211.709Z" fill="#9E8DFF"/>
<path d="M113.068 220.269L103.953 215.009V217.407L113.068 222.668V220.269Z" fill="#9E8DFF"/>
<path d="M109.523 224.739L103.949 221.519V223.917L109.523 227.134V224.739Z" fill="#9E8DFF"/>
<path d="M109.523 117.1L103.949 113.883V116.281L109.523 119.498V117.1Z" fill="#9E8DFF"/>
<path d="M113.068 125.653L103.953 120.393V122.787L113.068 128.051V125.653Z" fill="#9E8DFF"/>
<path d="M109.523 130.119L103.949 126.902V129.301L109.523 132.518V130.119Z" fill="#9E8DFF"/>
<path d="M113.068 138.68L103.953 133.419V135.817L113.068 141.078V138.68Z" fill="#9E8DFF"/>
<path d="M109.523 143.149L103.949 139.929V142.327L109.523 145.547V143.149Z" fill="#9E8DFF"/>
<path d="M80.5303 298.419L86.0467 295.212L98.2363 287.737L92.7164 290.944L80.5303 298.419Z" fill="#715570"/>
<path d="M90.255 277.547L95.7715 274.34L92.0221 266.668L86.5056 269.875L90.255 277.547Z" fill="#6262C9"/>
<path d="M92.7233 290.941L98.2433 287.734L98.2773 275.783L92.7575 278.99L92.7233 290.941Z" fill="#6262C9"/>
<path d="M92.7575 278.995L98.2773 275.788L95.7733 274.345L90.2568 277.552L92.7575 278.995Z" fill="#6262C9"/>
<path d="M86.5037 269.876L92.0201 266.669L98.3145 260.686L92.798 263.889L86.5037 269.876Z" fill="#6262C9"/>
<path d="M92.8019 263.89L98.3183 260.687L98.3457 250.804L92.8292 254.011L92.8019 263.89Z" fill="#6262C9"/>
<path d="M92.8292 254.005L98.3457 250.799L92.1059 238.05L86.5859 241.257L92.8292 254.005Z" fill="#6262C9"/>
<path d="M86.5856 241.262L92.1056 238.055L92.1465 223.737L86.6266 226.944L86.5856 241.262Z" fill="#6262C9"/>
<path d="M86.6233 226.943L92.1431 223.736L98.4375 217.722L92.921 220.929L86.6233 226.943Z" fill="#6262C9"/>
<path d="M92.9205 220.929L98.437 217.722L98.4746 204.769L92.9546 207.975L92.9205 220.929Z" fill="#6262C9"/>
<path d="M76.7032 137.439L82.2232 134.232C80.5686 135.194 79.5417 137.241 79.5349 140.148C79.5178 145.982 83.6116 153.071 88.6881 156.001C91.257 157.485 93.5803 157.625 95.252 156.653L89.7354 159.86C88.0638 160.832 85.7404 160.692 83.1715 159.208C78.0951 156.278 74.0013 149.189 74.0183 143.355C74.0218 140.452 75.0486 138.401 76.7032 137.439Z" fill="#B87EB4"/>
<path d="M65.7747 124.327C71.6529 120.912 79.7895 121.393 88.7688 126.578C106.625 136.888 121.056 161.857 120.998 182.374C120.971 192.547 117.371 199.707 111.572 203.078L106.055 206.285C111.855 202.914 115.454 195.757 115.481 185.58C115.539 165.064 101.108 140.095 83.2523 129.785C74.2764 124.603 66.1363 124.119 60.2582 127.533L65.7747 124.327Z" fill="#6262C9"/>
<path d="M50.8344 148.262C50.8924 127.745 65.4189 119.493 83.2512 129.789C101.107 140.098 115.538 165.067 115.48 185.584C115.433 202.109 105.969 210.682 92.9571 207.977L92.9196 220.931L86.6253 226.942L86.5843 241.263L92.8275 254.009L92.8002 263.892L86.5059 269.876L90.2552 277.548L92.7559 278.991L92.7217 290.938L80.5322 298.413L76.5475 296.113L72.9209 279.506L73.1563 196.542C60.1753 184.243 50.7867 164.787 50.8344 148.262ZM83.1694 159.209C88.2697 162.154 92.3908 159.806 92.4078 153.973C92.4249 148.139 88.331 141.023 83.2307 138.075C78.1543 135.145 74.0331 137.519 74.0161 143.353C73.999 149.19 78.0896 156.279 83.1694 159.209Z" fill="#CC256F"/>
<path d="M50.8344 148.262C50.8924 127.745 65.4189 119.493 83.2512 129.789C101.107 140.098 115.538 165.067 115.48 185.584C115.433 202.109 105.969 210.682 92.9571 207.977L92.9196 220.931L86.6253 226.942L86.5843 241.263L92.8275 254.009L92.8002 263.892L86.5059 269.876L90.2552 277.548L92.7559 278.991L92.7217 290.938L80.5322 298.413L76.5475 296.113L72.9209 279.506L73.1563 196.542C60.1753 184.243 50.7867 164.787 50.8344 148.262ZM83.1694 159.209C88.2697 162.154 92.3908 159.806 92.4078 153.973C92.4249 148.139 88.331 141.023 83.2307 138.075C78.1543 135.145 74.0331 137.519 74.0161 143.353C73.999 149.19 78.0896 156.279 83.1694 159.209Z" fill="white" fill-opacity="0.5"/>
<path opacity="0.4" d="M50.8322 148.262C50.8663 136.652 55.5334 128.98 62.8069 126.363C58.6754 130.218 56.185 136.53 56.1577 144.959C56.1099 161.485 65.4986 180.941 78.4796 193.246L78.2442 276.21L81.8708 292.818L85.8555 295.117L80.53 298.419L76.5453 296.12L72.9187 279.513L73.1541 196.548C60.1731 184.243 50.7845 164.787 50.8322 148.262Z" fill="#B87EB4"/>
<path d="M0.87571 39.7064C0.88253 37.2023 2.64977 36.1959 4.82294 37.4514L85.3497 83.9434C87.5228 85.1989 89.2763 88.2351 89.2695 90.7392L89.2115 111.597C89.2047 114.094 87.4375 115.101 85.2643 113.845L4.73756 67.3533C2.56439 66.0978 0.81089 63.0616 0.817719 60.5644L0.87571 39.7064ZM5.57682 65.9034L86.1035 112.395C86.5778 112.672 86.8882 112.713 87.0315 112.713C87.4818 112.713 87.533 111.931 87.5364 111.594L87.5944 90.7357C87.6013 88.8424 86.1581 86.3451 84.5137 85.3933L3.98701 38.9013C3.51281 38.6283 3.20245 38.5874 3.05916 38.5874C2.60542 38.5874 2.55421 39.372 2.55421 39.7098L2.49622 60.5678C2.48598 62.4612 3.92903 64.9516 5.57682 65.9034Z" fill="#E8AFE4"/>
<path d="M73.6417 92.1652C73.6417 93.6151 74.8152 95.4675 76.2651 96.3033C77.715 97.1391 78.8887 96.6445 78.8887 95.1946C78.8887 93.7447 77.715 91.8923 76.2651 91.0564C74.8152 90.2206 73.6417 90.7187 73.6417 92.1652ZM64.4816 84.2539C65.9316 85.0897 67.1051 86.9456 67.1051 88.392C67.1051 89.8419 65.9316 90.3366 64.4816 89.5008C63.0317 88.6649 61.8581 86.8125 61.8581 85.3626C61.8581 83.9127 63.0317 83.4181 64.4816 84.2539ZM52.698 77.4513C54.148 78.2871 55.3216 80.1396 55.3216 81.5895C55.3216 83.0394 54.148 83.5341 52.698 82.6982C51.2481 81.8624 50.0745 80.01 50.0745 78.5601C50.0745 77.1102 51.2481 76.6121 52.698 77.4513ZM40.9111 70.6454C42.361 71.4812 43.5345 73.3336 43.5345 74.7835C43.5345 76.2334 42.361 76.7281 40.9111 75.8922C39.4612 75.0564 38.2876 73.204 38.2876 71.7541C38.2876 70.3076 39.4646 69.8095 40.9111 70.6454ZM29.1275 63.8428C30.5774 64.6786 31.7509 66.5311 31.7509 67.981C31.7509 69.4309 30.5774 69.9255 29.1275 69.0897C27.6776 68.2539 26.504 66.4014 26.504 64.9516C26.504 63.5017 27.6776 63.007 29.1275 63.8428Z" fill="#6262C9"/>
<defs>
<linearGradient id="paint0_linear_540_17159" x1="340.326" y1="234.049" x2="246.865" y2="234.049" gradientUnits="userSpaceOnUse">
<stop offset="0.0099" stop-color="#791CE2"/>
<stop offset="1" stop-color="#9481FF"/>
</linearGradient>
<linearGradient id="paint1_linear_540_17159" x1="246.867" y1="232.097" x2="146.641" y2="232.097" gradientUnits="userSpaceOnUse">
<stop offset="0.0099" stop-color="#791CE2"/>
<stop offset="1" stop-color="#9481FF"/>
</linearGradient>
<linearGradient id="paint2_linear_540_17159" x1="239.271" y1="171.357" x2="145.247" y2="171.357" gradientUnits="userSpaceOnUse">
<stop offset="0.0099" stop-color="#791CE2"/>
<stop offset="1" stop-color="#9481FF"/>
</linearGradient>
<linearGradient id="paint3_linear_540_17159" x1="239.271" y1="217.459" x2="145.247" y2="217.459" gradientUnits="userSpaceOnUse">
<stop offset="0.0099" stop-color="#791CE2"/>
<stop offset="1" stop-color="#9481FF"/>
</linearGradient>
<linearGradient id="paint4_linear_540_17159" x1="181.263" y1="149.432" x2="98.368" y2="149.432" gradientUnits="userSpaceOnUse">
<stop offset="0.0099" stop-color="#791CE2"/>
<stop offset="1" stop-color="#9481FF"/>
</linearGradient>
</defs>
</svg>
