<svg width="74" height="74" viewBox="0 0 74 74" fill="none" xmlns="http://www.w3.org/2000/svg">
<g id="carbon:data-check">
<path id="Vector" d="M53.1875 62.8536L47.1981 56.8643L43.9375 60.1249L53.1875 69.3749L69.375 53.1874L66.1144 49.9268L53.1875 62.8536Z" fill="white"/>
<path id="Vector_2" d="M25.4375 20.8125C26.7147 20.8125 27.75 19.7772 27.75 18.5C27.75 17.2228 26.7147 16.1875 25.4375 16.1875C24.1603 16.1875 23.125 17.2228 23.125 18.5C23.125 19.7772 24.1603 20.8125 25.4375 20.8125Z" fill="white"/>
<path id="Vector_3" d="M25.4375 39.3125C26.7147 39.3125 27.75 38.2772 27.75 37C27.75 35.7228 26.7147 34.6875 25.4375 34.6875C24.1603 34.6875 23.125 35.7228 23.125 37C23.125 38.2772 24.1603 39.3125 25.4375 39.3125Z" fill="white"/>
<path id="Vector_4" d="M25.4375 57.8125C26.7147 57.8125 27.75 56.7772 27.75 55.5C27.75 54.2228 26.7147 53.1875 25.4375 53.1875C24.1603 53.1875 23.125 54.2228 23.125 55.5C23.125 56.7772 24.1603 57.8125 25.4375 57.8125Z" fill="white"/>
<path id="Vector_5" d="M55.5 6.9375H18.5C17.2734 6.9375 16.097 7.42478 15.2296 8.29213C14.3623 9.15949 13.875 10.3359 13.875 11.5625V62.4375C13.875 63.6641 14.3623 64.8405 15.2296 65.7079C16.097 66.5752 17.2734 67.0625 18.5 67.0625H37V62.4375H18.5V48.5625H60.125V11.5625C60.125 10.3359 59.6377 9.15949 58.7704 8.29213C57.903 7.42478 56.7266 6.9375 55.5 6.9375ZM55.5 43.9375H18.5V30.0625H55.5V43.9375ZM55.5 25.4375H18.5V11.5625H55.5V25.4375Z" fill="white"/>
</g>
</svg>
