<svg width="74" height="74" viewBox="0 0 74 74" fill="none" xmlns="http://www.w3.org/2000/svg">
<g id="majesticons:data-plus">
<g id="Group">
<path id="Vector" d="M64.75 21.5833C64.75 28.3975 52.3242 33.9167 37 33.9167C21.6758 33.9167 9.25 28.3975 9.25 21.5833C9.25 14.7692 21.6758 9.25 37 9.25C52.3242 9.25 64.75 14.7692 64.75 21.5833Z" fill="white"/>
<path id="Vector_2" d="M64.75 21.5833C64.75 28.3975 52.3242 33.9167 37 33.9167C21.6758 33.9167 9.25 28.3975 9.25 21.5833M64.75 21.5833C64.75 14.7692 52.3242 9.25 37 9.25C21.6758 9.25 9.25 14.7692 9.25 21.5833M64.75 21.5833V37M9.25 21.5833V37M9.25 37C9.25 43.8142 21.6758 49.3333 37 49.3333M9.25 37V52.4167C9.25 59.2308 21.6758 64.75 37 64.75M55.5 46.25V55.5M55.5 55.5V64.75M55.5 55.5H64.75M55.5 55.5H46.25" stroke="white" stroke-width="2" stroke-linecap="round" stroke-linejoin="round"/>
</g>
</g>
</svg>
