<svg width="118" height="141" viewBox="0 0 118 141" fill="none" xmlns="http://www.w3.org/2000/svg">
<g id="Group 1000002814">
<circle id="Ellipse 986" cx="1.5" cy="1.5" r="1.5" fill="white"/>
<circle id="Ellipse 987" cx="1.5" cy="24.5" r="1.5" fill="white"/>
<circle id="Ellipse 988" cx="1.5" cy="47.5" r="1.5" fill="white"/>
<circle id="Ellipse 989" cx="1.5" cy="70.5" r="1.5" fill="white"/>
<circle id="Ellipse 990" cx="1.5" cy="93.5" r="1.5" fill="white"/>
<circle id="Ellipse 991" cx="1.5" cy="116.5" r="1.5" fill="white"/>
<circle id="Ellipse 992" cx="1.5" cy="139.5" r="1.5" fill="white"/>
<circle id="Ellipse 986_2" cx="24.5" cy="1.5" r="1.5" fill="white"/>
<circle id="Ellipse 987_2" cx="24.5" cy="24.5" r="1.5" fill="white"/>
<circle id="Ellipse 988_2" cx="24.5" cy="47.5" r="1.5" fill="white"/>
<circle id="Ellipse 989_2" cx="24.5" cy="70.5" r="1.5" fill="white"/>
<circle id="Ellipse 990_2" cx="24.5" cy="93.5" r="1.5" fill="white"/>
<circle id="Ellipse 991_2" cx="24.5" cy="116.5" r="1.5" fill="white"/>
<circle id="Ellipse 992_2" cx="24.5" cy="139.5" r="1.5" fill="white"/>
<circle id="Ellipse 986_3" cx="47.5" cy="1.5" r="1.5" fill="white"/>
<circle id="Ellipse 987_3" cx="47.5" cy="24.5" r="1.5" fill="white"/>
<circle id="Ellipse 988_3" cx="47.5" cy="47.5" r="1.5" fill="white"/>
<circle id="Ellipse 989_3" cx="47.5" cy="70.5" r="1.5" fill="white"/>
<circle id="Ellipse 990_3" cx="47.5" cy="93.5" r="1.5" fill="white"/>
<circle id="Ellipse 991_3" cx="47.5" cy="116.5" r="1.5" fill="white"/>
<circle id="Ellipse 992_3" cx="47.5" cy="139.5" r="1.5" fill="white"/>
<circle id="Ellipse 986_4" cx="70.5" cy="1.5" r="1.5" fill="white"/>
<circle id="Ellipse 987_4" cx="70.5" cy="24.5" r="1.5" fill="white"/>
<circle id="Ellipse 988_4" cx="70.5" cy="47.5" r="1.5" fill="white"/>
<circle id="Ellipse 989_4" cx="70.5" cy="70.5" r="1.5" fill="white"/>
<circle id="Ellipse 990_4" cx="70.5" cy="93.5" r="1.5" fill="white"/>
<circle id="Ellipse 991_4" cx="70.5" cy="116.5" r="1.5" fill="white"/>
<circle id="Ellipse 992_4" cx="70.5" cy="139.5" r="1.5" fill="white"/>
<circle id="Ellipse 986_5" cx="93.5" cy="1.5" r="1.5" fill="white"/>
<circle id="Ellipse 987_5" cx="93.5" cy="24.5" r="1.5" fill="white"/>
<circle id="Ellipse 988_5" cx="93.5" cy="47.5" r="1.5" fill="white"/>
<circle id="Ellipse 989_5" cx="93.5" cy="70.5" r="1.5" fill="white"/>
<circle id="Ellipse 990_5" cx="93.5" cy="93.5" r="1.5" fill="white"/>
<circle id="Ellipse 991_5" cx="93.5" cy="116.5" r="1.5" fill="white"/>
<circle id="Ellipse 992_5" cx="93.5" cy="139.5" r="1.5" fill="white"/>
<circle id="Ellipse 986_6" cx="116.5" cy="1.5" r="1.5" fill="white"/>
<circle id="Ellipse 987_6" cx="116.5" cy="24.5" r="1.5" fill="white"/>
<circle id="Ellipse 988_6" cx="116.5" cy="47.5" r="1.5" fill="white"/>
<circle id="Ellipse 989_6" cx="116.5" cy="70.5" r="1.5" fill="white"/>
<circle id="Ellipse 990_6" cx="116.5" cy="93.5" r="1.5" fill="white"/>
<circle id="Ellipse 991_6" cx="116.5" cy="116.5" r="1.5" fill="white"/>
<circle id="Ellipse 992_6" cx="116.5" cy="139.5" r="1.5" fill="white"/>
</g>
</svg>
