<svg width="60" height="69" viewBox="0 0 60 69" fill="none" xmlns="http://www.w3.org/2000/svg">
<g id="Group 1000002794">
<path id="Vector" d="M4.91848 59.1631H31.1504C33.8678 59.1631 36.0688 61.3641 36.0688 64.0816C36.0688 66.799 33.8678 69 31.1504 69H4.91848C2.20102 69 0 66.799 0 64.0816C0 61.3641 2.20102 59.1631 4.91848 59.1631Z" fill="white"/>
<path id="Vector_2" d="M36.0708 44.4082H40.9893C43.7068 44.4082 45.9078 46.6092 45.9078 49.3267C45.9078 52.0441 43.7068 54.2452 40.9893 54.2452H36.0708C33.3534 54.2452 31.1523 52.0441 31.1523 49.3267C31.1523 46.6092 33.3534 44.4082 36.0708 44.4082Z" fill="white"/>
<path id="Vector_3" d="M16.3941 44.4082H21.3125C24.03 44.4082 26.231 46.6092 26.231 49.3267C26.231 52.0441 24.03 54.2452 21.3125 54.2452H16.3941C13.6766 54.2452 11.4756 52.0441 11.4756 49.3267C11.4756 46.6092 13.6766 44.4082 16.3941 44.4082Z" fill="white"/>
<path id="Vector_4" d="M27.8726 29.6533H39.349C42.0665 29.6533 44.2675 31.8543 44.2675 34.5718C44.2675 37.2893 42.0665 39.4903 39.349 39.4903H27.8726C25.1551 39.4903 22.9541 37.2893 22.9541 34.5718C22.9541 31.8543 25.1551 29.6533 27.8726 29.6533Z" fill="white"/>
<path id="Vector_5" d="M54.104 29.6533C56.8215 29.6533 59.0225 31.8543 59.0225 34.5718C59.0225 37.2893 56.8215 39.4903 54.104 39.4903C51.3866 39.4903 49.1855 37.2893 49.1855 34.5718C49.1855 31.8543 51.3866 29.6533 54.104 29.6533Z" fill="white"/>
<path id="Vector_6" d="M16.3941 14.8965H42.6259C45.3434 14.8965 47.5444 17.0975 47.5444 19.815C47.5444 22.5324 45.3434 24.7334 42.6259 24.7334H16.3941C13.6766 24.7334 11.4756 22.5324 11.4756 19.815C11.4756 17.0975 13.6766 14.8965 16.3941 14.8965Z" fill="white"/>
<path id="Vector_7" d="M19.6753 0.141602H31.1518C33.8692 0.141602 36.0702 2.34262 36.0702 5.06008C36.0702 7.77754 33.8692 9.97855 31.1518 9.97855H19.6753C16.9579 9.97855 14.7568 7.77754 14.7568 5.06008C14.7568 2.34262 16.9579 0.141602 19.6753 0.141602Z" fill="white"/>
<path id="Vector_8" d="M4.91848 0.141602C7.63593 0.141602 9.83695 2.34262 9.83695 5.06008C9.83695 7.77754 7.63593 9.97855 4.91848 9.97855C2.20102 9.97855 0 7.77754 0 5.06008C0 2.34262 2.20102 0.141602 4.91848 0.141602Z" fill="white"/>
</g>
</svg>
