<svg width="74" height="74" viewBox="0 0 74 74" fill="none" xmlns="http://www.w3.org/2000/svg">
<g id="carbon:flow-data">
<path id="Vector" d="M46.2498 53.1875H27.426C27.197 52.3766 26.8627 51.5991 26.4316 50.875L50.8748 26.4319C52.2668 27.2861 53.8665 27.742 55.4998 27.75C57.2311 27.7556 58.9292 27.2752 60.401 26.3635C61.8728 25.4517 63.0592 24.1452 63.8252 22.5925C64.5912 21.0399 64.906 19.3034 64.734 17.5806C64.5619 15.8579 63.9097 14.218 62.8517 12.8475C61.7937 11.4771 60.3723 10.431 58.7493 9.82843C57.1262 9.22583 55.3666 9.09085 53.6706 9.43884C51.9746 9.78683 50.4103 10.6038 49.1556 11.7969C47.901 12.9899 47.0063 14.5112 46.5735 16.1875H27.426C26.8632 14.0076 25.5246 12.1078 23.6612 10.8443C21.7979 9.58068 19.5376 9.04006 17.3042 9.32375C15.0707 9.60743 13.0174 10.6959 11.5291 12.3852C10.0408 14.0745 9.21973 16.2486 9.21973 18.5C9.21973 20.7514 10.0408 22.9255 11.5291 24.6148C13.0174 26.3041 15.0707 27.3926 17.3042 27.6763C19.5376 27.96 21.7979 27.4194 23.6612 26.1558C25.5246 24.8922 26.8632 22.9924 27.426 20.8125H46.5735C46.8025 21.6235 47.1368 22.4009 47.5679 23.125L23.1248 47.5681C21.7327 46.7139 20.133 46.258 18.4998 46.25C16.7684 46.2444 15.0703 46.7248 13.5985 47.6366C12.1267 48.5483 10.9403 49.8549 10.1743 51.4075C9.40831 52.9602 9.09345 54.6967 9.26555 56.4194C9.43764 58.1422 10.0898 59.7821 11.1478 61.1525C12.2058 62.523 13.6272 63.569 15.2502 64.1716C16.8733 64.7742 18.6329 64.9092 20.3289 64.5612C22.0249 64.2132 23.5892 63.3962 24.8439 62.2032C26.0985 61.0101 26.9932 59.4889 27.426 57.8125H46.2498V64.75H64.7498V46.25H46.2498V53.1875ZM18.4998 23.125C17.585 23.125 16.6908 22.8538 15.9302 22.3456C15.1697 21.8374 14.5769 21.115 14.2268 20.2699C13.8768 19.4248 13.7852 18.4949 13.9636 17.5977C14.1421 16.7006 14.5826 15.8765 15.2294 15.2297C15.8762 14.5828 16.7003 14.1423 17.5975 13.9639C18.4946 13.7854 19.4246 13.877 20.2697 14.2271C21.1148 14.5771 21.8371 15.1699 22.3453 15.9305C22.8535 16.6911 23.1248 17.5853 23.1248 18.5C23.1248 19.7266 22.6375 20.903 21.7701 21.7704C20.9028 22.6377 19.7264 23.125 18.4998 23.125ZM55.4998 13.875C56.4145 13.875 57.3087 14.1463 58.0693 14.6545C58.8298 15.1627 59.4226 15.885 59.7727 16.7301C60.1227 17.5752 60.2143 18.5052 60.0359 19.4023C59.8574 20.2995 59.4169 21.1236 58.7701 21.7704C58.1233 22.4172 57.2992 22.8577 56.402 23.0362C55.5049 23.2146 54.5749 23.123 53.7298 22.773C52.8847 22.4229 52.1624 21.8301 51.6542 21.0695C51.146 20.309 50.8748 19.4148 50.8748 18.5C50.8748 17.2734 51.362 16.097 52.2294 15.2297C53.0967 14.3623 54.2731 13.875 55.4998 13.875ZM18.4998 60.125C17.585 60.125 16.6908 59.8538 15.9302 59.3456C15.1697 58.8374 14.5769 58.115 14.2268 57.2699C13.8768 56.4248 13.7852 55.4949 13.9636 54.5977C14.1421 53.7006 14.5826 52.8765 15.2294 52.2297C15.8762 51.5828 16.7003 51.1423 17.5975 50.9639C18.4946 50.7854 19.4246 50.877 20.2697 51.2271C21.1148 51.5771 21.8371 52.1699 22.3453 52.9305C22.8535 53.6911 23.1248 54.5853 23.1248 55.5C23.1248 56.7267 22.6375 57.903 21.7701 58.7704C20.9028 59.6377 19.7264 60.125 18.4998 60.125ZM50.8748 50.875H60.1248V60.125H50.8748V50.875Z" fill="white"/>
</g>
</svg>
