<svg width="38" height="35" viewBox="0 0 38 35" fill="none" xmlns="http://www.w3.org/2000/svg">
<path d="M35.5293 22.4043C33.5877 20.3124 30.2311 20.6024 28.6673 22.9755C27.1004 20.5984 23.7397 20.3148 21.8005 22.4091C20.1612 24.18 20.3485 26.9634 22.0489 28.6761L28.0925 34.7622C28.4076 35.0793 28.9238 35.0793 29.2389 34.7622L35.2841 28.6761C36.9877 26.9618 37.1727 24.1744 35.5293 22.4043Z" fill="#68D585"/>
<path opacity="0.4" d="M14.8337 21H6.50033C6.03949 21 5.66699 20.552 5.66699 20C5.66699 19.448 6.03949 19 6.50033 19H14.8337C15.2945 19 15.667 19.448 15.667 20C15.667 20.552 15.2945 21 14.8337 21Z" fill="#68D585"/>
<path opacity="0.4" fill-rule="evenodd" clip-rule="evenodd" d="M3.88438 0H34.4496C36.224 0 37.667 1.47741 37.667 3.29412V18.1176H36.0583V14H2.27569V24.7059C2.27569 25.6142 2.99719 26.3529 3.88438 26.3529H16.7539V28H3.88438C2.10999 28 0.666992 26.5226 0.666992 24.7059V3.29412C0.666992 1.47741 2.10999 0 3.88438 0ZM2.27569 7.41176H36.0583V3.29412C36.0583 2.38576 35.3368 1.64706 34.4496 1.64706H3.88438C2.99719 1.64706 2.27569 2.38576 2.27569 3.29412V7.41176Z" fill="#68D585"/>
</svg>
