<svg width="112" height="120" viewBox="0 0 112 120" fill="none" xmlns="http://www.w3.org/2000/svg">
<rect width="111.204" height="119.24" rx="17.7927" fill="#A56752"/>
<path d="M12.9837 26V15.2166H20.2499V17.0963H15.2636V19.6658H19.8761V21.5455H15.2636V24.1203H20.271V26H12.9837ZM23.8949 17.9124L25.3797 20.7399L26.9014 17.9124H29.2023L26.8593 21.9562L29.2655 26H26.9751L25.3797 23.2041L23.8106 26H21.4939L23.8949 21.9562L21.5781 17.9124H23.8949ZM33.899 26.158C33.0706 26.158 32.358 25.9824 31.7613 25.6314C31.1681 25.2769 30.7117 24.7855 30.3923 24.1571C30.0764 23.5288 29.9184 22.8057 29.9184 21.9878C29.9184 21.1594 30.0781 20.4328 30.3976 19.8079C30.7205 19.1796 31.1786 18.6899 31.7718 18.3389C32.3651 17.9844 33.0706 17.8071 33.8885 17.8071C34.5941 17.8071 35.2119 17.9352 35.7419 18.1915C36.2719 18.4477 36.6914 18.8075 37.0003 19.2709C37.3092 19.7342 37.4795 20.2783 37.5111 20.9031H35.3944C35.3347 20.4995 35.1768 20.1748 34.9205 19.929C34.6678 19.6798 34.3361 19.5552 33.9254 19.5552C33.5778 19.5552 33.2742 19.65 33.0144 19.8395C32.7582 20.0256 32.5581 20.2976 32.4142 20.6557C32.2703 21.0137 32.1983 21.4472 32.1983 21.9562C32.1983 22.4722 32.2685 22.911 32.4089 23.2725C32.5529 23.6341 32.7547 23.9097 33.0144 24.0992C33.2742 24.2888 33.5778 24.3835 33.9254 24.3835C34.1816 24.3835 34.4115 24.3309 34.6151 24.2256C34.8222 24.1203 34.9925 23.9676 35.1259 23.7675C35.2628 23.5639 35.3523 23.3199 35.3944 23.0356H37.5111C37.476 23.6534 37.3075 24.1975 37.0056 24.6679C36.7072 25.1347 36.2948 25.4998 35.7682 25.7631C35.2417 26.0263 34.6186 26.158 33.899 26.158ZM42.6329 26.158C41.801 26.158 41.0849 25.9895 40.4847 25.6525C39.8879 25.312 39.4281 24.8311 39.1051 24.2098C38.7822 23.585 38.6207 22.8461 38.6207 21.9931C38.6207 21.1611 38.7822 20.431 39.1051 19.8027C39.4281 19.1743 39.8827 18.6847 40.4689 18.3336C41.0586 17.9826 41.7501 17.8071 42.5434 17.8071C43.077 17.8071 43.5737 17.8931 44.0335 18.0651C44.4969 18.2336 44.9005 18.4881 45.2445 18.8286C45.5921 19.1691 45.8623 19.5973 46.0554 20.1133C46.2485 20.6258 46.345 21.2261 46.345 21.9141V22.5301H39.5158V21.1401H44.2336C44.2336 20.8171 44.1634 20.5311 44.023 20.2818C43.8826 20.0326 43.6878 19.8378 43.4385 19.6974C43.1928 19.5535 42.9067 19.4815 42.5803 19.4815C42.2398 19.4815 41.9379 19.5605 41.6746 19.7184C41.4149 19.8729 41.2113 20.0817 41.0639 20.345C40.9164 20.6048 40.841 20.8944 40.8374 21.2138V22.5354C40.8374 22.9356 40.9112 23.2813 41.0586 23.5727C41.2095 23.864 41.4219 24.0887 41.6957 24.2466C41.9695 24.4046 42.2942 24.4836 42.6698 24.4836C42.919 24.4836 43.1472 24.4485 43.3543 24.3783C43.5614 24.3081 43.7387 24.2028 43.8861 24.0624C44.0335 23.9219 44.1458 23.7499 44.2231 23.5463L46.2976 23.6832C46.1923 24.1817 45.9764 24.617 45.65 24.9891C45.327 25.3576 44.9093 25.6455 44.3968 25.8526C43.8878 26.0562 43.2999 26.158 42.6329 26.158ZM50.0518 15.2166V26H47.8088V15.2166H50.0518Z" fill="white"/>
<g clip-path="url(#clip0_301_1548)">
<rect x="50.2734" y="46.0801" width="48.9299" height="57.0849" rx="4.07749" fill="#2FB776"/>
<path d="M50.2734 88.8926H99.2033V99.0863C99.2033 101.338 97.3778 103.164 95.1258 103.164H54.3509C52.099 103.164 50.2734 101.338 50.2734 99.0863V88.8926Z" fill="url(#paint0_linear_301_1548)"/>
<rect x="74.7383" y="74.623" width="24.4649" height="14.2712" fill="#229C5B"/>
<rect x="74.7383" y="60.3516" width="24.4649" height="14.2712" fill="#27AE68"/>
<path d="M50.2734 50.1576C50.2734 47.9056 52.099 46.0801 54.3509 46.0801H74.7384V60.3513H50.2734V50.1576Z" fill="#1D854F"/>
<rect x="50.2734" y="60.3516" width="24.4649" height="14.2712" fill="#197B43"/>
<rect x="50.2734" y="74.623" width="24.4649" height="14.2712" fill="#1B5B38"/>
<path d="M50.2734 66.4678C50.2734 63.0899 53.0118 60.3516 56.3897 60.3516H68.6221C72 60.3516 74.7384 63.0899 74.7384 66.4678V90.9327C74.7384 94.3106 72 97.049 68.6221 97.049H50.2734V66.4678Z" fill="black" fill-opacity="0.3"/>
<rect x="33.9629" y="56.2734" width="36.6974" height="36.6974" rx="4.07749" fill="url(#paint1_linear_301_1548)"/>
<path d="M60.4662 84.8171L54.7213 74.4195L60.214 64.4297H55.7302L52.3393 70.808L49.0044 64.4297H44.3804L49.9012 74.4195L44.1562 84.8171H48.6401L52.2552 78.0602L55.8423 84.8171H60.4662Z" fill="white"/>
</g>
<defs>
<linearGradient id="paint0_linear_301_1548" x1="50.2734" y1="96.0282" x2="99.2033" y2="96.0282" gradientUnits="userSpaceOnUse">
<stop stop-color="#163C27"/>
<stop offset="1" stop-color="#2A6043"/>
</linearGradient>
<linearGradient id="paint1_linear_301_1548" x1="33.9629" y1="74.6221" x2="70.6603" y2="74.6221" gradientUnits="userSpaceOnUse">
<stop stop-color="#185A30"/>
<stop offset="1" stop-color="#176F3D"/>
</linearGradient>
<clipPath id="clip0_301_1548">
<rect width="65.2398" height="65.2398" fill="white" transform="translate(33.9648 42)"/>
</clipPath>
</defs>
</svg>
