<svg width="18" height="19" viewBox="0 0 18 19" fill="none" xmlns="http://www.w3.org/2000/svg">
<path d="M17.1547 9.5573C17.154 4.4726 13.5951 0.278485 9.05614 0.0132214C4.51715 -0.252042 0.586973 3.50441 0.112674 8.56134C-0.361626 13.6183 2.78598 18.2055 7.27533 19V12.3203H5.10613V9.5573H7.27533V7.45142C7.27533 5.0558 8.55111 3.73253 10.5024 3.73253C11.1433 3.74247 11.7826 3.80477 12.4153 3.91892V6.27153H11.3376C10.9656 6.21626 10.5914 6.35325 10.3205 6.64381C10.0497 6.93437 9.91166 7.34697 9.94544 7.76506V9.5573H12.3154L11.9363 12.3203H9.94544V19C14.0978 18.2651 17.1554 14.2603 17.1547 9.5573Z" fill="white"/>
</svg>
