<svg width="48" height="48" viewBox="0 0 48 48" fill="none" xmlns="http://www.w3.org/2000/svg">
<rect x="4" y="4" width="40" height="40" rx="20" fill="#F4EBFF"/>
<rect x="4" y="4" width="40" height="40" rx="20" stroke="#F9F5FF" stroke-width="6.66667"/>
<path d="M31.3671 17.8412C30.9415 17.4154 30.4361 17.0776 29.8799 16.8471C29.3237 16.6167 28.7275 16.498 28.1254 16.498C27.5234 16.498 26.9272 16.6167 26.371 16.8471C25.8147 17.0776 25.3094 17.4154 24.8838 17.8412L24.0004 18.7246L23.1171 17.8412C22.2573 16.9815 21.0913 16.4985 19.8754 16.4985C18.6596 16.4985 17.4935 16.9815 16.6338 17.8412C15.774 18.701 15.291 19.867 15.291 21.0829C15.291 22.2988 15.774 23.4648 16.6338 24.3246L17.5171 25.2079L24.0004 31.6912L30.4838 25.2079L31.3671 24.3246C31.7929 23.8989 32.1307 23.3936 32.3612 22.8374C32.5917 22.2811 32.7103 21.685 32.7103 21.0829C32.7103 20.4808 32.5917 19.8847 32.3612 19.3284C32.1307 18.7722 31.7929 18.2669 31.3671 17.8412V17.8412Z" stroke="#791CE2" stroke-width="1.66667" stroke-linecap="round" stroke-linejoin="round"/>
</svg>
