<svg width="64" height="64" viewBox="0 0 64 64" fill="none" xmlns="http://www.w3.org/2000/svg">
<rect x="8" y="8" width="48" height="48" rx="24" fill="#791CE2" fill-opacity="0.12"/>
<rect x="4" y="4" width="56" height="56" rx="28" stroke="#791CE2" stroke-opacity="0.06" stroke-width="8"/>
<path d="M26.6673 42.667H37.334V38.667C37.334 37.2003 36.8118 35.9448 35.7673 34.9003C34.7229 33.8559 33.4673 33.3337 32.0007 33.3337C30.534 33.3337 29.2784 33.8559 28.234 34.9003C27.1895 35.9448 26.6673 37.2003 26.6673 38.667V42.667ZM32.0007 30.667C33.4673 30.667 34.7229 30.1448 35.7673 29.1003C36.8118 28.0559 37.334 26.8003 37.334 25.3337V21.3337H26.6673V25.3337C26.6673 26.8003 27.1895 28.0559 28.234 29.1003C29.2784 30.1448 30.534 30.667 32.0007 30.667ZM22.6673 45.3337C22.2895 45.3337 21.9729 45.2059 21.7173 44.9503C21.4618 44.6948 21.334 44.3781 21.334 44.0003C21.334 43.6225 21.4618 43.3059 21.7173 43.0503C21.9729 42.7948 22.2895 42.667 22.6673 42.667H24.0007V38.667C24.0007 37.3114 24.3173 36.0392 24.9507 34.8503C25.584 33.6614 26.4673 32.7114 27.6007 32.0003C26.4673 31.2892 25.584 30.3392 24.9507 29.1503C24.3173 27.9614 24.0007 26.6892 24.0007 25.3337V21.3337H22.6673C22.2895 21.3337 21.9729 21.2059 21.7173 20.9503C21.4618 20.6948 21.334 20.3781 21.334 20.0003C21.334 19.6225 21.4618 19.3059 21.7173 19.0503C21.9729 18.7948 22.2895 18.667 22.6673 18.667H41.334C41.7118 18.667 42.0284 18.7948 42.284 19.0503C42.5395 19.3059 42.6673 19.6225 42.6673 20.0003C42.6673 20.3781 42.5395 20.6948 42.284 20.9503C42.0284 21.2059 41.7118 21.3337 41.334 21.3337H40.0007V25.3337C40.0007 26.6892 39.684 27.9614 39.0507 29.1503C38.4173 30.3392 37.534 31.2892 36.4007 32.0003C37.534 32.7114 38.4173 33.6614 39.0507 34.8503C39.684 36.0392 40.0007 37.3114 40.0007 38.667V42.667H41.334C41.7118 42.667 42.0284 42.7948 42.284 43.0503C42.5395 43.3059 42.6673 43.6225 42.6673 44.0003C42.6673 44.3781 42.5395 44.6948 42.284 44.9503C42.0284 45.2059 41.7118 45.3337 41.334 45.3337H22.6673Z" fill="#791CE2"/>
</svg>
