<svg width="18" height="18" viewBox="0 0 18 18" fill="none" xmlns="http://www.w3.org/2000/svg">
<path fill-rule="evenodd" clip-rule="evenodd" d="M5.59926 0.054C6.46272 0.0105 6.73829 0 8.93674 0C11.1352 0 11.4108 0.0105 12.2742 0.054C13.5903 0.12075 14.7455 0.47925 15.6731 1.5105C16.601 2.54212 16.9231 3.82687 16.9831 5.28937C17.0222 6.24937 17.0317 6.55575 17.0317 9C17.0317 11.4443 17.0222 11.7506 16.9831 12.7106C16.9231 14.1739 16.6006 15.4583 15.6731 16.4895C14.7452 17.5211 13.5893 17.8792 12.2742 17.946C11.4108 17.9895 11.1352 18 8.93674 18C6.73829 18 6.46272 17.9895 5.59926 17.946C4.28316 17.8792 3.12794 17.5208 2.2004 16.4895C1.27252 15.4579 0.950404 14.1731 0.890367 12.7106C0.851241 11.7506 0.841797 11.4443 0.841797 9C0.841797 6.55575 0.851241 6.24937 0.890367 5.28937C0.950404 3.82612 1.27285 2.54175 2.2004 1.5105C3.12828 0.478875 4.28383 0.12075 5.59926 0.054ZM12.2078 1.674C11.3541 1.6305 11.0981 1.6215 8.93674 1.6215C6.77539 1.6215 6.51939 1.63087 5.66571 1.674C4.74457 1.72088 3.88954 1.926 3.23183 2.65725C2.57411 3.3885 2.38962 4.33913 2.34746 5.36325C2.30833 6.31238 2.30024 6.597 2.30024 9C2.30024 11.403 2.30867 11.6876 2.34746 12.6368C2.38962 13.6609 2.57411 14.6115 3.23183 15.3427C3.88954 16.074 4.74457 16.2791 5.66571 16.326C6.51905 16.3695 6.77505 16.3785 8.93674 16.3785C11.0984 16.3785 11.3544 16.3691 12.2078 16.326C13.1289 16.2791 13.9839 16.074 14.6416 15.3427C15.2994 14.6115 15.4839 13.6609 15.526 12.6368C15.5651 11.6876 15.5732 11.403 15.5732 9C15.5732 6.597 15.5648 6.31238 15.526 5.36325C15.4839 4.33913 15.2994 3.3885 14.6416 2.65725C13.9839 1.926 13.1289 1.72088 12.2078 1.674Z" fill="white"/>
<path fill-rule="evenodd" clip-rule="evenodd" d="M5.25684 9.4082C5.25684 6.92305 7.06874 4.9082 9.30431 4.9082C11.5399 4.9082 13.3518 6.92269 13.3518 9.4082C13.3518 11.8937 11.5399 13.9082 9.30431 13.9082C7.06874 13.9082 5.25684 11.8934 5.25684 9.4082ZM6.67693 9.4082C6.67693 11.0214 7.85334 12.3293 9.30431 12.3293C10.7553 12.3293 11.9317 11.0214 11.9317 9.4082C11.9317 7.79501 10.7553 6.48707 9.30431 6.48707C7.85334 6.48707 6.67693 7.79501 6.67693 9.4082Z" fill="white"/>
<ellipse cx="12.9837" cy="4.50071" rx="1.10386" ry="1.22727" fill="white"/>
</svg>
