<svg width="17" height="18" viewBox="0 0 17 18" fill="none" xmlns="http://www.w3.org/2000/svg">
<path fill-rule="evenodd" clip-rule="evenodd" d="M1.29274 0H16.1335C16.5045 0 16.808 0.3375 16.808 0.75V17.25C16.808 17.6625 16.5045 18 16.1335 18H1.29274C0.921724 18 0.618164 17.6625 0.618164 17.25V0.75C0.618164 0.3375 0.921724 0 1.29274 0ZM3.01292 15.3375H5.40767V6.75H3.01292V15.3375ZM4.22716 5.5875C3.45139 5.5875 2.84427 4.9125 2.84427 4.05C2.84427 3.1875 3.45139 2.5125 4.22716 2.5125C5.00292 2.5125 5.61004 3.1875 5.61004 4.05C5.61004 4.875 5.00292 5.5875 4.22716 5.5875ZM12.0185 15.3375H14.3796V10.6125C14.3796 8.2875 13.9411 6.525 11.5126 6.525C10.3658 6.525 9.55633 7.2375 9.25277 7.9125H9.21904V6.75H6.92547V15.3375H9.32022V11.1C9.32022 9.975 9.5226 8.8875 10.7706 8.8875C12.0185 8.8875 12.0185 10.1625 12.0185 11.175V15.3375Z" fill="white"/>
</svg>
