<svg width="41" height="42" viewBox="0 0 41 42" fill="none" xmlns="http://www.w3.org/2000/svg">
<path opacity="0.4" d="M10.0625 7.56757C9.46546 7.56757 8.98145 7.19111 8.98145 6.72673V0.840841C8.98145 0.376457 9.46546 0 10.0625 0C10.6596 0 11.1436 0.376457 11.1436 0.840841V6.72673C11.1436 7.19111 10.6596 7.56757 10.0625 7.56757Z" fill="#68D585"/>
<path opacity="0.4" d="M29.5225 7.56757C28.9254 7.56757 28.4414 7.19111 28.4414 6.72673V0.840841C28.4414 0.376457 28.9254 0 29.5225 0C30.1196 0 30.6036 0.376457 30.6036 0.840841V6.72673C30.6036 7.19111 30.1196 7.56757 29.5225 7.56757Z" fill="#68D585"/>
<path opacity="0.4" d="M22.822 36.0739H2.98657C2.49806 36.0739 2.10205 35.679 2.10205 35.1919V14.9074C2.10205 14.4204 2.49806 14.0255 2.98657 14.0255H36.5984C37.0869 14.0255 37.4829 14.4204 37.4829 14.9074V25.3028C38.1292 25.725 38.723 26.222 39.2519 26.7836V6.08809C39.2519 5.11393 38.4599 4.32422 37.4829 4.32422H32.1758V7.85196C32.1758 9.31319 30.9877 10.4978 29.5222 10.4978C28.0567 10.4978 26.8686 9.31319 26.8686 7.85196V4.32422H12.7163V7.85196C12.7163 9.31319 11.5283 10.4978 10.0627 10.4978C8.59722 10.4978 7.40917 9.31319 7.40917 7.85196V4.32422H2.10205C1.12503 4.32422 0.333008 5.11393 0.333008 6.08809V36.0739C0.333008 37.048 1.12503 37.8377 2.10205 37.8377H23.5163C23.2271 37.274 22.9945 36.6832 22.822 36.0739Z" fill="#68D585"/>
<path fill-rule="evenodd" clip-rule="evenodd" d="M40.3334 32.9733C40.3334 37.4513 36.7033 41.0815 32.2253 41.0815C27.7473 41.0815 24.1172 37.4513 24.1172 32.9733C24.1172 28.4954 27.7473 24.8652 32.2253 24.8652C36.7033 24.8652 40.3334 28.4954 40.3334 32.9733ZM32.2253 27.5679C31.7277 27.5679 31.3244 27.9713 31.3244 28.4688V32.9733C31.3244 33.4709 31.7277 33.8742 32.2253 33.8742H36.7298C37.2274 33.8742 37.6307 33.4709 37.6307 32.9733C37.6307 32.4758 37.2274 32.0724 36.7298 32.0724H33.1262V28.4688C33.1262 27.9713 32.7228 27.5679 32.2253 27.5679Z" fill="#68D585"/>
</svg>
