<svg width="32" height="33" viewBox="0 0 32 33" fill="none" xmlns="http://www.w3.org/2000/svg">
<path d="M14.5846 20.863L19.7 17.5682C19.9598 17.4057 20.0898 17.18 20.0898 16.8912C20.0898 16.6023 19.9598 16.375 19.7 16.2092L14.5846 12.9143C14.3196 12.7263 14.0449 12.7101 13.7603 12.8658C13.4756 13.0214 13.3333 13.2641 13.3333 13.5938V20.1835C13.3333 20.5132 13.4756 20.7559 13.7603 20.9116C14.0449 21.0673 14.3196 21.0511 14.5846 20.863ZM16.0045 28.8887C14.3451 28.8887 12.785 28.5738 11.3241 27.944C9.86331 27.3143 8.59259 26.4596 7.51197 25.38C6.43137 24.3004 5.57589 23.0308 4.94553 21.5714C4.31518 20.1119 4 18.5525 4 16.8931C4 15.2337 4.31488 13.6736 4.94463 12.2128C5.57441 10.752 6.4291 9.48126 7.5087 8.40064C8.5883 7.32004 9.85782 6.46456 11.3173 5.83421C12.7767 5.20385 14.3362 4.88867 15.9955 4.88867C17.6549 4.88867 19.215 5.20355 20.6759 5.8333C22.1367 6.46308 23.4074 7.31777 24.488 8.39737C25.5686 9.47697 26.4241 10.7465 27.0545 12.2059C27.6848 13.6654 28 15.2248 28 16.8842C28 18.5436 27.6851 20.1037 27.0554 21.5645C26.4256 23.0254 25.5709 24.2961 24.4913 25.3767C23.4117 26.4573 22.1422 27.3128 20.6827 27.9431C19.2233 28.5735 17.6638 28.8887 16.0045 28.8887ZM16 27.5553C18.9778 27.5553 21.5 26.522 23.5667 24.4553C25.6333 22.3887 26.6667 19.8665 26.6667 16.8887C26.6667 13.9109 25.6333 11.3887 23.5667 9.32201C21.5 7.25534 18.9778 6.22201 16 6.22201C13.0222 6.22201 10.5 7.25534 8.43333 9.32201C6.36667 11.3887 5.33333 13.9109 5.33333 16.8887C5.33333 19.8665 6.36667 22.3887 8.43333 24.4553C10.5 26.522 13.0222 27.5553 16 27.5553Z" fill="black"/>
</svg>
