<svg width="108" height="108" viewBox="0 0 108 108" fill="none" xmlns="http://www.w3.org/2000/svg">
<path d="M46.7993 74.0003L72.7993 57.3337C74.0438 56.5337 74.666 55.4225 74.666 54.0003C74.666 52.5781 74.0438 51.467 72.7993 50.667L46.7993 34.0003C45.466 33.1114 44.1105 33.0448 42.7327 33.8003C41.3549 34.5559 40.666 35.7337 40.666 37.3337V70.667C40.666 72.267 41.3549 73.4448 42.7327 74.2003C44.1105 74.9559 45.466 74.8892 46.7993 74.0003ZM53.9993 107.334C46.6216 107.334 39.6882 105.934 33.1993 103.134C26.7105 100.334 21.066 96.5337 16.266 91.7337C11.466 86.9337 7.66602 81.2892 4.86602 74.8003C2.06602 68.3114 0.666016 61.3781 0.666016 54.0003C0.666016 46.6225 2.06602 39.6892 4.86602 33.2003C7.66602 26.7114 11.466 21.067 16.266 16.267C21.066 11.467 26.7105 7.66699 33.1993 4.86699C39.6882 2.06699 46.6216 0.666992 53.9993 0.666992C61.3771 0.666992 68.3105 2.06699 74.7993 4.86699C81.2882 7.66699 86.9327 11.467 91.7327 16.267C96.5327 21.067 100.333 26.7114 103.133 33.2003C105.933 39.6892 107.333 46.6225 107.333 54.0003C107.333 61.3781 105.933 68.3114 103.133 74.8003C100.333 81.2892 96.5327 86.9337 91.7327 91.7337C86.9327 96.5337 81.2882 100.334 74.7993 103.134C68.3105 105.934 61.3771 107.334 53.9993 107.334ZM53.9993 96.667C65.9105 96.667 75.9993 92.5337 84.266 84.267C92.5327 76.0003 96.666 65.9114 96.666 54.0003C96.666 42.0892 92.5327 32.0003 84.266 23.7337C75.9993 15.467 65.9105 11.3337 53.9993 11.3337C42.0882 11.3337 31.9993 15.467 23.7327 23.7337C15.466 32.0003 11.3327 42.0892 11.3327 54.0003C11.3327 65.9114 15.466 76.0003 23.7327 84.267C31.9993 92.5337 42.0882 96.667 53.9993 96.667Z" fill="white"/>
</svg>
