<svg width="40" height="40" viewBox="0 0 40 40" fill="none" xmlns="http://www.w3.org/2000/svg">
<g clip-path="url(#clip0_380_631)">
<path d="M19.0104 19.0101L19.0104 12.0804C19.0104 11.8211 19.1106 11.5913 19.3109 11.391C19.5113 11.1906 19.7411 11.0905 20.0004 11.0905C20.2596 11.0905 20.4895 11.1906 20.6898 11.391C20.8902 11.5913 20.9903 11.8211 20.9903 12.0804L20.9903 19.0101L27.92 19.0101C28.1792 19.0101 28.4091 19.1102 28.6094 19.3106C28.8097 19.5109 28.9099 19.7407 28.9099 20C28.9099 20.2593 28.8097 20.4891 28.6094 20.6894C28.4091 20.8898 28.1792 20.9899 27.92 20.9899L20.9903 20.9899L20.9903 27.9196C20.9903 28.1789 20.8902 28.4087 20.6898 28.609C20.4895 28.8094 20.2596 28.9095 20.0004 28.9095C19.7411 28.9095 19.5113 28.8094 19.3109 28.609C19.1106 28.4087 19.0104 28.1789 19.0104 27.9196L19.0104 20.9899H12.0808C11.8215 20.9899 11.5917 20.8898 11.3913 20.6894C11.191 20.4891 11.0908 20.2593 11.0908 20C11.0908 19.7407 11.191 19.5109 11.3913 19.3106C11.5917 19.1102 11.8215 19.0101 12.0808 19.0101H19.0104Z" fill="black" fill-opacity="0.6"/>
</g>
<defs>
<clipPath id="clip0_380_631">
<rect width="24" height="24" fill="white" transform="translate(36.9707 20) rotate(135)"/>
</clipPath>
</defs>
</svg>
