<svg width="40" height="40" viewBox="0 0 40 40" fill="none" xmlns="http://www.w3.org/2000/svg">
<path d="M10 36.6663V29.4997C8.41667 28.0552 7.1875 26.3677 6.3125 24.4372C5.4375 22.5066 5 20.4719 5 18.333C5 14.1663 6.45833 10.6247 9.375 7.70801C12.2917 4.79134 15.8333 3.33301 20 3.33301C23.4722 3.33301 26.5486 4.35384 29.2292 6.39551C31.9097 8.43718 33.6528 11.0969 34.4583 14.3747L36.625 22.9163C36.7639 23.4441 36.6667 23.9233 36.3333 24.3538C36 24.7844 35.5556 24.9997 35 24.9997H31.6667V29.9997C31.6667 30.9163 31.3403 31.7011 30.6875 32.3538C30.0347 33.0066 29.25 33.333 28.3333 33.333H25V36.6663H21.6667V29.9997H28.3333V21.6663H32.8333L31.25 15.208C30.6111 12.6802 29.25 10.6247 27.1667 9.04134C25.0833 7.45801 22.6944 6.66634 20 6.66634C16.7778 6.66634 14.0278 7.79134 11.75 10.0413C9.47222 12.2913 8.33333 15.0275 8.33333 18.2497C8.33333 19.9163 8.67361 21.4997 9.35417 22.9997C10.0347 24.4997 11 25.833 12.25 26.9997L13.3333 27.9997V36.6663H10ZM20 26.6663C20.4722 26.6663 20.8681 26.5066 21.1875 26.1872C21.5069 25.8677 21.6667 25.4719 21.6667 24.9997C21.6667 24.5275 21.5069 24.1316 21.1875 23.8122C20.8681 23.4927 20.4722 23.333 20 23.333C19.5278 23.333 19.1319 23.4927 18.8125 23.8122C18.4931 24.1316 18.3333 24.5275 18.3333 24.9997C18.3333 25.4719 18.4931 25.8677 18.8125 26.1872C19.1319 26.5066 19.5278 26.6663 20 26.6663ZM18.75 21.333H21.2917C21.2917 20.6386 21.3819 20.0761 21.5625 19.6455C21.7431 19.215 22.1111 18.6941 22.6667 18.083C23.1667 17.5275 23.6528 16.965 24.125 16.3955C24.5972 15.8261 24.8333 15.083 24.8333 14.1663C24.8333 12.9997 24.3819 12.0136 23.4792 11.208C22.5764 10.4025 21.4583 9.99968 20.125 9.99968C19.0139 9.99968 18.0069 10.3191 17.1042 10.958C16.2014 11.5969 15.5694 12.4302 15.2083 13.458L17.5 14.4163C17.6944 13.8052 18.0347 13.3122 18.5208 12.9372C19.0069 12.5622 19.5417 12.3747 20.125 12.3747C20.7361 12.3747 21.2431 12.5413 21.6458 12.8747C22.0486 13.208 22.25 13.6386 22.25 14.1663C22.25 14.7497 22.0764 15.2705 21.7292 15.7288C21.3819 16.1872 20.9722 16.6525 20.5 17.1247C19.9444 17.708 19.5139 18.2913 19.2083 18.8747C18.9028 19.458 18.75 20.2775 18.75 21.333Z" fill="#C8C4FB"/>
<path d="M10 36.6663V29.4997C8.41667 28.0552 7.1875 26.3677 6.3125 24.4372C5.4375 22.5066 5 20.4719 5 18.333C5 14.1663 6.45833 10.6247 9.375 7.70801C12.2917 4.79134 15.8333 3.33301 20 3.33301C23.4722 3.33301 26.5486 4.35384 29.2292 6.39551C31.9097 8.43718 33.6528 11.0969 34.4583 14.3747L36.625 22.9163C36.7639 23.4441 36.6667 23.9233 36.3333 24.3538C36 24.7844 35.5556 24.9997 35 24.9997H31.6667V29.9997C31.6667 30.9163 31.3403 31.7011 30.6875 32.3538C30.0347 33.0066 29.25 33.333 28.3333 33.333H25V36.6663H21.6667V29.9997H28.3333V21.6663H32.8333L31.25 15.208C30.6111 12.6802 29.25 10.6247 27.1667 9.04134C25.0833 7.45801 22.6944 6.66634 20 6.66634C16.7778 6.66634 14.0278 7.79134 11.75 10.0413C9.47222 12.2913 8.33333 15.0275 8.33333 18.2497C8.33333 19.9163 8.67361 21.4997 9.35417 22.9997C10.0347 24.4997 11 25.833 12.25 26.9997L13.3333 27.9997V36.6663H10Z" fill="#473BF0"/>
</svg>
