<svg width="59" height="40" viewBox="0 0 59 40" fill="none" xmlns="http://www.w3.org/2000/svg">
<path opacity="0.4" d="M58.5305 25.5338L50.0378 13.0337C49.811 12.6995 49.4401 12.5002 49.0442 12.5H44.1912V22.5C44.1912 25.9518 41.4753 28.75 38.125 28.75H17.5V36.25C17.5 38.3211 19.1296 40 21.1397 40H49.0442C49.4405 40.0002 49.8119 39.8009 50.039 39.4662L58.5317 26.9662C58.8232 26.5358 58.8227 25.9636 58.5305 25.5338Z" fill="#68D585"/>
<path d="M37.6102 27.5H9.70537C9.30968 27.5001 8.93883 27.3013 8.71171 26.9675L0.218925 14.4675C-0.0729751 14.0374 -0.0729751 13.4651 0.218925 13.035L8.71171 0.535C8.9383 0.200232 9.30924 0.000511859 9.70537 0H37.6102C39.6204 0 41.25 1.67893 41.25 3.75V23.75C41.25 25.8211 39.6204 27.5 37.6102 27.5Z" fill="#68D585"/>
</svg>
