<svg width="41" height="40" viewBox="0 0 41 40" fill="none" xmlns="http://www.w3.org/2000/svg">
<path opacity="0.4" d="M36.1215 23.6373C35.6195 23.6373 35.2124 24.0443 35.2124 24.5463V38.1827H2.48517V10.91H7.03063C7.53271 10.91 7.93972 10.503 7.93972 10.0009C7.93972 9.49881 7.53271 9.0918 7.03063 9.0918H1.57608C1.07401 9.0918 0.666992 9.49881 0.666992 10.0009V39.0918C0.666992 39.5939 1.07401 40.0009 1.57608 40.0009H36.1215C36.6236 40.0009 37.0306 39.5939 37.0306 39.0918V24.5463C37.0306 24.0443 36.6236 23.6373 36.1215 23.6373Z" fill="#68D585"/>
<path d="M40.3558 12.9492L25.8104 0.224499C25.5419 -0.0100925 25.1609 -0.0660628 24.8363 0.0813636C24.5116 0.22879 24.3031 0.552386 24.3031 0.908907V7.28309C12.9958 7.57939 7.93945 13.4982 7.93945 26.3584C7.93962 26.7481 8.1883 27.0944 8.55764 27.2191C8.65128 27.2511 8.74958 27.2674 8.84854 27.2673C9.13373 27.2686 9.403 27.136 9.57582 26.9092C12.5995 22.9463 15.4604 20.1087 24.3031 20.0015V26.3638C24.3031 26.7203 24.5116 27.0439 24.8363 27.1914C25.1609 27.3388 25.5419 27.2828 25.8104 27.0482L40.3558 14.3235C40.5534 14.1509 40.6667 13.9014 40.6667 13.6391C40.6667 13.3768 40.5534 13.1273 40.3558 12.9547V12.9492Z" fill="#68D585"/>
</svg>
