<svg width="16" height="15" viewBox="0 0 16 15" fill="none" xmlns="http://www.w3.org/2000/svg">
<path d="M15.3783 1.73969C14.8049 2.04897 14.1997 2.24227 13.5626 2.35825C14.1997 1.89433 14.7094 1.15979 14.9324 0.270619C14.3271 0.695876 13.6582 1.00515 12.9255 1.19845C12.3521 0.463918 11.5239 0 10.6319 0C8.91175 0 7.51013 1.70103 7.51013 3.78866C7.51013 4.09794 7.54198 4.36856 7.60569 4.63918C5.02543 4.48454 2.70001 2.9768 1.13911 0.657216C0.884268 1.23711 0.724992 1.85567 0.724992 2.55155C0.724992 3.86598 1.26653 5.02577 2.12662 5.72165C1.61693 5.68299 1.13911 5.52835 0.693137 5.25773V5.29639C0.693137 7.15206 1.77621 8.69845 3.20969 9.04639C2.95485 9.12371 2.66815 9.16237 2.38146 9.16237C2.19033 9.16237 1.96734 9.12371 1.77621 9.08505C2.19033 10.5928 3.33711 11.7139 4.70688 11.7139C3.62381 12.7191 2.28589 13.3376 0.820558 13.3376C0.565717 13.3376 0.310876 13.3376 0.0878906 13.299C1.48951 14.3814 3.11412 15 4.89801 15C10.6638 15 13.8174 9.20103 13.8174 4.17526C13.8174 4.02062 13.8174 3.82732 13.8174 3.67268C14.4227 3.1701 14.9642 2.51289 15.3783 1.73969Z" fill="white"/>
</svg>
