<svg width="42" height="36" viewBox="0 0 42 36" fill="none" xmlns="http://www.w3.org/2000/svg">
<path opacity="0.4" d="M39.0387 25.5089L32.1549 22.9242C31.8516 22.8109 31.6338 22.534 31.5885 22.2042L31.2356 19.6519C33.6994 18.2154 35.2261 15.5226 35.2334 12.6005V7.26543C35.2307 4.82211 33.463 2.7651 31.1145 2.47214L30.3538 0.900771C29.989 0.167143 29.1576 -0.178021 28.4028 0.0907884L23.7087 1.82325C22.2551 2.41492 21.0567 3.52778 20.333 4.95788C22.6016 6.90721 23.9112 9.79919 23.9056 12.8471V14.4005C24.1103 16.7494 24.8573 19.0135 26.084 21.0027C26.5003 21.6475 26.6283 22.4459 26.4354 23.1948C26.2425 23.9437 25.7473 24.5709 25.0759 24.9167C24.796 25.0541 24.5068 25.1702 24.2106 25.2641L25.4113 25.6358C27.6277 26.3137 29.1445 28.4216 29.1338 30.8089V35.1C29.1309 35.4073 29.0767 35.7118 28.9735 36H40.4616C40.9429 36 41.333 35.5971 41.333 35.1V28.8902C41.3297 27.3779 40.4138 26.0282 39.0387 25.5089Z" fill="#68D585"/>
<path d="M26.433 36H1.23304C0.735986 36 0.333044 35.5907 0.333044 35.0857V30.7264C0.325949 29.1087 1.3717 27.6809 2.89894 27.2229L8.87222 25.4025C9.20714 25.2994 9.45287 25.0084 9.50222 24.6565L9.64802 23.6279C5.79153 24.2231 3.62883 23.1534 3.52804 23.104C3.29688 22.9868 3.12647 22.7743 3.06017 22.5206C2.99386 22.267 3.03807 21.9966 3.18154 21.7783C4.65042 19.46 5.52734 16.8063 5.73303 14.0572V12.2286C5.73302 9.95097 6.66231 7.77522 8.29966 6.2193C9.93701 4.66338 12.136 3.86648 14.373 4.01832C18.6893 4.38387 21.9915 8.07952 21.933 12.4791V14.0572C22.1379 16.806 23.0139 19.4597 24.4818 21.7783C24.6252 21.9966 24.6695 22.267 24.6031 22.5206C24.5368 22.7743 24.3664 22.9868 24.1353 23.104C24.0363 23.1534 21.8736 24.2222 18.0153 23.6279L18.1611 24.6565C18.2104 25.0084 18.4562 25.2994 18.7911 25.4025L24.7671 27.2229C26.2943 27.6809 27.3401 29.1087 27.333 30.7264V35.0857C27.333 35.5907 26.93 36 26.433 36Z" fill="#68D585"/>
</svg>
