<svg width="29" height="33" viewBox="0 0 29 33" fill="none" xmlns="http://www.w3.org/2000/svg">
<path d="M18.6839 0.447449C19.7838 0.462735 20.8332 0.671425 21.8132 1.16989C22.6772 1.61219 23.3817 2.23062 23.8626 3.08299C24.1751 3.64569 24.38 4.26165 24.467 4.8994C24.6458 6.12363 24.465 7.30798 24.0613 8.46607C23.824 9.14531 23.4957 9.78235 23.1401 10.4081C22.4157 11.6818 21.4849 12.7858 20.4022 13.7644C19.0132 15.0212 17.49 16.1212 15.8602 17.0446C15.2288 17.4012 14.5742 17.7006 13.87 17.8837C13.4386 18.0002 12.9932 18.0566 12.5464 18.0512C11.9582 18.0392 11.498 17.7714 11.1401 17.3201C10.8096 16.9151 10.6393 16.4028 10.6616 15.8806C10.6655 15.7353 10.6864 15.5909 10.724 15.4506C10.9371 14.6939 11.2265 13.9691 11.6592 13.3082C11.9898 12.8034 12.3839 12.3551 12.8993 12.0344C13.4726 11.6775 14.0957 11.525 14.7696 11.6722C14.9803 11.7216 15.1786 11.8138 15.3521 11.943C15.7958 12.26 15.7725 12.7575 15.5595 13.0752C15.377 13.3513 15.173 13.6125 14.9494 13.8565C14.5705 14.2645 14.1681 14.6504 13.7753 15.0451C13.4277 15.3944 13.1011 15.7609 12.8362 16.1786C12.699 16.3953 12.5723 16.6163 12.5345 16.8765C12.4866 17.2028 12.6561 17.4251 12.9854 17.4557C13.1558 17.4696 13.3273 17.4524 13.4915 17.4049C13.9976 17.265 14.4675 17.0393 14.9291 16.7961C15.6409 16.4196 16.2979 15.9593 16.9382 15.4738C17.7145 14.8853 18.4692 14.2715 19.1647 13.589C19.9569 12.8123 20.6631 11.9683 21.2034 10.9943C21.5982 10.2831 21.889 9.53212 22.0182 8.7266C22.1326 8.01712 22.0688 7.32592 21.7401 6.67459C21.5818 6.35266 21.3343 6.08306 21.027 5.89799C20.8851 5.81257 20.7286 5.7542 20.5654 5.72585C19.9715 5.62051 19.397 5.70691 18.8324 5.89533C18.2439 6.09206 17.6979 6.37917 17.1672 6.69287C16.0154 7.3761 14.8623 8.05899 13.7647 8.82829C13.2144 9.21377 12.681 9.62384 12.1417 10.0246C11.6545 10.3868 11.1707 10.7534 10.6383 11.0494C10.2063 11.2955 9.7387 11.4729 9.25225 11.5755C8.64944 11.6978 8.09382 11.5841 7.58339 11.2565C7.05369 10.9165 6.68283 10.45 6.52 9.83253C6.41632 9.44273 6.45719 9.05626 6.54658 8.67144C6.67718 8.10652 6.92508 7.59476 7.23413 7.10959C7.99844 5.91128 8.95948 4.89475 10.077 4.02576C11.7333 2.73806 13.5557 1.74645 15.5269 1.02899C16.539 0.658788 17.6063 0.462176 18.6839 0.447449Z" fill="white"/>
<path d="M5.05837 27.8443C5.05272 27.4682 5.00985 27.1299 4.79252 26.8365C4.68669 26.6947 4.54017 26.5885 4.37248 26.5321C3.94048 26.3772 3.5005 26.3955 3.07149 26.5281C2.72755 26.6344 2.39591 26.7793 2.05928 26.9086C1.99281 26.9332 1.93233 26.9647 1.85192 27.0006C1.6934 26.6075 1.53755 26.226 1.37439 25.8272C1.61066 25.7152 1.83331 25.6009 2.06293 25.5029C2.59197 25.2766 3.14061 25.1214 3.7175 25.0865C4.29439 25.0516 4.86364 25.0822 5.38868 25.362C5.98252 25.6764 6.4112 26.1303 6.59065 26.7909C6.61654 26.8774 6.63204 26.9666 6.63684 27.0568C6.65977 27.9145 6.69067 28.7722 6.69433 29.6298C6.69665 30.216 6.65811 30.8026 6.64083 31.3891C6.63774 31.4695 6.60425 31.5458 6.54711 31.6024C6.13671 32.0544 5.63459 32.3667 5.06568 32.5764C4.45562 32.799 3.80595 32.8924 3.15789 32.8506C2.55973 32.8174 2.04333 32.5724 1.60667 32.166C1.17002 31.7596 0.864956 31.2688 0.779885 30.6673C0.663577 29.8435 0.901178 29.1287 1.49335 28.5405C1.87418 28.1624 2.3434 27.967 2.87211 27.8978C3.45697 27.8218 4.04383 27.842 4.63069 27.8437L5.05837 27.8443ZM4.9816 29.1836C4.94713 29.1768 4.91229 29.172 4.87726 29.1693C4.67787 29.1653 4.47616 29.1583 4.27578 29.1613C4.03552 29.1649 3.79426 29.1659 3.55533 29.1885C3.30843 29.2121 3.06883 29.2842 2.87742 29.4491C2.55973 29.7229 2.46536 30.0805 2.54279 30.4835C2.63916 30.982 2.91763 31.3303 3.4141 31.4785C3.67009 31.5551 3.94115 31.5665 4.20267 31.5117C4.44576 31.4672 4.67249 31.3584 4.85931 31.1967C4.89094 31.1722 4.91695 31.1411 4.93558 31.1057C4.95421 31.0703 4.96503 31.0313 4.96732 30.9913C4.97496 30.8162 4.99756 30.6414 4.99888 30.4663C5.00154 30.0652 4.99556 29.6641 4.99224 29.263C4.99025 29.2363 4.9867 29.2098 4.9816 29.1836Z" fill="white"/>
<path d="M25.0458 29.1503C23.6202 29.1503 22.2212 29.1198 20.8025 29.157C20.8098 29.2567 20.8142 29.351 20.8231 29.4431C20.8597 29.8196 20.9408 30.1855 21.0999 30.5307C21.2237 30.8124 21.4158 31.0586 21.6589 31.2472C22.0444 31.54 22.4843 31.5878 22.9459 31.5283C23.3274 31.4791 23.6826 31.3396 24.0369 31.199C24.1994 31.1349 24.3606 31.0661 24.5354 30.9946C24.7015 31.3422 24.8643 31.6839 25.0338 32.0354C25.0026 32.058 24.9733 32.0833 24.9408 32.1019C24.2496 32.512 23.5072 32.7762 22.7053 32.8459C21.9742 32.9094 21.2764 32.7894 20.645 32.385C20.215 32.1095 19.9139 31.7204 19.662 31.2851C19.3518 30.7435 19.164 30.1405 19.1117 29.5185C19.0063 28.3845 19.2471 27.3286 19.8342 26.351C20.2436 25.6714 20.8547 25.3022 21.6197 25.1749C22.3228 25.0513 23.0471 25.1718 23.6723 25.5165C24.0226 25.7063 24.2665 26.005 24.4676 26.34C24.7334 26.7816 24.8733 27.2685 24.9404 27.7729C24.9949 28.1796 25.0122 28.5914 25.0448 29.0024C25.0488 29.0447 25.0458 29.0885 25.0458 29.1503ZM23.3178 27.8593C23.235 27.4801 23.1785 27.0927 22.9303 26.7713C22.8058 26.6116 22.631 26.4987 22.4342 26.451C21.9108 26.3124 21.3847 26.5537 21.1598 27.0491C21.0793 27.2256 21.0321 27.4173 20.9737 27.6031C20.9474 27.6872 20.9305 27.7746 20.9095 27.8593C21.0501 27.8965 23.1739 27.8982 23.3184 27.8603L23.3178 27.8593Z" fill="white"/>
<path d="M15.6938 23.3585L17.3949 23.0953V25.1846C17.7724 25.2072 18.1319 25.1826 18.4935 25.2215V26.5085C18.1279 26.5145 17.77 26.5035 17.3969 26.5261C17.3969 26.5985 17.3969 26.6527 17.3969 26.7069C17.3938 27.9457 17.3911 29.1847 17.3889 30.4238C17.3889 30.6188 17.4045 30.8142 17.4221 31.0086C17.45 31.3077 17.6158 31.4974 17.9056 31.5702C18.0655 31.6108 18.2296 31.6337 18.3918 31.6646L18.5546 31.6978V32.7901C18.5363 32.7992 18.5169 32.8057 18.4968 32.8094C18.014 32.831 17.5331 32.8184 17.0662 32.6765C16.6103 32.5389 16.2301 32.2897 15.9722 31.8789C15.8257 31.6463 15.7513 31.3848 15.719 31.1146C15.6995 30.9454 15.69 30.7752 15.6904 30.6049C15.6904 28.2521 15.6918 25.8996 15.6944 23.5473L15.6938 23.3585Z" fill="white"/>
<path d="M25.9808 23.3598L27.6258 23.0747V23.3017C27.6258 25.4384 27.6266 27.5752 27.6284 29.7119C27.6284 30.1031 27.6317 30.4942 27.6347 30.8856C27.6374 31.2718 27.7783 31.4685 28.1471 31.5835C28.2725 31.6181 28.3998 31.6454 28.5283 31.6652C28.6067 31.6799 28.6862 31.6868 28.7815 31.6985V32.8144C28.7727 32.8217 28.7622 32.8268 28.751 32.8293C28.2837 32.8483 27.8185 32.8406 27.3642 32.7077C27.089 32.6285 26.8327 32.4942 26.6109 32.3129C26.1978 31.9749 26.0297 31.522 25.9865 31.0113C25.9738 30.8617 25.9755 30.7105 25.9758 30.5603C25.9758 28.2228 25.9775 25.8856 25.9808 23.5486V23.3598Z" fill="white"/>
<path d="M12.3864 32.7157H10.7249C10.7229 32.6463 10.7196 32.5828 10.7192 32.52C10.7175 31.5217 10.716 30.5235 10.7149 29.5252C10.7129 28.7277 10.7079 27.9301 10.7083 27.1326C10.7088 26.988 10.7199 26.8436 10.7415 26.7006C10.7661 26.5374 10.8515 26.4015 10.9701 26.2869C11.6228 25.6515 12.4047 25.2706 13.2963 25.1065C13.8551 25.004 14.4277 25.0032 14.9868 25.1042C15.0163 25.1095 15.0459 25.1161 15.0748 25.1234C15.0891 25.1271 15.1027 25.1341 15.1303 25.1447C14.9416 25.6246 14.7116 26.0831 14.4949 26.5364C14.2361 26.5364 13.9908 26.5288 13.7462 26.5381C13.3239 26.5521 12.9092 26.6554 12.5297 26.8411C12.422 26.894 12.3818 26.9598 12.3821 27.0837C12.3868 28.9004 12.3879 30.717 12.3854 32.5336L12.3864 32.7157Z" fill="white"/>
<path d="M9.49964 25.255C9.51725 27.7447 9.49798 30.2197 9.51393 32.71H7.88794C7.88395 32.6499 7.87598 32.5871 7.87598 32.5243C7.87598 30.9591 7.87598 29.3937 7.87598 27.8281C7.87598 27.1106 7.88196 26.3932 7.88495 25.6757C7.88495 25.6212 7.88495 25.5667 7.88495 25.4983L9.49964 25.255Z" fill="white"/>
<path d="M8.61824 24.5222C7.82435 24.5202 7.32722 23.73 7.65654 22.984C7.85891 22.5264 8.20651 22.3526 8.70796 22.3556C9.37989 22.3612 9.87802 23.0295 9.71785 23.6825C9.58991 24.2042 9.1712 24.5236 8.61824 24.5222Z" fill="white"/>
</svg>
