<svg width="48" height="26" viewBox="0 0 48 26" fill="none" xmlns="http://www.w3.org/2000/svg">
<path fill-rule="evenodd" clip-rule="evenodd" d="M23.0224 0.454373C22.6366 0.657676 22.2453 0.785271 22.0959 0.756637C21.7781 0.695817 21.7658 0.804285 22.0602 1.07104C22.2579 1.25029 22.265 1.30115 22.1231 1.51831C21.8833 1.8854 21.7917 2.6709 21.9393 3.09492C22.0396 3.38309 22.0362 3.48812 21.9242 3.56395C21.6881 3.72373 20.9943 3.56417 20.7792 3.30051C20.5242 2.98794 20.5226 2.35271 20.7758 1.92343C20.9679 1.59768 20.9659 1.58325 20.6867 1.30367C20.0389 0.654928 19.2365 0.748963 18.4181 1.56928C17.5616 2.42797 17.0378 3.74858 17.0352 5.05637C17.0338 5.71954 17.1016 5.8303 17.354 5.57751C17.7268 5.20424 17.3762 6.90901 16.8025 8.25906C16.613 8.70541 16.4778 9.0906 16.5023 9.11511C16.6795 9.29253 18.5762 8.04613 19.4297 7.19134C19.8003 6.82024 20.1355 6.51672 20.1748 6.51672C20.2141 6.51672 20.2115 6.7025 20.169 6.92962C20.0943 7.32879 20.1001 7.33806 20.3454 7.20657C20.8494 6.93638 21.5003 6.24916 21.7172 5.75814C21.9973 5.12383 22.1085 5.11833 22.0068 5.74359C21.8485 6.71681 21.118 7.82347 20.1925 8.49191C20.0114 8.62271 19.4726 8.89978 18.9953 9.10755L18.1275 9.48541L18.6958 9.73773C19.0399 9.89053 19.5911 10.0113 20.0938 10.0438C20.9237 10.0976 20.924 10.0975 21.3072 9.69055L21.6905 9.28348L21.8356 9.88938C21.9729 10.4628 21.9662 10.5159 21.7091 10.8825C21.5597 11.0957 21.4302 11.2858 21.4211 11.3053C21.412 11.3246 20.8972 11.4442 20.277 11.571C18.9956 11.833 17.1954 12.5043 15.9794 13.1737C14.7555 13.8476 13.0764 15.1729 12.4679 15.9454C12.3167 16.1374 12.3291 16.1464 12.6394 16.0706C12.8234 16.0257 13.2844 15.8477 13.6639 15.6752C16.1404 14.5491 19.2586 13.661 21.72 13.3807C23.0777 13.2261 26.3082 13.2948 27.3837 13.5013C30.0213 14.0076 31.1245 14.3641 34.63 15.8431C35.0302 16.0121 35.387 16.1209 35.4227 16.085C35.5907 15.9168 33.4679 14.1197 32.3013 13.4424C30.538 12.4188 28.8779 11.7904 27.1236 11.4826C26.2347 11.3267 25.9358 11.2225 25.6356 10.9637C25.4291 10.7858 25.1846 10.6401 25.0924 10.6401C24.849 10.6401 24.8862 10.2945 25.2048 9.59445C25.5062 8.93197 25.7231 7.82416 25.7245 6.94039L25.7254 6.3905L26.1078 6.68268C26.712 7.14415 26.8788 7.08299 26.7936 6.43081C26.7544 6.13153 26.7503 5.91253 26.7844 5.94403C26.8184 5.97553 27.1059 6.39096 27.4231 6.86709C28.0166 7.75773 28.9082 8.56178 29.8139 9.02279C30.347 9.29425 30.3816 9.24923 30.1306 8.60931C29.8899 7.99562 29.5011 6.29887 29.5002 5.85813C29.4994 5.49653 29.6418 5.36791 29.7853 5.60042C30.1322 6.16245 30.1725 4.69306 29.8398 3.61457C29.537 2.6323 28.7723 1.49815 28.1842 1.15878C27.5164 0.773474 26.6435 0.848267 26.1603 1.3323C25.8252 1.6679 25.8183 1.69401 25.9967 1.94897C26.2324 2.28605 26.2365 2.953 26.0048 3.28413C25.7948 3.58445 25.4967 3.62064 25.4967 3.34587C25.4967 3.02012 25.0603 2.23073 24.7851 2.0587C24.6418 1.96913 24.3719 1.86433 24.1854 1.82573L23.8462 1.75563L24.1115 1.4899C24.3127 1.28843 24.457 1.24021 24.708 1.2905C24.995 1.34799 25.0392 1.32234 25.0392 1.09876C25.0392 0.956848 24.9491 0.755606 24.8391 0.651606C24.7291 0.547492 24.5726 0.381413 24.4915 0.282452C24.2658 0.00721918 23.7585 0.066664 23.0224 0.454373ZM23.6669 8.84858C23.6669 8.93426 23.8213 9.29402 24.01 9.64817C24.1987 10.0023 24.3531 10.3407 24.3531 10.4C24.3531 10.4594 24.2176 10.6692 24.0521 10.8662L23.7512 11.2243L23.5088 10.998C23.3756 10.8735 23.1246 10.7363 22.9511 10.6931C22.7775 10.65 22.6051 10.5655 22.568 10.5054C22.5309 10.4452 22.7115 10.0949 22.9694 9.72674C23.2272 9.35862 23.4382 8.97538 23.4382 8.87516C23.4382 8.77493 23.4896 8.69293 23.5525 8.69293C23.6154 8.69293 23.6669 8.76302 23.6669 8.84858ZM24.7801 17.9748C23.7409 18.2339 22.9379 18.8926 22.5279 19.8222C21.6145 21.8935 22.3583 24.1613 24.2219 24.9869C24.9339 25.3023 26.4593 25.2273 27.2407 24.8383L27.7839 24.5679V22.8728V21.1775H26.7452C26.1738 21.1775 25.726 21.2161 25.75 21.2634C26.3036 22.3541 26.422 22.703 26.3897 23.1497L26.3544 23.64L25.6638 23.6735C24.8074 23.7151 24.3053 23.4253 23.9242 22.6699C23.6419 22.1104 23.5805 21.1922 23.7886 20.6409C24.0643 19.91 24.8805 19.3449 25.6606 19.3449C26.1518 19.3449 27.0468 19.6388 27.4694 19.9389L27.7839 20.1622V19.3668C27.7839 18.8427 27.7318 18.5278 27.6312 18.4442C27.1544 18.0479 25.5477 17.7833 24.7801 17.9748ZM31.5572 17.9629C30.1476 18.3924 29.271 19.6029 29.1805 21.2452C29.1156 22.4259 29.3441 23.2508 29.9483 24.0163C30.7446 25.0254 32.013 25.4243 33.2927 25.0683C33.8969 24.9002 34.8059 24.0319 35.1832 23.2624C35.4674 22.6826 35.503 22.4863 35.4993 21.5151C35.4957 20.5568 35.4559 20.3405 35.1784 19.7725C34.4854 18.3539 32.8902 17.5569 31.5572 17.9629ZM0.965504 18.5028C1.06672 18.7455 1.27451 19.0747 1.4273 19.2345C1.70394 19.5238 1.70509 19.5354 1.73574 22.327L1.76639 25.129L3.15269 25.1216C4.80981 25.1126 5.3862 24.9353 6.18239 24.1894C7.57579 22.884 7.62828 20.4516 6.29184 19.1131C5.49256 18.3126 4.99474 18.1739 2.70348 18.1128L0.781494 18.0616L0.965504 18.5028ZM10.4408 18.2227C10.2209 18.5156 7.28222 25.0791 7.34341 25.1404C7.44896 25.2461 8.23338 24.983 8.63559 24.707C8.84499 24.5633 9.12518 24.2516 9.25841 24.0142C9.46095 23.6533 9.56136 23.5828 9.87266 23.5828C10.4739 23.5828 11.3402 23.8911 12.0748 24.3667C12.7181 24.7831 13.9017 25.2689 14.0096 25.1608C14.0365 25.134 13.7291 24.3684 13.3265 23.4596C12.9241 22.5509 12.2329 20.9828 11.7904 19.9749C11.1969 18.6226 10.9293 18.1333 10.7691 18.1081C10.6499 18.0893 10.5021 18.1409 10.4408 18.2227ZM14.9753 21.6411V25.1972L15.6901 25.1632L16.4048 25.129L16.462 23.2579L16.5192 21.3868L17.6094 22.3989C18.2089 22.9556 19.1303 23.8105 19.657 24.2986C20.1835 24.7868 20.6579 25.1863 20.7111 25.1863C20.7642 25.1863 20.8078 23.5885 20.8078 21.6356V18.085H20.0644H19.3211V19.9271C19.3211 21.0113 19.2774 21.7536 19.215 21.7311C19.1565 21.7101 18.2284 20.8812 17.1522 19.8889C16.076 18.8967 15.146 18.085 15.0854 18.085C15.0172 18.085 14.9753 19.4378 14.9753 21.6411ZM36.2936 18.2427C36.2603 18.3294 36.2491 18.6516 36.2685 18.9586L36.304 19.5167L37.3046 19.5498L38.3053 19.5829V22.3901V25.1972L39.0201 25.1632L39.7349 25.129L39.7655 22.3515L39.7962 19.574H40.7662H41.7362V18.8295V18.085H39.0451C36.8653 18.085 36.3425 18.115 36.2936 18.2427ZM43.046 18.2295C43.0156 18.3089 43.0044 19.8939 43.0211 21.7516L43.0514 25.129L45.1385 25.1603L47.2256 25.1915V24.4444V23.6973H45.8533H44.4809V23.0223C44.4809 22.2091 44.4824 22.2083 45.8627 22.2083H46.8825V21.5211V20.8339H45.6817H44.4809V20.2039V19.574L45.4816 19.5723C46.0477 19.5713 46.6017 19.5091 46.7572 19.4291C47.0964 19.2545 47.4197 18.8177 47.5187 18.4L47.5935 18.085H45.3474C43.6452 18.085 43.088 18.1199 43.046 18.2295ZM32.8535 19.5011C33.7738 19.8862 34.2413 21.1148 33.9065 22.2685C33.5903 23.3579 32.7659 23.8876 31.855 23.5864C30.3382 23.0851 30.2227 20.2629 31.6893 19.5392C32.1595 19.3072 32.3733 19.3002 32.8535 19.5011ZM4.68607 19.8317C5.40999 20.198 5.71191 20.7016 5.71191 21.5426C5.71191 22.8276 4.97895 23.5828 3.7316 23.5828H3.19592V21.5784V19.574H3.68631C3.96776 19.574 4.39376 19.6838 4.68607 19.8317ZM11.1416 21.5966C11.3642 22.079 11.5257 22.4943 11.5005 22.5196C11.4616 22.5585 10.1698 22.2265 10.0865 22.1563C10.0512 22.1265 10.6539 20.7193 10.7019 20.7193C10.7212 20.7193 10.9191 21.114 11.1416 21.5966Z" fill="white"/>
</svg>
