<svg width="47" height="24" viewBox="0 0 47 24" fill="none" xmlns="http://www.w3.org/2000/svg">
<path d="M23.1803 0.0613403C10.44 0.0613403 0.111816 5.25198 0.111816 11.6547C0.111816 18.0575 10.44 23.2481 23.1803 23.2481C35.9207 23.2481 46.2489 18.0574 46.2489 11.6547C46.2489 5.25189 35.9207 0.0613403 23.1803 0.0613403ZM23.1803 21.4178C11.4457 21.4178 1.93283 17.0468 1.93283 11.6547C1.93283 6.26266 11.4458 1.8916 23.1803 1.8916C34.915 1.8916 44.4279 6.26266 44.4279 11.6547C44.4279 17.0468 34.9149 21.4178 23.1803 21.4178ZM20.2711 9.6208V7.79016H26.779V9.6208H24.4361V15.5193H22.6144V9.6208H20.2711ZM34.6345 7.79016V15.5194H32.8136L29.5108 10.9182V15.5194H27.6898V7.79016H29.5107L32.8135 12.3913V7.79016H34.6345ZM11.6719 15.5194V7.79016H13.493L15.5161 10.9182L17.5393 7.79016H19.3596V15.5194H17.5393V11.1475L16.1581 13.2815H14.8742L13.493 11.1475V15.5194H11.6719Z" fill="white"/>
</svg>
