<svg width="126" height="35" viewBox="0 0 126 35" fill="none" xmlns="http://www.w3.org/2000/svg">
<path d="M123.92 9.17798C124.199 9.17996 124.474 9.25205 124.719 9.38767C124.975 9.52505 125.186 9.73386 125.326 9.98878C125.468 10.2375 125.543 10.5185 125.544 10.8047C125.543 11.0881 125.469 11.3665 125.329 11.6129C125.19 11.867 124.982 12.0761 124.728 12.2153C124.481 12.3552 124.202 12.4287 123.919 12.4287C123.635 12.4287 123.357 12.3552 123.11 12.2153C122.856 12.0758 122.647 11.8668 122.508 11.6129C122.366 11.3658 122.291 11.0858 122.291 10.8008C122.291 10.5159 122.366 10.2359 122.508 9.98878C122.648 9.73351 122.859 9.52462 123.116 9.38767C123.362 9.25113 123.638 9.17899 123.92 9.17798ZM123.92 9.4474C123.687 9.4493 123.459 9.50961 123.256 9.62277C123.042 9.73752 122.865 9.91187 122.748 10.1248C122.629 10.3305 122.567 10.5639 122.567 10.8015C122.567 11.039 122.629 11.2724 122.748 11.4782C122.866 11.6907 123.042 11.8649 123.256 11.9802C123.461 12.0984 123.694 12.1606 123.93 12.1606C124.167 12.1606 124.4 12.0984 124.605 11.9802C124.819 11.8656 124.996 11.6912 125.113 11.4782C125.23 11.2729 125.292 11.0409 125.292 10.8047C125.291 10.5661 125.228 10.3319 125.11 10.1248C124.993 9.91187 124.816 9.73752 124.602 9.62277C124.393 9.507 124.158 9.44663 123.92 9.4474ZM123.207 11.707V9.95319H123.806C123.957 9.94623 124.107 9.96296 124.253 10.0028C124.343 10.0327 124.42 10.0923 124.472 10.1718C124.525 10.2461 124.554 10.3348 124.555 10.4259C124.556 10.488 124.544 10.5496 124.52 10.607C124.497 10.6644 124.462 10.7165 124.418 10.7602C124.321 10.8578 124.191 10.915 124.054 10.9203C124.109 10.9411 124.16 10.9726 124.203 11.0131C124.3 11.1188 124.386 11.2352 124.457 11.36L124.671 11.7019H124.325L124.17 11.4261C124.097 11.2739 123.997 11.1361 123.875 11.0194C123.809 10.9745 123.729 10.953 123.649 10.9584H123.484V11.707H123.207ZM123.489 10.7221H123.831C123.947 10.7337 124.065 10.7083 124.166 10.6496C124.195 10.6263 124.218 10.5966 124.233 10.5628C124.249 10.5291 124.256 10.4923 124.255 10.4552C124.256 10.4055 124.241 10.357 124.212 10.3167C124.182 10.2748 124.141 10.2429 124.092 10.2252C124 10.1996 123.904 10.1893 123.809 10.1947H123.489V10.7221Z" fill="white"/>
<path d="M20.1643 10.0828C22.8594 10.0828 25.0443 7.89795 25.0443 5.20279C25.0443 2.50762 22.8594 0.322754 20.1643 0.322754C17.4691 0.322754 15.2842 2.50762 15.2842 5.20279C15.2842 7.89795 17.4691 10.0828 20.1643 10.0828Z" fill="white"/>
<path d="M27.0763 31.5524C29.7715 31.5524 31.9563 29.3676 31.9563 26.6724C31.9563 23.9772 29.7715 21.7924 27.0763 21.7924C24.3811 21.7924 22.1963 23.9772 22.1963 26.6724C22.1963 29.3676 24.3811 31.5524 27.0763 31.5524Z" fill="white"/>
<path d="M5.11883 26.999C7.814 26.999 9.99887 24.8141 9.99887 22.1189C9.99887 19.4238 7.814 17.2389 5.11883 17.2389C2.42367 17.2389 0.2388 19.4238 0.2388 22.1189C0.2388 24.8141 2.42367 26.999 5.11883 26.999Z" fill="white"/>
<path d="M5.76945 15.4495C7.52131 15.4495 8.94147 14.0293 8.94147 12.2775C8.94147 10.5256 7.52131 9.10547 5.76945 9.10547C4.01759 9.10547 2.59743 10.5256 2.59743 12.2775C2.59743 14.0293 4.01759 15.4495 5.76945 15.4495Z" fill="white"/>
<path d="M28.459 14.1495C30.2109 14.1495 31.6311 12.7293 31.6311 10.9774C31.6311 9.22558 30.2109 7.80542 28.459 7.80542C26.7072 7.80542 25.287 9.22558 25.287 10.9774C25.287 12.7293 26.7072 14.1495 28.459 14.1495Z" fill="white"/>
<path d="M18.0496 33.9924C19.8014 33.9924 21.2216 32.5722 21.2216 30.8203C21.2216 29.0685 19.8014 27.6483 18.0496 27.6483C16.2977 27.6483 14.8775 29.0685 14.8775 30.8203C14.8775 32.5722 16.2977 33.9924 18.0496 33.9924Z" fill="white"/>
<path d="M10.5669 31.227C11.7797 31.227 12.7629 30.2438 12.7629 29.031C12.7629 27.8182 11.7797 26.835 10.5669 26.835C9.35407 26.835 8.37088 27.8182 8.37088 29.031C8.37088 30.2438 9.35407 31.227 10.5669 31.227Z" fill="white"/>
<path d="M30.5737 20.3296C31.7865 20.3296 32.7697 19.3465 32.7697 18.1336C32.7697 16.9208 31.7865 15.9376 30.5737 15.9376C29.3609 15.9376 28.3777 16.9208 28.3777 18.1336C28.3777 19.3465 29.3609 20.3296 30.5737 20.3296Z" fill="white"/>
<path d="M11.0549 8.94415C12.2677 8.94415 13.2509 7.96096 13.2509 6.74814C13.2509 5.53531 12.2677 4.55212 11.0549 4.55212C9.84206 4.55212 8.85887 5.53531 8.85887 6.74814C8.85887 7.96096 9.84206 8.94415 11.0549 8.94415Z" fill="white"/>
<path d="M47.9551 34.4549V9.78536H50.5921V12.9027C51.2173 11.7065 52.0434 10.7881 53.0702 10.1476C54.0989 9.5066 55.2895 9.17324 56.5015 9.1868C58.8373 9.1868 60.7135 10.0027 62.1301 11.6344C63.5466 13.2662 64.2545 15.4296 64.2536 18.1246C64.2536 20.868 63.5606 23.0466 62.1745 24.6606C60.7885 26.2745 58.9339 27.0824 56.6108 27.0841C55.2764 27.0841 54.114 26.7727 53.1236 26.15C52.1332 25.5273 51.3249 24.5996 50.6988 23.3668V34.4549H47.9551ZM50.6239 18.1195C50.6239 19.9834 51.1254 21.4763 52.1285 22.598C53.1317 23.7197 54.4605 24.2831 56.1152 24.2882C57.73 24.2882 59.0008 23.7744 59.9277 22.7467C60.8546 21.719 61.3176 20.2927 61.3167 18.4678C61.3167 16.4251 60.8537 14.8238 59.9277 13.664C59.0017 12.5041 57.7126 11.9238 56.0605 11.9229C54.3728 11.9229 53.0452 12.4736 52.0777 13.575C51.1102 14.6764 50.6268 16.1929 50.6277 18.1246L50.6239 18.1195Z" fill="white"/>
<path d="M82.1292 9.7854V26.3737H79.4389V23.3643C78.7899 24.5725 77.9609 25.4943 76.9518 26.1297C75.9382 26.766 74.763 27.0973 73.5663 27.0841C71.2415 27.0841 69.3683 26.2652 67.9466 24.6276C66.525 22.9899 65.8142 20.8222 65.8142 18.1247C65.8142 15.3932 66.5047 13.2205 67.8856 11.6065C69.2666 9.99254 71.1132 9.18768 73.4252 9.19191C74.7808 9.19191 75.9576 9.50327 76.9556 10.126C77.9537 10.7487 78.7585 11.676 79.3702 12.9079V9.7854H82.1292ZM79.4389 18.2339C79.4389 16.3607 78.9403 14.8527 77.9431 13.7098C76.9459 12.5668 75.645 11.9958 74.0403 11.9967C72.3772 11.9967 71.0793 12.5224 70.1465 13.5738C69.2137 14.6252 68.7477 16.0939 68.7485 17.9798C68.7485 19.986 69.2175 21.5331 70.1554 22.6209C71.0932 23.7087 72.4238 24.2527 74.1471 24.2527C75.7992 24.2527 77.0942 23.724 78.032 22.6666C78.9699 21.6093 79.4389 20.1317 79.4389 18.2339Z" fill="white"/>
<path d="M101.117 9.78541V26.084C101.117 27.8843 100.999 29.1657 100.764 29.9282C100.528 30.6875 100.129 31.3862 99.5957 31.9756C98.8366 32.8128 97.886 33.4538 96.8252 33.8437C95.734 34.2512 94.4805 34.455 93.0648 34.455C90.6078 34.455 88.6931 33.881 87.3206 32.733C85.9481 31.585 85.2313 29.9592 85.1703 27.8555H88.2852V28.0728C88.2852 29.3182 88.7041 30.2794 89.542 30.9564C90.3799 31.6333 91.5661 31.9722 93.1004 31.973C94.2094 31.973 95.1566 31.7888 95.942 31.4202C96.6986 31.0764 97.3271 30.5022 97.7377 29.7796C97.996 29.3392 98.1753 28.8571 98.2676 28.3549C98.3744 27.811 98.4273 27.0316 98.4265 26.0166V23.2207C97.8012 24.4069 96.9815 25.3164 95.9674 25.9492C94.943 26.5862 93.7576 26.9165 92.5514 26.9011C90.2257 26.9011 88.3525 26.0912 86.9317 24.4713C85.5109 22.8514 84.8001 20.6998 84.7992 18.0167C84.7992 15.3055 85.4893 13.1574 86.8694 11.5722C88.2496 9.98705 90.0961 9.19235 92.409 9.18811C93.7544 9.18811 94.9346 9.49947 95.9496 10.1222C96.9646 10.7449 97.7669 11.6603 98.3566 12.8685V9.78541H101.117ZM98.4265 18.1247C98.4265 16.2608 97.9313 14.762 96.9409 13.6284C95.9505 12.4948 94.6466 11.9268 93.0292 11.9242C91.3653 11.9242 90.0673 12.4499 89.1354 13.5013C88.2034 14.5528 87.7374 16.0214 87.7374 17.9074C87.7374 19.9144 88.2064 21.4615 89.1442 22.5485C90.0821 23.6355 91.4131 24.1794 93.1372 24.1802C94.7893 24.1802 96.0843 23.6456 97.0222 22.5764C97.9601 21.5072 98.4282 20.0233 98.4265 18.1247Z" fill="white"/>
<path d="M120.176 9.7854V26.3737H117.485V23.3643C116.837 24.5733 116.007 25.4951 114.996 26.1297C113.982 26.766 112.807 27.0973 111.61 27.0841C109.285 27.0841 107.411 26.2652 105.991 24.6276C104.57 22.9899 103.859 20.8222 103.858 18.1247C103.858 15.3932 104.548 13.2205 105.928 11.6065C107.308 9.99254 109.155 9.18768 111.468 9.19191C112.823 9.19191 114.001 9.50327 115 10.126C115.998 10.7487 116.803 11.676 117.414 12.9079V9.7854H120.176ZM117.485 18.2339C117.485 16.3607 116.987 14.8527 115.991 13.7098C114.994 12.5668 113.694 11.9958 112.088 11.9967C110.424 11.9967 109.126 12.5224 108.194 13.5738C107.262 14.6252 106.796 16.0939 106.796 17.9798C106.796 19.986 107.265 21.5331 108.203 22.6209C109.141 23.7087 110.473 24.2527 112.2 24.2527C113.852 24.2527 115.147 23.724 116.085 22.6666C117.023 21.6093 117.49 20.1317 117.485 18.2339Z" fill="white"/>
</svg>
