<svg width="54" height="25" viewBox="0 0 54 25" fill="none" xmlns="http://www.w3.org/2000/svg">
<path d="M1.43851 21.0663L1.05442 23.0636C1.0032 23.2172 1.0032 23.3452 1.0032 23.4989C1.0032 23.9342 1.25927 24.139 1.61775 24.139C2.07866 24.139 2.41154 23.8318 2.53958 23.0636L2.94927 21.0663H3.35897L2.97488 23.0636C2.79564 24.0622 2.30912 24.4719 1.59215 24.4719C1.0032 24.4719 0.593506 24.1646 0.593506 23.4733L0.619112 22.9868L0.977599 21.0407H1.43851V21.0663ZM3.94792 24.4719L4.25519 22.7563C4.33201 22.4746 4.33201 22.2442 4.38322 22.0393H4.74171L4.66489 22.5002C4.86974 22.1417 5.20262 21.9625 5.5611 21.9625C5.84277 21.9625 6.15005 22.1417 6.15005 22.6283L6.12444 23.038L5.84277 24.4207H5.40747L5.66353 23.038L5.68914 22.7051C5.68914 22.4746 5.58671 22.2954 5.30504 22.2954C5.02338 22.2954 4.58807 22.6283 4.48565 23.2428L4.25519 24.4207H3.94792V24.4719ZM7.04626 24.4719L7.50717 22.0393H7.94248L7.48157 24.4719H7.04626ZM7.58399 21.348C7.58399 21.2199 7.73763 21.0663 7.86566 21.0663C8.0193 21.0663 8.12172 21.1687 8.12172 21.3224C8.12172 21.5016 8.0193 21.604 7.84005 21.604C7.68642 21.604 7.58399 21.5016 7.58399 21.348ZM9.73491 21.3992L9.63249 22.0393H10.1958L10.119 22.3466H9.55567L9.35082 23.5245C9.29961 23.6781 9.29961 23.7805 9.29961 23.9342C9.29961 24.0622 9.37643 24.139 9.53006 24.139H9.70931L9.65809 24.4719L9.35082 24.4975C8.99233 24.4975 8.8387 24.2927 8.8387 24.0366L8.8643 23.5757L9.12036 22.3466H8.76188L8.8387 22.0393H9.19718L9.29961 21.5016L9.73491 21.3992ZM12.4236 24.3183C12.2443 24.4207 11.937 24.4975 11.6298 24.4975C10.9896 24.4975 10.7079 24.0622 10.7079 23.5245C10.7079 22.8075 11.2457 21.9625 12.0139 21.9625C12.4748 21.9625 12.7308 22.2442 12.7308 22.5771C12.7308 23.2172 12.0139 23.3965 11.1176 23.3452C11.092 23.4733 11.1176 23.6781 11.1689 23.8318C11.2713 24.0366 11.4505 24.139 11.7066 24.139C11.9883 24.139 12.1931 24.0366 12.3467 23.9598L12.4236 24.3183ZM11.937 22.2954C11.553 22.2954 11.2713 22.6795 11.1689 23.038C11.809 23.038 12.2955 22.9611 12.2955 22.5771C12.2955 22.3978 12.1675 22.2954 11.937 22.2954ZM15.9572 20.887L15.4195 23.6781C15.3683 23.9342 15.3171 24.2159 15.3171 24.4207H14.9074L14.9842 23.9598C14.7793 24.3183 14.4464 24.4975 14.1392 24.4975C13.6527 24.4975 13.4222 24.1134 13.4222 23.6013C13.4222 22.7563 14.0624 21.9625 14.9074 21.9625C15.061 21.9625 15.2402 21.9881 15.3427 22.0393L15.5475 20.887H15.9572ZM15.2658 22.3978C15.189 22.321 15.061 22.2954 14.8818 22.2954C14.3184 22.2954 13.8319 22.8843 13.8319 23.5245C13.8319 23.8318 13.9599 24.139 14.3184 24.139C14.6257 24.139 15.0354 23.7805 15.1378 23.2428L15.2658 22.3978ZM18.441 21.1175C18.6715 21.0663 18.9275 21.0407 19.158 21.0407C19.5165 21.0407 19.7725 21.1175 19.9518 21.2711C20.1054 21.4248 20.2078 21.604 20.2078 21.8089C20.2078 22.2442 19.8494 22.5771 19.4909 22.6795C19.8237 22.7819 20.0542 23.038 20.0542 23.4221C20.0542 23.7805 19.875 24.0366 19.6701 24.2159C19.414 24.4207 19.03 24.4975 18.569 24.4975L17.8521 24.4719L18.441 21.1175ZM18.313 24.1134L18.6715 24.139C19.158 24.139 19.6445 23.9342 19.6445 23.3965C19.6445 22.9868 19.3116 22.8075 18.9275 22.8075H18.5947L18.313 24.1134ZM18.6203 22.5002H18.9531C19.414 22.5002 19.8237 22.2442 19.8237 21.8601C19.8237 21.5272 19.5677 21.3992 19.2092 21.3992L18.8507 21.4248L18.6203 22.5002ZM22.4612 24.4719L22.538 23.8574C22.2819 24.3439 21.9235 24.5231 21.5906 24.5231C21.1809 24.5231 20.9248 24.1646 20.9248 23.7549C20.9248 22.8843 21.5394 22.0393 22.5892 22.0393C22.8197 22.0393 23.1013 22.0649 23.255 22.1417L22.9989 23.3965C22.9221 23.8318 22.8965 24.2415 22.8965 24.4975H22.4612V24.4719ZM22.7429 22.321L22.4612 22.2954C21.8466 22.2954 21.3089 22.9355 21.3089 23.6013C21.3089 23.883 21.4113 24.139 21.7442 24.139C22.1027 24.139 22.4868 23.6781 22.5892 23.038L22.7429 22.321ZM23.9207 24.4719L24.2536 22.7563L24.356 22.0393H24.7145L24.6377 22.5002C24.8426 22.1417 25.1754 21.9625 25.5339 21.9625C25.8156 21.9625 26.1485 22.1417 26.1485 22.6283L26.0973 23.038L25.8156 24.4207H25.3803L25.6363 23.038L25.662 22.7051C25.662 22.4746 25.5595 22.2954 25.2779 22.2954C24.9962 22.2954 24.5609 22.6283 24.4585 23.2428L24.2536 24.4207H23.9207V24.4719ZM27.0703 24.4719L27.7361 20.9383H28.1458L27.7104 23.1404C27.7873 23.0636 27.8897 22.9611 27.9153 22.8843L28.7859 22.0393H29.2724L28.2226 23.038L28.9139 24.4719H28.453L27.8897 23.294L27.5568 23.5757L27.3776 24.4975H27.0703V24.4719ZM31.2185 24.4719L31.6026 22.3466H31.2953L31.3465 22.0393H31.6794L31.705 21.8857C31.7818 21.5272 31.8843 21.2455 32.1147 21.0407C32.2427 20.887 32.4732 20.8102 32.678 20.8102C32.8573 20.8102 32.9597 20.8614 33.0109 20.887L32.8829 21.2199C32.8317 21.1687 32.7549 21.1687 32.6524 21.1687C32.3196 21.1687 32.1403 21.5016 32.0635 21.8857V22.0393H32.6012L32.5244 22.3466H32.0123L31.6026 24.4719H31.2185ZM35.3155 22.9868C35.3155 23.7549 34.7778 24.5231 33.9584 24.5231C33.3694 24.5231 33.0365 24.0622 33.0365 23.5245C33.0365 22.7563 33.5999 21.9881 34.3937 21.9881C35.0338 21.9625 35.3155 22.4746 35.3155 22.9868ZM33.4718 23.4989C33.4718 23.883 33.6767 24.1646 34.0352 24.1646C34.5473 24.1646 34.9058 23.5245 34.9058 22.9868C34.9058 22.7051 34.7521 22.321 34.3168 22.321C33.8303 22.2954 33.4718 22.9355 33.4718 23.4989ZM36.0837 24.4719L36.3653 22.8843C36.4422 22.5771 36.4678 22.2442 36.4934 22.0393H36.8519L36.8006 22.5771C36.9287 22.2442 37.2103 21.9881 37.5432 21.9881H37.6456L37.5688 22.3978H37.4664C37.1079 22.3978 36.8006 22.8075 36.6726 23.3965L36.4678 24.4719H36.0837ZM40.1807 23.3965L39.6429 24.4719H39.2076L40.9745 21.1175H41.461L41.9475 24.4719H41.5122L41.3585 23.3965H40.1807ZM41.3329 23.038L41.1793 22.0649C41.1537 21.8857 41.1537 21.6296 41.1025 21.4504L40.8208 22.0649L40.3343 23.038H41.3329ZM42.7925 24.4719L43.1766 22.3466H42.8693L42.9461 22.0393H43.2534L43.3046 21.8857C43.3558 21.5272 43.4839 21.2455 43.6887 21.0407C43.8167 20.887 44.0472 20.8102 44.252 20.8102C44.4313 20.8102 44.5337 20.8614 44.5849 20.887L44.4825 21.2199C44.4057 21.1687 44.3289 21.1687 44.2264 21.1687C43.8936 21.1687 43.7143 21.5016 43.6631 21.8857L43.6119 21.9881H44.1496L44.0728 22.321H43.5351L43.151 24.4207H42.7925V24.4719ZM44.6105 24.4719L44.8922 22.8843L45.0458 22.0393H45.4043L45.3275 22.5771C45.4811 22.2442 45.7628 21.9881 46.0701 21.9881H46.1981L46.1213 22.3978H46.0189C45.6604 22.3978 45.3275 22.8075 45.2251 23.3965L45.0202 24.4719H44.6105ZM46.659 24.4719L47.1199 22.0393H47.5552L47.0943 24.4719H46.659ZM47.1968 21.348C47.1968 21.2199 47.2992 21.0663 47.4784 21.0663C47.6065 21.0663 47.7345 21.1687 47.7345 21.3224C47.7345 21.5016 47.6065 21.604 47.4272 21.604C47.2992 21.604 47.1968 21.5016 47.1968 21.348ZM49.911 24.3439C49.7574 24.4207 49.5013 24.4975 49.194 24.4975C48.5539 24.4975 48.2722 24.0622 48.2722 23.5757C48.2722 22.7563 48.8612 21.9881 49.7318 21.9881C49.9366 21.9881 50.1671 22.0649 50.2183 22.1161L50.1159 22.4234C50.0134 22.3978 49.911 22.321 49.7318 22.321C49.0916 22.321 48.6819 22.9355 48.6819 23.4989C48.6819 23.883 48.9124 24.139 49.2965 24.139C49.5525 24.139 49.7318 24.0622 49.8598 23.9854L49.911 24.3439ZM52.3436 24.4719L52.3948 23.8574C52.1644 24.3439 51.8059 24.5231 51.473 24.5231C51.0377 24.5231 50.8072 24.1646 50.8072 23.7549C50.8072 22.8843 51.3962 22.0393 52.4716 22.0393C52.7021 22.0393 52.9837 22.0649 53.1118 22.1417L52.8813 23.3965C52.8045 23.8318 52.7533 24.2415 52.7533 24.4975H52.3436V24.4719ZM52.6253 22.321L52.3436 22.2954C51.729 22.2954 51.1913 22.9355 51.1913 23.6013C51.1913 23.883 51.2937 24.139 51.6266 24.139C51.9851 24.139 52.3692 23.6781 52.4716 23.038L52.6253 22.321ZM11.0152 6.72683L9.47885 13.8453C9.01794 15.3817 8.17294 16.4572 6.3805 16.534C4.84413 16.534 4.22958 15.5097 4.61368 13.3588L5.9708 6.72683H3.71746L2.15548 14.3319C1.87381 17.251 3.58943 18.0704 6.20126 17.9935C8.68506 17.9167 10.4007 16.7901 11.3737 14.5367L13.0893 6.72683H11.0152ZM29.9894 10.3117L30.8856 13.999H27.5568L29.9894 10.3117ZM30.6808 6.72683L23.1269 17.7375H25.1754L26.6094 15.6122H31.3209L31.7818 17.7375H34.2144L31.5258 6.72683H30.6808ZM38.0297 17.8143H42.3572C46.2493 17.6351 47.0943 15.8682 45.8396 12.9235L41.1025 3.67969L38.0297 17.8143ZM48.6563 0.786194C44.7642 0.965437 43.9448 2.75787 45.1995 5.67697L49.911 14.9208L52.9837 0.786194H48.6563ZM16.0596 16.3548L16.8534 12.6419H17.7496C19.0556 12.6419 20.1566 13.1028 20.1566 14.3319C20.1566 15.817 18.6971 16.4316 17.0583 16.4316L16.0596 16.3548ZM17.7753 8.13517H18.8507C20.0286 8.13517 20.7456 8.41684 20.7456 9.36426C20.7456 10.4909 19.6701 11.2079 18.0569 11.2079H17.1607L17.7753 8.13517ZM16.0596 6.72683L15.8804 6.75243L13.6014 17.7887H17.9801C19.4653 17.7887 20.3103 17.379 20.8736 17.0461C21.7698 16.4572 22.41 15.5097 22.6404 14.3575C22.9221 12.7955 21.8466 11.9761 20.5151 11.8481C21.8722 11.5408 23.0245 10.5421 23.1013 9.1082C23.2806 6.72683 20.5919 6.72683 20.5919 6.72683H16.0596Z" fill="white"/>
</svg>
