<svg width="30" height="30" viewBox="0 0 30 30" fill="none" xmlns="http://www.w3.org/2000/svg">
<g clip-path="url(#clip0_2552_490)">
<path d="M28.9991 2.14302C29.063 1.9833 29.0787 1.80832 29.0441 1.63979C29.0095 1.47126 28.9262 1.31658 28.8046 1.19493C28.6829 1.07327 28.5283 0.99 28.3597 0.955429C28.1912 0.920857 28.0162 0.936508 27.8565 1.00044L2.2856 11.2292H2.28384L1.48931 11.5456C1.33882 11.6056 1.20785 11.706 1.11088 11.8358C1.0139 11.9656 0.954682 12.1197 0.939767 12.281C0.924853 12.4423 0.954822 12.6046 1.02636 12.75C1.0979 12.8954 1.20823 13.0181 1.34517 13.1047L2.06587 13.5618L2.06763 13.5653L10.8479 19.1516L16.4342 27.9319L16.4377 27.9354L16.8948 28.6561C16.9817 28.7925 17.1045 28.9023 17.2497 28.9734C17.395 29.0445 17.5571 29.0741 17.7181 29.059C17.8791 29.0439 18.0328 28.9847 18.1623 28.8879C18.2919 28.7911 18.3922 28.6604 18.4522 28.5102L28.9991 2.14302ZM25.777 5.46528L12.604 18.6383L12.226 18.0442C12.1568 17.9352 12.0644 17.8427 11.9553 17.7735L11.3612 17.3956L24.5342 4.22251L26.6049 3.39458L25.777 5.46528Z" fill="white"/>
</g>
<defs>
<clipPath id="clip0_2552_490">
<rect width="28.125" height="28.125" fill="white" transform="translate(0.9375 0.9375)"/>
</clipPath>
</defs>
</svg>
