<svg width="30" height="30" viewBox="0 0 30 30" fill="none" xmlns="http://www.w3.org/2000/svg">
<g id="simple-icons:googlebigquery" clip-path="url(#clip0_2313_633)">
<path id="Vector" d="M7.095 13.2438H9.66V19.7987C8.59904 19.1584 7.71681 18.2607 7.095 17.1888V13.2438ZM29.8187 26.7887C29.9351 26.9066 30.0003 27.0656 30.0003 27.2313C30.0003 27.3969 29.9351 27.5559 29.8187 27.6737L27.6737 29.8187C27.5559 29.9351 27.3969 30.0003 27.2313 30.0003C27.0656 30.0003 26.9066 29.9351 26.7887 29.8187L21.4788 24.5088C21.4758 24.5059 21.4728 24.503 21.47 24.5C21.445 24.475 21.435 24.4438 21.4162 24.4175C19.1176 26.0957 16.3449 26.9997 13.4987 26.9988C6.04375 26.9988 0 20.955 0 13.4987C0 6.0425 6.04375 0 13.5 0C20.9563 0 26.9988 6.04375 26.9988 13.5C26.9988 16.4613 26.0338 19.1912 24.4163 21.4162C24.4475 21.4375 24.4813 21.4513 24.5088 21.4788L29.8187 26.7887ZM23.5337 13.4987C23.5305 11.5186 22.9406 9.58384 21.8385 7.93876C20.7364 6.29367 19.1715 5.01207 17.3415 4.25579C15.5115 3.49951 13.4984 3.30247 11.5565 3.68956C9.61453 4.07666 7.83086 5.03052 6.43069 6.43069C5.03052 7.83086 4.07666 9.61453 3.68956 11.5565C3.30247 13.4984 3.49951 15.5115 4.25579 17.3415C5.01207 19.1715 6.29367 20.7364 7.93876 21.8385C9.58384 22.9406 11.5186 23.5305 13.4987 23.5337H13.5287C14.8446 23.5318 16.1472 23.2707 17.3621 22.7653C18.577 22.2599 19.6805 21.5202 20.6096 20.5884C21.5386 19.6565 22.275 18.5508 22.7768 17.3344C23.2785 16.1179 23.5357 14.8146 23.5337 13.4987ZM17.4587 19.7238C18.5253 19.0433 19.4025 18.1042 20.0088 16.9937V14.7888H17.4587V19.7238ZM11.8337 20.9087C12.3862 20.98 12.9425 21.0087 13.4987 20.9987C13.9987 21.03 14.4987 21.03 14.9987 20.9987V9.615H11.835V20.9087H11.8337Z" fill="#4282F3"/>
</g>
<defs>
<clipPath id="clip0_2313_633">
<rect width="30" height="30" fill="white"/>
</clipPath>
</defs>
</svg>
