<svg width="40" height="40" viewBox="0 0 40 40" fill="none" xmlns="http://www.w3.org/2000/svg">
<g id="devicon:mongodb" clip-path="url(#clip0_2313_608)">
<path id="Vector" fill-rule="evenodd" clip-rule="evenodd" d="M27.5119 13.3787C28.0134 14.8297 28.3747 16.3109 28.4934 17.8462C28.6409 19.7509 28.5734 21.6422 28.1719 23.5156C28.1609 23.5672 28.1378 23.6156 28.1206 23.6656C27.9947 23.6659 27.8662 23.6503 27.7431 23.6694C26.7028 23.8328 25.6634 24.0022 24.6241 24.1706C23.5497 24.3447 22.4737 24.5119 21.4012 24.6978C21.0212 24.7634 20.5509 24.685 20.3975 25.2106C20.3931 25.225 20.3494 25.2275 20.3241 25.2356L20.3759 22.0947L20.3231 14.5159L20.8237 14.43C21.6425 14.2959 22.4612 14.16 23.2806 14.0297C24.2584 13.8744 25.2372 13.7234 26.2156 13.5719C26.6472 13.5047 27.0794 13.4431 27.5119 13.3787Z" fill="#439934"/>
<path id="Vector_2" fill-rule="evenodd" clip-rule="evenodd" d="M19.2904 34.3919C18.7622 33.9378 18.2157 33.5038 17.7094 33.0263C14.9854 30.4569 12.9929 27.4328 12.0116 23.7869C11.7413 22.7834 11.561 21.7638 11.5032 20.7269C11.4626 20.0012 11.4038 19.2691 11.455 18.5472C11.5916 16.6272 11.8691 14.7256 12.4322 12.8763L12.4632 12.8331C12.5179 12.9059 12.5966 12.9703 12.6244 13.0525C13.1741 14.6713 13.7197 16.2913 14.2626 17.9122C15.9682 23.0059 17.6716 28.1009 19.38 33.1934C19.4135 33.2928 19.5 33.3744 19.5622 33.4641L19.2904 34.3919Z" fill="#45A538"/>
<path id="Vector_3" fill-rule="evenodd" clip-rule="evenodd" d="M27.5118 13.3787C27.0793 13.4431 26.6468 13.5047 26.2153 13.5712C25.2368 13.7228 24.2581 13.8737 23.2803 14.0291C22.4609 14.1594 21.6421 14.2953 20.8234 14.4294L20.3228 14.5153L20.319 14.1887C20.3024 13.9203 20.274 13.6522 20.2709 13.3837C20.2493 11.6719 20.2359 9.96 20.2146 8.24812C20.2015 7.17656 20.1818 6.10531 20.1599 5.03406C20.1465 4.36843 20.1321 3.7025 20.1021 3.03781C20.0859 2.68062 20.0284 2.32531 20.0049 1.96812C19.9918 1.76281 20.0099 1.55593 20.014 1.34968C20.2693 1.84437 20.519 2.34281 20.7815 2.83375C21.1962 3.61 21.8568 4.18187 22.4515 4.80593C24.8024 7.27218 26.4715 10.1397 27.5118 13.3787Z" fill="#46A037"/>
<path id="Vector_4" fill-rule="evenodd" clip-rule="evenodd" d="M20.3239 25.235C20.3493 25.2269 20.3933 25.2244 20.3974 25.21C20.5508 24.6844 21.0211 24.7629 21.4011 24.6972C22.4736 24.5116 23.5496 24.3441 24.6239 24.17C25.6633 24.0016 26.7027 23.8322 27.743 23.6688C27.8661 23.6494 27.9946 23.6654 28.1205 23.665C27.9261 24.3588 27.773 25.0675 27.5264 25.7422C27.2464 26.5075 26.9077 27.2544 26.548 27.9866C26.0095 29.0787 25.3431 30.1029 24.5627 31.0375C23.963 31.7588 23.2946 32.4254 22.6246 33.0838C22.2543 33.4479 21.8177 33.7444 21.4114 34.0716L21.3061 33.9997L20.9268 33.6754L20.5343 32.8151C20.2662 31.8115 20.1199 30.7792 20.0986 29.7407L20.1058 29.5654L20.1593 28.8072C20.1771 28.5485 20.2008 28.29 20.2118 28.0307C20.2521 27.0988 20.2871 26.1669 20.3239 25.235Z" fill="#409433"/>
<path id="Vector_5" fill-rule="evenodd" clip-rule="evenodd" d="M20.324 25.2356C20.2871 26.1675 20.2521 27.0994 20.2124 28.0316C20.2015 28.2909 20.1777 28.5494 20.1599 28.8081L19.9208 28.8984C19.3899 27.3353 18.8587 25.7887 18.339 24.2381C17.4796 21.6728 16.6305 19.1034 15.7724 16.5375C15.0793 14.4664 14.3814 12.3969 13.6787 10.3291C13.6458 10.2322 13.5515 10.1566 13.4858 10.0709L15.0158 7.25781C15.0683 7.34906 15.1377 7.43437 15.1708 7.5325C15.8794 9.62691 16.5844 11.7225 17.2858 13.8194C18.1971 16.5475 19.1027 19.2778 20.0133 22.0062C20.0496 22.1153 20.1096 22.2159 20.1668 22.3381L20.3762 22.0944L20.324 25.2356Z" fill="#4FAA41"/>
<path id="Vector_6" fill-rule="evenodd" clip-rule="evenodd" d="M13.4859 10.0713C13.5515 10.1569 13.6456 10.2325 13.6787 10.3294C14.3814 12.3973 15.0793 14.4667 15.7724 16.5378C16.6306 19.1038 17.4796 21.6732 18.339 24.2385C18.8584 25.7888 19.3896 27.3357 19.9209 28.8988L20.1599 28.8085L20.1065 29.5666L20.0581 29.7413C19.9749 30.5713 19.9049 31.4032 19.8037 32.2313C19.7528 32.6463 19.6446 33.0538 19.5624 33.4647C19.5006 33.375 19.4137 33.2935 19.3803 33.1941C17.6718 28.1013 15.9684 23.0066 14.2628 17.9128C13.7201 16.2918 13.1741 14.6719 12.6246 13.0532C12.5968 12.971 12.5184 12.9066 12.4634 12.8338L13.4859 10.0713Z" fill="#4AA73C"/>
<path id="Vector_7" fill-rule="evenodd" clip-rule="evenodd" d="M20.3756 22.0944L20.1662 22.3381C20.109 22.2159 20.049 22.115 20.0128 22.0062C19.1024 19.2778 18.1965 16.5475 17.2853 13.8194C16.5839 11.7225 15.8789 9.62691 15.1703 7.5325C15.1374 7.43437 15.0681 7.34875 15.0153 7.25781L16.9074 4.76875C16.9671 4.84843 17.0521 4.91937 17.0831 5.00906C17.6084 6.54687 18.129 8.08656 18.6465 9.62718C19.1299 11.0659 19.6062 12.5069 20.0953 13.9437C20.1281 14.04 20.2421 14.1081 20.3184 14.1894L20.3221 14.5159C20.3403 17.0416 20.3581 19.5681 20.3756 22.0944Z" fill="#57AE47"/>
<path id="Vector_8" fill-rule="evenodd" clip-rule="evenodd" d="M20.319 14.1887C20.2428 14.1075 20.1287 14.0394 20.0959 13.9431C19.6068 12.5062 19.1306 11.0653 18.6471 9.62656C18.1296 8.08593 17.609 6.54656 17.0837 5.00843C17.0528 4.91875 16.9678 4.84781 16.9081 4.76812C17.5234 4.16562 18.1196 3.54156 18.7596 2.96687C19.3287 2.45625 19.7862 1.90875 19.8071 1.10187C19.8081 1.06843 19.8256 1.035 19.8525 0.941246L20.0146 1.34937C20.0106 1.55593 19.9921 1.7625 20.0056 1.96781C20.029 2.325 20.0865 2.68031 20.1028 3.0375C20.1328 3.70218 20.1471 4.36812 20.1606 5.03375C20.1821 6.10499 20.2018 7.17625 20.2153 8.24781C20.2362 9.95968 20.25 11.6716 20.2715 13.3834C20.274 13.6525 20.3021 13.9203 20.319 14.1887Z" fill="#60B24F"/>
<path id="Vector_9" fill-rule="evenodd" clip-rule="evenodd" d="M19.5619 33.4641C19.6441 33.0531 19.7522 32.6453 19.8032 32.2306C19.9047 31.4028 19.9744 30.5706 20.0575 29.7406L20.0782 29.7375L20.0988 29.7409C20.1201 30.7795 20.2663 31.8117 20.5344 32.8153C20.4794 32.8878 20.4016 32.9525 20.3725 33.0344C20.1454 33.675 19.9313 34.3206 19.7029 34.9612C19.6716 35.0487 19.5847 35.1169 19.5235 35.1937L19.29 34.3919L19.5619 33.4641Z" fill="#A9AA88"/>
<path id="Vector_10" fill-rule="evenodd" clip-rule="evenodd" d="M19.5238 35.1941C19.5851 35.1172 19.6722 35.0491 19.7032 34.9616C19.9316 34.3209 20.146 33.6756 20.3729 33.0347C20.4019 32.9528 20.4794 32.8881 20.5347 32.8156L20.9269 33.6762C20.8494 33.7862 20.7426 33.8853 20.6994 34.0078L19.9482 36.2137C19.9172 36.3022 19.8116 36.3647 19.741 36.4394L19.5238 35.1941Z" fill="#B6B598"/>
<path id="Vector_11" fill-rule="evenodd" clip-rule="evenodd" d="M19.741 36.4391C19.8119 36.3647 19.9172 36.3019 19.9482 36.2134L20.6994 34.0075C20.7422 33.8853 20.8494 33.7859 20.9269 33.6759L21.3066 34C21.1232 34.1812 21.0213 34.3906 21.0825 34.6553L20.9672 35.0328C20.9147 35.0975 20.8388 35.1537 20.8128 35.2278C20.5507 35.9787 20.3003 36.7337 20.0363 37.4847C20.0028 37.58 19.91 37.6547 19.8444 37.7384C19.8103 37.305 19.7757 36.8725 19.741 36.4391Z" fill="#C2C1A7"/>
<path id="Vector_12" fill-rule="evenodd" clip-rule="evenodd" d="M19.8449 37.7388C19.9102 37.6548 20.003 37.5801 20.0367 37.4851C20.3008 36.7344 20.5511 35.9794 20.8133 35.2282C20.8392 35.1544 20.9149 35.0979 20.9677 35.0332L20.8086 36.766C20.7661 36.8151 20.7046 36.8579 20.6842 36.9151C20.5046 37.4194 20.3352 37.9276 20.1549 38.4319C20.1177 38.536 20.0464 38.6279 19.9908 38.7251C19.9414 38.6604 19.853 38.5979 19.8489 38.5304C19.833 38.2676 19.8439 38.0029 19.8449 37.7388Z" fill="#CECDB7"/>
<path id="Vector_13" fill-rule="evenodd" clip-rule="evenodd" d="M19.9904 38.7247C20.046 38.6272 20.1172 38.5353 20.1544 38.4316C20.335 37.9275 20.5041 37.4194 20.6838 36.9147C20.7041 36.8575 20.766 36.815 20.8082 36.7656L20.8119 37.9031L20.4313 38.8794L19.9904 38.7247Z" fill="#DBDAC7"/>
<path id="Vector_14" fill-rule="evenodd" clip-rule="evenodd" d="M20.4313 38.8797L20.8119 37.9034L20.8903 39.0584L20.4313 38.8797Z" fill="#EBE9DC"/>
<path id="Vector_15" fill-rule="evenodd" clip-rule="evenodd" d="M21.0823 34.6553C21.0211 34.3906 21.1226 34.1809 21.3064 34L21.4117 34.0719L21.0823 34.6553Z" fill="#CECDB7"/>
<path id="Vector_16" fill-rule="evenodd" clip-rule="evenodd" d="M20.0987 29.7412L20.0781 29.7378L20.0575 29.7409L20.1059 29.5662L20.0987 29.7412Z" fill="#4FAA41"/>
</g>
<defs>
<clipPath id="clip0_2313_608">
<rect width="40" height="40" fill="white"/>
</clipPath>
</defs>
</svg>
