<svg width="30" height="30" viewBox="0 0 30 30" fill="none" xmlns="http://www.w3.org/2000/svg">
<g id="devicon:postgresql">
<path id="Vector" d="M21.9866 21.5888C22.1706 20.0576 22.1155 19.8328 23.256 20.081L23.5454 20.1063C24.4224 20.1462 25.5697 19.9652 26.2438 19.6521C27.6948 18.9788 28.5549 17.8549 27.1245 18.15C23.8611 18.8234 23.6368 17.7183 23.6368 17.7183C27.0828 12.6054 28.5233 6.11485 27.2797 4.52602C23.8883 0.192658 18.0179 2.2418 17.9197 2.29477L17.8883 2.30063C17.2435 2.1668 16.5219 2.08688 15.7112 2.07375C14.2344 2.04938 13.1138 2.46094 12.2638 3.10547C12.2638 3.10547 1.79119 -1.20914 2.27845 8.53149C2.38205 10.6036 5.24845 24.2107 8.66752 20.1007C9.9172 18.5979 11.1247 17.3271 11.1247 17.3271C11.7242 17.7253 12.4424 17.9288 13.1952 17.8556L13.2535 17.8059C13.2353 17.9925 13.2432 18.1751 13.2767 18.3912C12.3962 19.3753 12.6549 19.548 10.8941 19.9104C9.11236 20.2774 10.1591 20.9311 10.8423 21.102C11.6708 21.3091 13.5873 21.6026 14.8824 19.7899L14.8309 19.9966C15.1763 20.2732 15.1531 21.9834 15.2019 23.2052C15.2509 24.4273 15.3327 25.5675 15.5818 26.2399C15.831 26.9121 16.1249 28.6437 18.4391 28.1477C20.3731 27.7343 21.8518 27.1378 21.9866 21.5888Z" fill="black"/>
<path id="Vector_2" d="M17.6857 29.3572C16.6621 29.3572 15.9956 28.9614 15.5908 28.5791C14.9798 28.0025 14.7375 27.2598 14.5926 26.8161L14.53 26.631C14.2385 25.8439 14.1396 24.7107 14.081 23.2515C14.0721 23.0324 14.066 22.8067 14.0592 22.5674C14.0543 22.3923 14.0482 22.1727 14.0393 21.943C13.6705 22.1188 13.2791 22.2425 12.8763 22.3105C12.1546 22.4338 11.3789 22.3939 10.57 22.1917C9.99934 22.0489 9.40637 21.7532 9.0684 21.2964C8.08332 22.1591 7.14371 22.0422 6.63183 21.8713C5.72879 21.5701 4.92066 20.7238 4.16105 19.2845C3.61988 18.2591 3.09652 16.9232 2.60527 15.3135C1.7498 12.5104 1.20629 9.55793 1.15801 8.58856C1.00613 5.55457 1.82293 3.38473 3.58519 2.13996C6.36512 0.176368 10.5771 1.33113 12.1127 1.85543C13.1444 1.23363 14.3582 0.931056 15.7298 0.952853C16.4664 0.964806 17.1679 1.02949 17.8195 1.14574C18.4992 0.931994 19.8417 0.625197 21.3785 0.644415C24.21 0.678165 26.5563 1.7816 28.1634 3.83543C29.3104 5.30074 28.7432 8.37785 28.3033 10.0818C27.6841 12.4785 26.5992 15.0275 25.2665 17.2466C25.6284 17.2492 26.1527 17.2058 26.898 17.0518C28.3685 16.7483 28.7986 17.5368 28.9153 17.8897C29.3829 19.3058 27.3503 20.376 26.7164 20.6704C25.904 21.0475 24.5796 21.2772 23.4949 21.2275L23.4475 21.2244L23.1625 21.1993L23.1344 21.437L23.1072 21.6693C23.0343 24.4815 22.6326 26.2625 21.806 27.4393C20.9395 28.6731 19.7353 29.0188 18.6745 29.2461C18.3126 29.3235 17.9838 29.3572 17.6857 29.3572ZM15.5318 19.1218C16.1925 19.6506 16.2504 20.6455 16.3021 22.5048C16.3087 22.7368 16.3148 22.9564 16.323 23.1615C16.3478 23.7826 16.4062 25.2369 16.634 25.8514C16.6661 25.9384 16.695 26.0265 16.7254 26.12C16.9793 26.8972 17.1065 27.287 18.2041 27.0524C19.1254 26.8548 19.5991 26.6776 19.9699 26.1498C20.5087 25.3825 20.8101 23.8389 20.8654 21.5619L21.9864 21.5891L20.8732 21.4555L20.906 21.1775C21.0126 20.2611 21.0895 19.5993 21.7019 19.1614C22.1934 18.8104 22.7533 18.8443 23.1993 18.9247C22.7093 18.5544 22.5738 18.1201 22.5377 17.942L22.4442 17.4814L22.7069 17.0917C24.2203 14.8464 25.4681 12.0868 26.1309 9.52043C26.812 6.88348 26.6043 5.48309 26.3967 5.21824C23.6477 1.70567 18.8807 3.15598 18.3829 3.32051L18.2988 3.36598L17.8769 3.44449L17.6608 3.39973C17.065 3.27598 16.4032 3.20754 15.6937 3.19606C14.579 3.17731 13.6797 3.44074 12.9424 4.0002L12.4307 4.38809L11.8371 4.14363C10.5686 3.62496 6.84301 2.58223 4.87707 3.97465C3.78582 4.74762 3.28871 6.26215 3.39933 8.47629C3.4359 9.20731 3.93254 11.9746 4.75191 14.6584C5.88418 18.3674 6.91308 19.5995 7.34269 19.7427C7.41769 19.768 7.61223 19.6168 7.80582 19.3843C8.61301 18.4167 9.44885 17.4733 10.3122 16.5554L10.9614 15.8722L11.7464 16.3937C12.0628 16.6039 12.4118 16.7232 12.7701 16.7457L14.6421 15.1492L14.3709 17.9167C14.3648 17.9788 14.3618 18.0634 14.3861 18.2204L14.4677 18.745L14.1138 19.1406L14.073 19.1865L15.1014 19.6611L15.5318 19.1218Z" fill="black"/>
<path id="Vector_3" d="M27.1245 18.1496C23.8608 18.823 23.6365 17.7179 23.6365 17.7179C27.0826 12.6048 28.523 6.11399 27.2799 4.52563C23.8885 0.192502 18.0176 2.24164 17.9197 2.29485L17.888 2.30047C17.2433 2.16664 16.5216 2.08696 15.7104 2.07383C14.2336 2.04969 13.1136 2.46102 12.2635 3.10555C12.2635 3.10555 1.79067 -1.20883 2.27771 8.53156C2.3813 10.6039 5.24771 24.211 8.66677 20.101C9.91646 18.5982 11.1237 17.3274 11.1237 17.3274C11.7235 17.7256 12.4414 17.9291 13.194 17.8559L13.2525 17.8063C13.2343 17.9928 13.2427 18.1754 13.276 18.3915C12.3952 19.3756 12.654 19.5484 10.8931 19.9107C9.11138 20.2777 10.1581 20.9314 10.8415 21.1023C11.6698 21.3095 13.5865 21.6029 14.8815 19.7902L14.8297 19.997C15.1749 20.2735 15.4172 21.7951 15.3767 23.1744C15.3359 24.5537 15.3087 25.5008 15.5808 26.2405C15.8527 26.9802 16.1236 28.6442 18.4383 28.1483C20.3724 27.7339 21.3746 26.6598 21.5143 24.8682C21.6132 23.5944 21.837 23.7828 21.8513 22.644L22.0311 22.1049C22.2383 20.3783 22.0639 19.8214 23.2557 20.0804L23.5451 20.1057C24.4222 20.1455 25.5699 19.9646 26.2437 19.6515C27.6945 18.9786 28.5549 17.8545 27.1245 18.1496Z" fill="#336791"/>
<path id="Vector_4" d="M17.8024 28.6657C15.8731 28.6657 15.2618 27.1378 15.0117 26.513C14.6456 25.5973 14.5666 22.0437 14.6482 19.1295C14.6494 19.0803 14.6603 19.0319 14.6804 18.987C14.7004 18.9421 14.7291 18.9016 14.7648 18.8678C14.8005 18.8341 14.8426 18.8077 14.8885 18.7902C14.9345 18.7728 14.9834 18.7646 15.0326 18.7662C15.0817 18.7675 15.13 18.7785 15.1748 18.7986C15.2197 18.8186 15.2601 18.8473 15.2939 18.8829C15.3276 18.9186 15.354 18.9606 15.3715 19.0065C15.389 19.0524 15.3973 19.1012 15.3959 19.1503C15.3019 22.5115 15.4352 25.5574 15.7062 26.2353C16.129 27.292 16.7702 28.2164 18.5831 27.8281C20.3041 27.4589 20.9487 26.8064 21.2358 25.1421C21.4561 23.865 21.8918 20.2317 21.9455 19.5148C21.9491 19.4658 21.9623 19.418 21.9844 19.3741C22.0065 19.3302 22.037 19.2911 22.0743 19.2591C22.1115 19.227 22.1547 19.2027 22.2014 19.1873C22.248 19.172 22.2973 19.166 22.3463 19.1698C22.4451 19.1773 22.537 19.2237 22.6016 19.2988C22.6663 19.374 22.6986 19.4717 22.6913 19.5706C22.6352 20.317 22.2016 23.9433 21.9729 25.2694C21.634 27.2351 20.7577 28.1267 18.7399 28.5593C18.397 28.6327 18.0856 28.6655 17.8024 28.6657ZM7.34087 21.203C7.17222 21.2024 7.00477 21.1747 6.84493 21.121C5.59173 20.7028 4.39805 18.6619 3.29696 15.0542C2.45883 12.308 1.92774 9.44158 1.8811 8.50994C1.74305 5.74806 2.45415 3.79408 3.99516 2.70259C7.04368 0.542593 12.172 2.59947 12.3888 2.68806C12.4807 2.72558 12.5539 2.79804 12.5923 2.8895C12.6307 2.98097 12.6312 3.08395 12.5937 3.1758C12.5562 3.26764 12.4837 3.34082 12.3922 3.37923C12.3008 3.41765 12.1978 3.41815 12.1059 3.38064C12.0565 3.36048 7.13883 1.39033 4.42594 3.31384C3.10829 4.24806 2.50337 5.98384 2.62782 8.47267C2.66696 9.25759 3.16313 12.0551 4.01204 14.8357C4.99501 18.0565 6.11368 20.0888 7.08141 20.4115C7.23329 20.4621 7.69548 20.6161 8.35618 19.8216C9.12667 18.8962 9.92605 17.9953 10.7531 17.1202C10.8223 17.0511 10.9158 17.0119 11.0136 17.011C11.1113 17.01 11.2055 17.0473 11.2761 17.1149C11.3467 17.1826 11.388 17.2751 11.3912 17.3728C11.3943 17.4705 11.3592 17.5656 11.2931 17.6377C11.2819 17.6494 10.1571 18.8253 8.93133 20.2999C8.35079 20.9981 7.79438 21.203 7.34087 21.203ZM23.6133 18.0518C23.5455 18.0517 23.479 18.0332 23.4209 17.9982C23.3628 17.9633 23.3153 17.9132 23.2835 17.8533C23.2517 17.7935 23.2367 17.7261 23.2402 17.6584C23.2437 17.5907 23.2656 17.5252 23.3034 17.4689C26.787 12.2998 28.0097 6.05392 26.9625 4.71564C25.6444 3.03142 23.7832 2.15181 21.4303 2.10095C19.6882 2.06345 18.3035 2.5083 18.0771 2.58587L18.0202 2.60908C17.7926 2.68056 17.618 2.55587 17.5521 2.41009C17.5146 2.32657 17.5089 2.23219 17.5361 2.14476C17.5634 2.05733 17.6217 1.98289 17.7 1.93548C17.7108 1.92916 17.745 1.91462 17.8006 1.89423C18.1852 1.75337 19.5909 1.3315 21.3321 1.35142C23.9356 1.37908 26.0862 2.38291 27.551 4.25486C28.2441 5.14056 28.2457 7.18103 27.5555 9.85337C26.8519 12.578 25.5279 15.506 23.9234 17.887C23.8516 17.9942 23.7335 18.0518 23.6133 18.0518ZM23.7914 20.4448C23.1966 20.4448 22.6634 20.3609 22.3441 20.1696C22.016 19.973 21.9534 19.7058 21.9452 19.564C21.8557 17.9913 22.7234 17.7176 23.1659 17.5927C23.1042 17.4994 23.0166 17.3897 22.9259 17.2765C22.6678 16.954 22.3144 16.5124 22.042 15.852C21.9994 15.7488 21.8658 15.5091 21.7111 15.2313C20.8723 13.7271 19.1269 10.597 20.2481 8.99416C20.767 8.25236 21.8004 7.96033 23.3229 8.12322C22.875 6.75869 20.7422 2.49025 15.6813 2.40728C14.1593 2.38197 12.911 2.85002 11.9731 3.79712C9.87305 5.91798 9.94899 9.75541 9.95016 9.79384C9.95146 9.84293 9.94307 9.8918 9.92547 9.93765C9.90788 9.9835 9.88143 10.0254 9.84763 10.0611C9.81383 10.0967 9.77335 10.1253 9.72849 10.1453C9.68363 10.1653 9.63527 10.1762 9.58618 10.1775C9.53709 10.1788 9.48822 10.1704 9.44237 10.1528C9.39652 10.1352 9.35459 10.1088 9.31896 10.075C9.28333 10.0412 9.25471 10.0007 9.23473 9.95584C9.21475 9.91098 9.2038 9.86262 9.20251 9.81353C9.19782 9.64314 9.11954 5.61611 11.4417 3.27072C12.5285 2.17314 13.9591 1.63126 15.6938 1.65962C18.9314 1.71283 21.0155 3.35884 22.1934 4.73017C23.4776 6.22478 24.1071 7.87338 24.1589 8.42369C24.1976 8.83291 23.9039 8.9147 23.8446 8.92689L23.7096 8.92994C22.2155 8.69064 21.2569 8.85681 20.8606 9.42306C20.0077 10.642 21.6588 13.6029 22.3638 14.8674C22.5438 15.1899 22.6737 15.4231 22.7332 15.567C22.9648 16.1285 23.2669 16.5059 23.5095 16.8092C23.723 17.0759 23.9079 17.3072 23.974 17.5786C24.0047 17.6325 24.4404 18.277 27.0258 17.7434C27.6738 17.6098 28.0624 17.7239 28.1813 18.0832C28.4149 18.7899 27.1038 19.6142 26.378 19.9512C25.7276 20.2535 24.6895 20.4448 23.7914 20.4448ZM22.6908 19.5024C22.7728 19.5851 23.1832 19.7278 24.0331 19.6913C24.7887 19.6589 25.5856 19.4946 26.0637 19.2727C26.6752 18.9886 27.0834 18.671 27.2948 18.4542L27.1777 18.4758C25.5246 18.817 24.3553 18.7716 23.7023 18.3406C23.6585 18.3116 23.6162 18.2802 23.5758 18.2466C23.505 18.2745 23.4396 18.2928 23.393 18.3059C23.0227 18.4097 22.6397 18.5173 22.6908 19.5024ZM12.0122 21.5918C11.6016 21.5918 11.1694 21.5358 10.7281 21.4254C10.2708 21.311 9.49993 20.9667 9.51165 20.4012C9.52501 19.7667 10.4477 19.5764 10.7951 19.5049C12.0499 19.2464 12.1317 19.1428 12.5238 18.6448C12.6382 18.4997 12.7805 18.319 12.9745 18.1024C13.2626 17.7799 13.5773 17.6166 13.9102 17.6166C14.142 17.6166 14.332 17.6951 14.4577 17.7474C14.858 17.9133 15.192 18.3145 15.3293 18.7943C15.4533 19.2272 15.394 19.6439 15.1629 19.9676C14.4042 21.03 13.3146 21.5918 12.0122 21.5918ZM10.3195 20.4333C10.4323 20.5205 10.6582 20.637 10.9097 20.6998C11.292 20.7954 11.6627 20.8439 12.0124 20.8439C13.0779 20.8439 13.9334 20.4028 14.5547 19.5328C14.6843 19.3514 14.6454 19.121 14.6107 18.9999C14.5381 18.746 14.3576 18.5152 14.1717 18.4381C14.0709 18.3963 13.9873 18.3645 13.9104 18.3645C13.8691 18.3645 13.7435 18.3645 13.5321 18.601C13.3862 18.765 13.246 18.934 13.1116 19.1077C12.6232 19.7278 12.3994 19.9383 10.9463 20.2376C10.5916 20.3103 10.4098 20.3843 10.3195 20.4333ZM13.1951 18.7083C13.1058 18.7082 13.0195 18.6761 12.9518 18.6179C12.8841 18.5597 12.8395 18.4792 12.8259 18.391C12.8166 18.3289 12.8104 18.2664 12.8072 18.2037C11.8547 18.1859 10.9357 17.7771 10.238 17.0492C9.35579 16.1288 8.9543 14.8535 9.13665 13.5506C9.33469 12.1357 9.26063 10.8867 9.22079 10.2157C9.20977 10.0292 9.2018 9.89439 9.20227 9.80111C9.20298 9.68275 9.20532 9.36892 10.2544 8.83713C10.6275 8.64798 11.3756 8.31798 12.1929 8.23338C13.5469 8.09345 14.4394 8.6965 14.7066 9.93166C15.4277 13.2663 14.7638 14.7413 14.2788 15.8185C14.1886 16.0191 14.1033 16.2085 14.0351 16.392L13.9748 16.5537C13.7187 17.2406 13.4972 17.8341 13.5652 18.2773C13.5726 18.3258 13.5705 18.3754 13.5588 18.4231C13.5471 18.4708 13.5261 18.5157 13.497 18.5553C13.468 18.5949 13.4314 18.6283 13.3894 18.6538C13.3474 18.6792 13.3008 18.6962 13.2523 18.7036L13.1951 18.7083ZM9.95251 9.9047L9.96704 10.1717C10.0083 10.8687 10.0852 12.1657 9.87704 13.6545C9.7268 14.7291 10.0549 15.7779 10.7777 16.5317C11.3489 17.1274 12.1006 17.4563 12.8731 17.4563H12.889C12.9755 17.0918 13.1191 16.707 13.2738 16.2924L13.3336 16.1316C13.4107 15.9244 13.5009 15.7238 13.5966 15.5114C14.0632 14.4745 14.6442 13.1838 13.9751 10.0899C13.8427 9.47697 13.5213 9.12236 12.9933 9.00541C11.9086 8.76587 10.2921 9.58173 9.95251 9.9047ZM12.2095 9.74603C12.1908 9.87822 12.4516 10.2312 12.792 10.2783C13.1316 10.3259 13.4222 10.0498 13.4407 9.91759C13.4592 9.78541 13.1986 9.63962 12.8583 9.59228C12.5182 9.54494 12.2276 9.61384 12.2095 9.74603ZM12.87 10.4084L12.7746 10.4018C12.5637 10.3725 12.3504 10.2396 12.2044 10.046C12.1531 9.97806 12.0694 9.84634 12.086 9.72869C12.1097 9.55619 12.3202 9.45283 12.6485 9.45283C12.7219 9.45283 12.7983 9.45822 12.8752 9.469C13.0547 9.49384 13.2213 9.54564 13.3444 9.61431C13.5577 9.73337 13.5734 9.86627 13.5638 9.93494C13.5375 10.1255 13.2345 10.4084 12.87 10.4084ZM12.3335 9.76806C12.3441 9.84962 12.5461 10.1187 12.8091 10.155L12.8702 10.1592C13.1131 10.1592 13.2945 9.96822 13.3158 9.90564C13.2933 9.86298 13.1372 9.75705 12.8412 9.7158C12.7774 9.70665 12.7131 9.70203 12.6488 9.70197C12.4584 9.70197 12.3574 9.74486 12.3335 9.76806ZM22.5534 9.47626C22.572 9.60845 22.3113 9.96142 21.9713 10.0088C21.6314 10.0561 21.3406 9.78025 21.3218 9.64806C21.304 9.51587 21.5646 9.36986 21.9045 9.32275C22.2443 9.27517 22.5347 9.34431 22.5534 9.47626ZM21.8927 10.0763C21.5656 10.0763 21.2831 9.82173 21.2599 9.6565C21.233 9.45822 21.5595 9.30752 21.8956 9.26087C21.9696 9.25056 22.043 9.24541 22.1135 9.24541C22.4037 9.24541 22.5959 9.33048 22.6151 9.46783C22.6275 9.55666 22.5593 9.69377 22.4419 9.81752C22.3643 9.89884 22.2014 10.0397 21.9795 10.0704L21.8927 10.0763ZM22.1138 9.37009C22.0491 9.37009 21.9816 9.37502 21.9131 9.38439C21.5754 9.4315 21.3738 9.56697 21.3837 9.63962C21.3949 9.71955 21.6106 9.95181 21.893 9.95181L21.9626 9.94689C22.147 9.92134 22.2856 9.80087 22.3516 9.7315C22.4555 9.62252 22.4967 9.51986 22.4918 9.48494C22.4852 9.43853 22.3606 9.37009 22.1138 9.37009ZM23.0431 17.0677C22.9753 17.0677 22.9088 17.0493 22.8507 17.0145C22.7926 16.9796 22.7451 16.9296 22.7132 16.8699C22.6813 16.8101 22.6663 16.7427 22.6697 16.6751C22.6732 16.6074 22.695 16.542 22.7327 16.4857C23.5291 15.2963 23.3834 14.0834 23.2425 12.9103C23.1823 12.4106 23.1204 11.8938 23.1363 11.3979C23.1527 10.8877 23.2177 10.4667 23.2802 10.0596C23.3545 9.57728 23.4249 9.12166 23.3958 8.58072C23.3931 8.53169 23.4002 8.48262 23.4165 8.43631C23.4328 8.39 23.4581 8.34735 23.4909 8.31081C23.5237 8.27427 23.5634 8.24455 23.6076 8.22334C23.6519 8.20213 23.7 8.18985 23.749 8.1872C23.798 8.18456 23.8471 8.19159 23.8934 8.20791C23.9397 8.22423 23.9824 8.24951 24.0189 8.28231C24.0554 8.3151 24.0852 8.35478 24.1064 8.39906C24.1276 8.44335 24.1399 8.49138 24.1425 8.54041C24.1758 9.15869 24.0963 9.67431 24.0195 10.1733C23.9602 10.5584 23.8988 10.9566 23.884 11.4218C23.8697 11.861 23.9257 12.3274 23.985 12.821C24.135 14.0684 24.3049 15.4821 23.3543 16.9017C23.3201 16.9529 23.2738 16.9947 23.2195 17.0237C23.1652 17.0526 23.1046 17.0677 23.0431 17.0677Z" fill="#F6F7FB"/>
</g>
</svg>
