<svg width="24" height="24" viewBox="0 0 24 24" fill="none" xmlns="http://www.w3.org/2000/svg">
<g id="mingcute:down-line" clip-path="url(#clip0_984_4987)">
<g id="Group">
<path id="Vector" fill-rule="evenodd" clip-rule="evenodd" d="M11.2936 8.29363C11.4812 8.10616 11.7355 8.00085 12.0006 8.00085C12.2658 8.00085 12.5201 8.10616 12.7076 8.29363L18.3646 13.9506C18.4601 14.0429 18.5363 14.1532 18.5887 14.2752C18.6411 14.3972 18.6687 14.5285 18.6699 14.6612C18.671 14.794 18.6457 14.9257 18.5955 15.0486C18.5452 15.1715 18.4709 15.2831 18.377 15.377C18.2831 15.4709 18.1715 15.5452 18.0486 15.5955C17.9257 15.6457 17.794 15.671 17.6612 15.6699C17.5285 15.6687 17.3972 15.6411 17.2752 15.5887C17.1532 15.5363 17.0429 15.4601 16.9506 15.3646L12.0006 10.4146L7.05063 15.3646C6.86203 15.5468 6.60943 15.6476 6.34723 15.6453C6.08504 15.643 5.83422 15.5379 5.64882 15.3525C5.46341 15.167 5.35824 14.9162 5.35596 14.654C5.35368 14.3918 5.45447 14.1392 5.63663 13.9506L11.2936 8.29363Z" fill="white"/>
</g>
</g>
<defs>
<clipPath id="clip0_984_4987">
<rect width="24" height="24" fill="white" transform="translate(24 24) rotate(-180)"/>
</clipPath>
</defs>
</svg>
