<svg width="18" height="12" viewBox="0 0 18 12" fill="none" xmlns="http://www.w3.org/2000/svg">
<path fill-rule="evenodd" clip-rule="evenodd" d="M10.3251 11.0755C9.97356 11.4266 9.49699 11.6238 9.00012 11.6238C8.50324 11.6238 8.02668 11.4266 7.67512 11.0755L0.60262 4.00547C0.251042 3.65373 0.0535938 3.17673 0.053711 2.6794C0.0538282 2.18208 0.251501 1.70517 0.603244 1.3536C0.954988 1.00202 1.43199 0.80457 1.92931 0.804688C2.42663 0.804805 2.90354 1.00248 3.25512 1.35422L9.00012 7.09922L14.7451 1.35422C15.0986 1.0125 15.5721 0.823289 16.0638 0.827328C16.5554 0.831366 17.0257 1.02834 17.3735 1.37581C17.7214 1.72329 17.9188 2.19347 17.9233 2.68509C17.9278 3.17671 17.739 3.65043 17.3976 4.00422L10.3264 11.0767L10.3251 11.0755Z" fill="black"/>
</svg>
