<svg width="16" height="16" viewBox="0 0 16 16" fill="none" xmlns="http://www.w3.org/2000/svg">
<g id="basil:add-outline">
<rect width="16" height="16" rx="5" fill="#121212"/>
<path id="Vector" d="M4.67139 8.00054C4.67139 7.86793 4.72407 7.74076 4.81783 7.64699C4.9116 7.55322 5.03878 7.50054 5.17139 7.50054H7.50005V5.17188C7.50005 5.03927 7.55273 4.91209 7.6465 4.81832C7.74027 4.72455 7.86745 4.67188 8.00005 4.67188C8.13266 4.67188 8.25984 4.72455 8.35361 4.81832C8.44737 4.91209 8.50005 5.03927 8.50005 5.17188V7.50054H10.8287C10.9613 7.50054 11.0885 7.55322 11.1823 7.64699C11.276 7.74076 11.3287 7.86793 11.3287 8.00054C11.3287 8.13315 11.276 8.26033 11.1823 8.35409C11.0885 8.44786 10.9613 8.50054 10.8287 8.50054H8.50005V10.8292C8.50005 10.9618 8.44737 11.089 8.35361 11.1828C8.25984 11.2765 8.13266 11.3292 8.00005 11.3292C7.86745 11.3292 7.74027 11.2765 7.6465 11.1828C7.55273 11.089 7.50005 10.9618 7.50005 10.8292V8.50054H5.17139C5.03878 8.50054 4.9116 8.44786 4.81783 8.35409C4.72407 8.26033 4.67139 8.13315 4.67139 8.00054Z" fill="white"/>
<path id="Vector_2" fill-rule="evenodd" clip-rule="evenodd" d="M4.87822 2.51236C6.9532 2.28234 9.04724 2.28234 11.1222 2.51236C12.3402 2.64836 13.3236 3.6077 13.4662 4.83236C13.7129 6.93703 13.7129 9.06303 13.4662 11.1677C13.3229 12.3924 12.3396 13.351 11.1222 13.4877C9.04724 13.7177 6.9532 13.7177 4.87822 13.4877C3.66022 13.351 2.67689 12.3924 2.53422 11.1677C2.28807 9.06309 2.28807 6.93697 2.53422 4.83236C2.67689 3.6077 3.66089 2.64836 4.87822 2.51236ZM11.0116 3.5057C9.01013 3.28385 6.99031 3.28385 4.98889 3.5057C4.61838 3.5468 4.27255 3.71161 4.00727 3.97351C3.74199 4.2354 3.57275 4.57909 3.52689 4.94903C3.28979 6.97634 3.28979 9.02438 3.52689 11.0517C3.57289 11.4215 3.74219 11.7651 4.00746 12.0268C4.27273 12.2886 4.61848 12.4533 4.98889 12.4944C6.97355 12.7157 9.02689 12.7157 11.0116 12.4944C11.3818 12.4532 11.7274 12.2884 11.9926 12.0266C12.2577 11.7649 12.4269 11.4214 12.4729 11.0517C12.71 9.02438 12.71 6.97634 12.4729 4.94903C12.4268 4.57943 12.2575 4.23613 11.9924 3.97451C11.7273 3.7129 11.3817 3.54822 11.0116 3.50703V3.5057Z" fill="white"/>
<path id="Vector_3" fill-rule="evenodd" clip-rule="evenodd" d="M4.87822 2.51236C6.9532 2.28234 9.04724 2.28234 11.1222 2.51236C12.3402 2.64836 13.3236 3.6077 13.4662 4.83236C13.7129 6.93703 13.7129 9.06303 13.4662 11.1677C13.3229 12.3924 12.3396 13.351 11.1222 13.4877C9.04724 13.7177 6.9532 13.7177 4.87822 13.4877C3.66022 13.351 2.67689 12.3924 2.53422 11.1677C2.28807 9.06309 2.28807 6.93697 2.53422 4.83236C2.67689 3.6077 3.66089 2.64836 4.87822 2.51236ZM11.0116 3.5057C9.01013 3.28385 6.99031 3.28385 4.98889 3.5057C4.61838 3.5468 4.27255 3.71161 4.00727 3.97351C3.74199 4.2354 3.57275 4.57909 3.52689 4.94903C3.28979 6.97634 3.28979 9.02438 3.52689 11.0517C3.57289 11.4215 3.74219 11.7651 4.00746 12.0268C4.27273 12.2886 4.61848 12.4533 4.98889 12.4944C6.97355 12.7157 9.02689 12.7157 11.0116 12.4944C11.3818 12.4532 11.7274 12.2884 11.9926 12.0266C12.2577 11.7649 12.4269 11.4214 12.4729 11.0517C12.71 9.02438 12.71 6.97634 12.4729 4.94903C12.4268 4.57943 12.2575 4.23613 11.9924 3.97451C11.7273 3.7129 11.3817 3.54822 11.0116 3.50703V3.5057Z" fill="white"/>
</g>
</svg>
