<svg width="24" height="24" viewBox="0 0 24 24" fill="none" xmlns="http://www.w3.org/2000/svg">
<g id="basil:add-outline">
<path id="Vector" d="M7.00684 12.0008C7.00684 11.8019 7.08585 11.6111 7.22651 11.4705C7.36716 11.3298 7.55792 11.2508 7.75684 11.2508H11.2498V7.75781C11.2498 7.5589 11.3289 7.36813 11.4695 7.22748C11.6102 7.08683 11.8009 7.00781 11.9998 7.00781C12.1987 7.00781 12.3895 7.08683 12.5302 7.22748C12.6708 7.36813 12.7498 7.5589 12.7498 7.75781V11.2508H16.2428C16.4417 11.2508 16.6325 11.3298 16.7732 11.4705C16.9138 11.6111 16.9928 11.8019 16.9928 12.0008C16.9928 12.1997 16.9138 12.3905 16.7732 12.5311C16.6325 12.6718 16.4417 12.7508 16.2428 12.7508H12.7498V16.2438C12.7498 16.4427 12.6708 16.6335 12.5302 16.7741C12.3895 16.9148 12.1987 16.9938 11.9998 16.9938C11.8009 16.9938 11.6102 16.9148 11.4695 16.7741C11.3289 16.6335 11.2498 16.4427 11.2498 16.2438V12.7508H7.75684C7.55792 12.7508 7.36716 12.6718 7.22651 12.5311C7.08585 12.3905 7.00684 12.1997 7.00684 12.0008Z" fill="white"/>
<path id="Vector_2" fill-rule="evenodd" clip-rule="evenodd" d="M7.31684 3.76855C10.4293 3.42351 13.5704 3.42351 16.6828 3.76855C18.5098 3.97255 19.9848 5.41155 20.1988 7.24855C20.5688 10.4055 20.5688 13.5945 20.1988 16.7515C19.9838 18.5885 18.5088 20.0265 16.6828 20.2315C13.5704 20.5766 10.4293 20.5766 7.31684 20.2315C5.48984 20.0265 4.01484 18.5885 3.80084 16.7515C3.43162 13.5946 3.43162 10.4055 3.80084 7.24855C4.01484 5.41155 5.49084 3.97255 7.31684 3.76855ZM16.5168 5.25855C13.5147 4.92578 10.485 4.92578 7.48284 5.25855C6.92708 5.3202 6.40834 5.56742 6.01042 5.96026C5.6125 6.35311 5.35863 6.86863 5.28984 7.42355C4.93419 10.4645 4.93419 13.5366 5.28984 16.5775C5.35884 17.1323 5.6128 17.6476 6.0107 18.0402C6.40861 18.4329 6.92723 18.6799 7.48284 18.7415C10.4598 19.0735 13.5398 19.0735 16.5168 18.7415C17.0723 18.6797 17.5907 18.4326 17.9884 18.0399C18.3861 17.6473 18.6399 17.1321 18.7088 16.5775C19.0645 13.5366 19.0645 10.4645 18.7088 7.42355C18.6397 6.86914 18.3858 6.35419 17.9881 5.96177C17.5904 5.56935 17.0721 5.32232 16.5168 5.26055V5.25855Z" fill="white"/>
<path id="Vector_3" fill-rule="evenodd" clip-rule="evenodd" d="M7.31733 3.76855C10.4298 3.42351 13.5709 3.42351 16.6833 3.76855C18.5103 3.97255 19.9853 5.41155 20.1993 7.24855C20.5693 10.4055 20.5693 13.5945 20.1993 16.7515C19.9843 18.5885 18.5093 20.0265 16.6833 20.2315C13.5709 20.5766 10.4298 20.5766 7.31733 20.2315C5.49033 20.0265 4.01533 18.5885 3.80133 16.7515C3.43211 13.5946 3.43211 10.4055 3.80133 7.24855C4.01533 5.41155 5.49133 3.97255 7.31733 3.76855ZM16.5173 5.25855C13.5152 4.92578 10.4855 4.92578 7.48333 5.25855C6.92757 5.3202 6.40883 5.56742 6.01091 5.96026C5.61299 6.35311 5.35912 6.86863 5.29033 7.42355C4.93468 10.4645 4.93468 13.5366 5.29033 16.5775C5.35933 17.1323 5.61329 17.6476 6.01119 18.0402C6.4091 18.4329 6.92772 18.6799 7.48333 18.7415C10.4603 19.0735 13.5403 19.0735 16.5173 18.7415C17.0728 18.6797 17.5912 18.4326 17.9889 18.0399C18.3866 17.6473 18.6404 17.1321 18.7093 16.5775C19.065 13.5366 19.065 10.4645 18.7093 7.42355C18.6402 6.86914 18.3863 6.35419 17.9886 5.96177C17.5909 5.56935 17.0726 5.32232 16.5173 5.26055V5.25855Z" fill="white"/>
</g>
</svg>
