<svg width="10" height="10" viewBox="0 0 10 10" fill="none" xmlns="http://www.w3.org/2000/svg">
<path id="Vector" d="M5 6.36778L6.70944 4.65833H3.29056L5 6.36778ZM5.00167 10C4.31056 10 3.66056 9.86889 3.05167 9.60667C2.44315 9.34407 1.9137 8.98778 1.46333 8.53778C1.01296 8.08815 0.656482 7.55926 0.393889 6.95111C0.131296 6.34296 0 5.69315 0 5.00167C0 4.31056 0.131111 3.66056 0.393333 3.05167C0.655926 2.44315 1.01222 1.9137 1.46222 1.46333C1.91185 1.01296 2.44074 0.656482 3.04889 0.393889C3.65704 0.131296 4.30685 0 4.99833 0C5.68944 0 6.33944 0.131111 6.94833 0.393333C7.55685 0.655926 8.0863 1.01222 8.53667 1.46222C8.98704 1.91185 9.34352 2.44074 9.60611 3.04889C9.8687 3.65704 10 4.30685 10 4.99833C10 5.68944 9.86889 6.33944 9.60667 6.94833C9.34407 7.55685 8.98778 8.0863 8.53778 8.53667C8.08815 8.98704 7.55926 9.34352 6.95111 9.60611C6.34296 9.8687 5.69315 10 5.00167 10ZM5 9.44444C6.24074 9.44444 7.29167 9.01389 8.15278 8.15278C9.01389 7.29167 9.44444 6.24074 9.44444 5C9.44444 3.75926 9.01389 2.70833 8.15278 1.84722C7.29167 0.986111 6.24074 0.555556 5 0.555556C3.75926 0.555556 2.70833 0.986111 1.84722 1.84722C0.986111 2.70833 0.555556 3.75926 0.555556 5C0.555556 6.24074 0.986111 7.29167 1.84722 8.15278C2.70833 9.01389 3.75926 9.44444 5 9.44444Z" fill="black"/>
</svg>
