<svg width="256" height="256" viewBox="0 0 256 256" fill="none" xmlns="http://www.w3.org/2000/svg">
<g id="ph:user-bold" opacity="0.8">
<path id="Vector" d="M234.38 210.001C220.67 185.938 199.261 167.188 173.6 156.771C186.361 147.2 195.787 133.857 200.543 118.631C205.299 103.406 205.144 87.0699 200.1 71.9374C195.056 56.8049 185.378 43.6431 172.438 34.3163C159.498 24.9895 143.951 19.9707 128 19.9707C112.049 19.9707 96.5022 24.9895 83.562 34.3163C70.6218 43.6431 60.9442 56.8049 55.9 71.9374C50.8559 87.0699 50.7008 103.406 55.4569 118.631C60.213 133.857 69.6391 147.2 82.4 156.771C56.7392 167.188 35.3304 185.938 21.62 210.001C20.7704 211.367 20.2042 212.89 19.955 214.479C19.7057 216.068 19.7786 217.691 20.1692 219.252C20.5598 220.812 21.2601 222.278 22.2286 223.563C23.1971 224.847 24.414 225.924 25.8069 226.729C27.1998 227.533 28.7403 228.05 30.3367 228.247C31.9332 228.445 33.5531 228.319 35.1001 227.878C36.6472 227.437 38.0897 226.69 39.342 225.68C40.5943 224.67 41.6308 223.419 42.39 222.001C60.51 190.681 92.5099 172.001 128 172.001C163.49 172.001 195.49 190.691 213.61 222.001C215.255 224.646 217.864 226.548 220.886 227.304C223.908 228.061 227.106 227.612 229.803 226.054C232.501 224.495 234.486 221.949 235.34 218.953C236.194 215.958 235.85 212.747 234.38 210.001ZM76 96.0007C76 85.7161 79.0497 75.6624 84.7635 67.1111C90.4774 58.5597 98.5987 51.8947 108.1 47.959C117.602 44.0232 128.058 42.9934 138.145 44.9999C148.232 47.0063 157.497 51.9588 164.77 59.2311C172.042 66.5035 176.994 75.769 179.001 85.856C181.007 95.943 179.977 106.398 176.042 115.9C172.106 125.402 165.441 133.523 156.89 139.237C148.338 144.951 138.285 148.001 128 148.001C114.214 147.985 100.996 142.501 91.2479 132.753C81.4995 123.004 76.0158 109.787 76 96.0007Z" fill="black" fill-opacity="0.9"/>
</g>
</svg>
