<svg width="30" height="30" viewBox="0 0 30 30" fill="none" xmlns="http://www.w3.org/2000/svg">
<g id="emojione-v1:snowflake" clip-path="url(#clip0_2313_583)">
<path id="Vector" d="M29.0513 17.9481L27.2321 16.1298H27.818C28.9158 16.1298 30.0957 15.7914 30.0957 15.0507V15.0432C30.0957 14.3026 28.9144 13.9642 27.8161 13.9642H27.2386L28.8713 12.332C29.648 11.5562 30.2443 10.4823 29.7211 9.95777C29.6311 9.86871 29.4699 9.76277 29.2065 9.76277C28.704 9.76277 27.9919 10.164 27.3474 10.8076L24.5963 13.5592C24.4636 13.6909 24.3451 13.8282 24.234 13.9642H17.6011L22.3074 9.25793C22.3149 9.2523 22.3229 9.24293 22.3294 9.2359L22.3435 9.22277C22.6008 9.26252 22.8608 9.28227 23.1211 9.28184H27.0108C28.1096 9.28184 29.2913 8.94434 29.2913 8.20371C29.2913 7.46402 28.1101 7.12559 27.0127 7.12559H24.4397L24.8532 6.71309C25.2479 6.3184 25.5633 5.8834 25.7405 5.48871C25.8657 5.20887 25.9027 4.9909 25.8943 4.81746V4.81371C25.8943 4.71481 25.8718 4.62996 25.8455 4.56152C25.8427 4.55496 25.8394 4.55121 25.8376 4.54652C25.8064 4.46944 25.7609 4.39897 25.7035 4.33887H25.7011C25.613 4.24887 25.4508 4.14246 25.1874 4.14246C24.684 4.14246 23.971 4.54371 23.3265 5.18918L22.9177 5.59793V3.28746C22.9177 2.19012 22.5811 1.00887 21.8396 1.00887C21.099 1.00887 20.7624 2.19012 20.7624 3.28746L20.7633 7.17902C20.7633 7.36512 20.776 7.54512 20.7938 7.7223L16.1405 12.3732V5.82527C16.3402 5.68043 16.5376 5.5173 16.7321 5.32371L19.4836 2.57309C20.2604 1.79543 20.8566 0.721992 20.333 0.199336C20.2449 0.109805 20.0841 0.00292969 19.8207 0.00292969C19.3177 0.00292969 18.6043 0.40418 17.9602 1.04871L16.141 2.86746V2.28246C16.141 1.18418 15.8049 0.00292969 15.0643 0.00292969L15.0615 0.00386719L15.0558 0.00292969C14.3161 0.00292969 13.9777 1.18559 13.9777 2.2834V2.8609L12.3446 1.22824C11.701 0.58418 10.988 0.183398 10.486 0.183398C10.2226 0.183398 10.0613 0.290273 9.9713 0.378867C9.82833 0.521836 9.63474 0.859805 9.93427 1.52871C10.1124 1.9234 10.4255 2.3584 10.8216 2.75215L13.5732 5.50371C13.7058 5.63637 13.8432 5.75215 13.9782 5.86371V12.3582L9.35162 7.73121C9.34412 7.72277 9.33474 7.71434 9.32724 7.7073L9.31318 7.69418C9.35302 7.44106 9.37365 7.17762 9.37365 6.91652V3.02684C9.37365 1.92902 9.03709 0.747305 8.29552 0.747305C7.55584 0.747305 7.21834 1.92762 7.21834 3.0259V5.5984L6.8049 5.18496C6.1599 4.53996 5.44787 4.14012 4.94724 4.14012C4.68193 4.14012 4.52068 4.24605 4.43162 4.33559H4.43021C4.4288 4.33887 4.43021 4.33934 4.42365 4.34121C4.42177 4.34402 4.42177 4.34637 4.42037 4.34871C4.36891 4.40249 4.32748 4.46504 4.29802 4.5334C4.28302 4.56668 4.27459 4.6009 4.26662 4.63512C4.25771 4.66043 4.25396 4.68809 4.2488 4.71809C4.15787 5.28527 4.6538 6.09387 5.2749 6.7159L5.68459 7.12465H3.37552C2.27677 7.12465 1.09599 7.46215 1.09599 8.20277C1.09599 8.9434 2.27724 9.27902 3.37552 9.27902H7.26896C7.45459 9.27902 7.63224 9.26777 7.80755 9.24856L12.5279 13.9689H5.83646C5.68122 13.76 5.51142 13.5623 5.32834 13.3773L2.57677 10.6267C1.93318 9.98215 1.22068 9.58184 0.717242 9.58184C0.454742 9.58184 0.292554 9.68871 0.203961 9.7773C-0.320102 10.3 0.276148 11.3739 1.05334 12.1496L2.87209 13.9684H2.28709C1.1888 13.9684 0.0075544 14.3068 0.0075544 15.0475L0.0094294 15.0512L0.0075544 15.055C0.0075544 15.7956 1.19021 16.134 2.28802 16.134H2.86646L1.2338 17.7667C0.457086 18.5429 -0.139164 19.6164 0.383961 20.1409C0.473023 20.2295 0.634273 20.3354 0.898648 20.3354C1.40115 20.3354 2.11412 19.9342 2.75724 19.2906L5.5088 16.539C5.64052 16.4078 5.76005 16.2704 5.87115 16.134H12.3835L7.8188 20.6978C7.80943 20.7062 7.80146 20.7156 7.79115 20.725L7.78177 20.7357C7.52472 20.6965 7.26508 20.6768 7.00505 20.6767H3.11302C2.01568 20.6767 0.832554 21.0132 0.832554 21.7539C0.832554 22.4945 2.01521 22.832 3.11302 22.832H5.68459L5.27115 23.2454C4.87646 23.6396 4.56287 24.0746 4.38474 24.4698C4.25865 24.7492 4.22349 24.9676 4.23099 25.1415V25.1443C4.23662 25.2442 4.25396 25.3281 4.27927 25.3975C4.28268 25.4018 4.28522 25.4067 4.28677 25.412C4.32474 25.5043 4.37584 25.5732 4.42224 25.6187C4.42412 25.6196 4.42412 25.6215 4.42599 25.6225C4.42787 25.6243 4.42787 25.6243 4.42787 25.6253C4.5174 25.7139 4.67818 25.8198 4.94349 25.8198C5.44412 25.8198 6.15755 25.42 6.80302 24.7745L7.21084 24.3667V26.6748C7.21084 27.7736 7.54834 28.9543 8.2899 28.9543C8.49005 28.9543 8.86646 28.8512 9.12709 28.1682C9.28224 27.7642 9.36615 27.2336 9.36615 26.6743V22.7851C9.36615 22.599 9.35349 22.4181 9.33568 22.2418L13.9782 17.5993V24.2781C13.7799 24.4229 13.5797 24.5856 13.3866 24.7796L10.636 27.5298C9.85834 28.3075 9.26115 29.3809 9.78615 29.904C9.87521 29.9936 10.0374 30.1004 10.3008 30.1004C10.8043 30.1004 11.5154 29.6992 12.1594 29.0551L13.9782 27.2359V27.8209C13.9782 28.9196 14.3166 30.1004 15.0563 30.1004V30.0995L15.0601 30.1004C15.8007 30.1004 16.1372 28.9178 16.1372 27.82V27.2429L17.7699 28.8751C18.414 29.5192 19.1274 29.92 19.6304 29.92C19.8938 29.92 20.056 29.8131 20.1441 29.7245C20.2871 29.5815 20.4816 29.2436 20.1811 28.5751C20.0049 28.1809 19.6899 27.745 19.2947 27.3512L16.5432 24.6001C16.4101 24.4675 16.2746 24.3517 16.1372 24.2401V17.5848L20.7816 22.2292C20.7872 22.2357 20.7947 22.2418 20.8013 22.2493L20.8168 22.2643C20.7775 22.5214 20.7577 22.781 20.7577 23.0411V26.9317C20.7577 28.0304 21.0952 29.2112 21.8358 29.2112C22.5755 29.2112 22.914 28.03 22.914 26.9317V24.3601L23.3274 24.7731C23.971 25.4181 24.6849 25.8193 25.1874 25.8193C25.4508 25.8193 25.6126 25.7125 25.7011 25.6229C25.7011 25.6211 25.703 25.6201 25.703 25.6201C25.762 25.5605 25.8085 25.4897 25.8399 25.412L25.8488 25.3932C25.8755 25.3248 25.8905 25.2432 25.8976 25.1481V25.135C25.9032 24.962 25.8661 24.744 25.7438 24.4675C25.5676 24.0728 25.2526 23.6373 24.8565 23.2421L24.4477 22.8343H26.7577C27.8555 22.8343 29.0363 22.4959 29.0363 21.7571C29.0363 21.0156 27.8551 20.679 26.7577 20.679H22.8624C22.6833 20.679 22.5024 20.6917 22.3238 20.709L17.7488 16.135H24.2696C24.4224 16.3403 24.5949 16.5409 24.7786 16.7265L27.5288 19.4771C28.1733 20.1212 28.8863 20.522 29.3888 20.522C29.6522 20.522 29.813 20.4151 29.9026 20.3265C30.4261 19.8039 29.8294 18.7304 29.0527 17.9537" fill="#1B75BB"/>
<path id="Vector_2" d="M17.0392 2.27953V2.86453L18.858 1.04578C19.3117 0.5925 19.7955 0.27 20.2178 0.112969C20.1241 0.0520312 19.9938 0 19.8128 0C19.3099 0 18.5964 0.40125 17.9524 1.04578L17.028 1.97203C17.0332 2.07375 17.0392 2.17687 17.0392 2.27953ZM14.8778 2.85797V2.28047C14.8778 1.43672 15.0789 0.549844 15.5069 0.180937C15.3775 0.069375 15.2289 0 15.0583 0L15.0555 0.0009375L15.0499 0C14.3796 0 14.043 0.9675 13.983 1.96547L14.8778 2.85797ZM21.3002 1.27359C21.2127 1.47612 21.105 1.66929 20.9786 1.85016C20.8314 2.26641 20.756 2.78203 20.756 3.28453L20.7569 7.17609C20.7569 7.36219 20.7696 7.54219 20.7874 7.71938L17.0402 11.4656V12.3703L21.6911 7.71938C21.6724 7.53887 21.6625 7.35756 21.6616 7.17609V3.28453C21.6616 2.44406 21.8622 1.55953 22.2864 1.18922C22.1571 1.07531 22.0066 1.00594 21.8332 1.00594C21.6241 1.00594 21.4478 1.11047 21.3002 1.27359ZM8.16862 9.27609H7.833L12.5205 13.9636H13.4261L8.70581 9.24328C8.52732 9.26367 8.34781 9.274 8.16815 9.27422M10.1505 1.92375C10.3249 2.20078 10.5494 2.48484 10.8152 2.74969L13.5667 5.50125C13.6994 5.63391 13.8367 5.74969 13.9717 5.86125V11.4502L14.8778 12.3558V5.86078C14.7363 5.74831 14.6011 5.62813 14.4728 5.50078L11.7203 2.74922C11.3257 2.35547 11.0102 1.92047 10.8339 1.52578C10.5325 0.857344 10.7275 0.518906 10.871 0.375937C10.9039 0.344875 10.9397 0.316943 10.9778 0.2925C10.7997 0.224531 10.6291 0.180469 10.48 0.180469C10.2166 0.180469 10.0553 0.287344 9.96534 0.375937C9.85847 0.483281 9.72253 0.699375 9.78862 1.08328C9.95034 1.29516 10.0699 1.58812 10.1505 1.92375ZM23.2277 20.7047C23.4067 20.6873 23.5872 20.6747 23.7658 20.6747H23.1958L23.2277 20.7047ZM23.2127 9.26016L23.1907 9.28406H24.0274C23.7658 9.28406 23.5019 9.26437 23.2497 9.225L23.2361 9.23812C23.2277 9.24516 23.2197 9.25453 23.2127 9.26016ZM24.2341 13.965H25.1392C25.2513 13.8286 25.3699 13.6917 25.5007 13.56L28.2522 10.8084C28.7046 10.3561 29.1892 10.0336 29.6121 9.87516C29.4908 9.79928 29.35 9.76051 29.2071 9.76359C28.7046 9.76359 27.9925 10.1648 27.348 10.8084L24.5969 13.56C24.4638 13.6912 24.3457 13.8286 24.2341 13.965ZM28.4299 19.4723L25.6792 16.7217C25.4957 16.5374 25.3262 16.3397 25.1721 16.1302H24.2655C24.4183 16.3355 24.5908 16.5361 24.7746 16.7217L27.5247 19.4723C28.1692 20.1164 28.8822 20.5172 29.3847 20.5172C29.5666 20.5172 29.696 20.4666 29.7916 20.4052C29.366 20.2481 28.8832 19.9256 28.4299 19.4723ZM8.68144 20.7328L8.69128 20.722L8.71753 20.6948L13.2832 16.1311H12.3775L7.8344 20.6737H7.90284C8.163 20.6737 8.42831 20.6939 8.68144 20.7328ZM23.8183 5.59453L24.2271 5.18578C24.6794 4.7325 25.1641 4.40906 25.5878 4.25156C25.4665 4.17513 25.3253 4.13602 25.1819 4.13906C24.805 4.13906 24.3114 4.36547 23.8183 4.74703V5.59453ZM1.39097 20.2219C1.35243 20.1974 1.31619 20.1695 1.28269 20.1384C0.758155 19.6139 1.35675 18.5405 2.13206 17.7647L3.76565 16.132H3.18769C2.08894 16.132 0.90628 15.7936 0.90628 15.053C0.90628 15.052 0.909092 15.0502 0.909092 15.0492C0.909092 15.0483 0.90628 15.0464 0.90628 15.0455C0.90628 14.3048 2.08894 13.9664 3.18675 13.9664H3.77175L1.95394 12.1477C1.17534 11.3719 0.579093 10.298 1.10316 9.77531C1.13081 9.74766 1.16878 9.71953 1.21144 9.69094C1.03284 9.62438 0.862217 9.57984 0.711749 9.57984C0.449249 9.57984 0.287061 9.68672 0.198467 9.77531C-0.325595 10.298 0.270655 11.3719 1.04784 12.1477L2.86659 13.9664H2.28112C1.18284 13.9664 0.00159249 14.3048 0.00159249 15.0455L0.00346749 15.0492L0.00159249 15.053C0.00159249 15.7936 1.18425 16.132 2.28206 16.132H2.8605L1.22784 17.7647C0.451124 18.5405 -0.145126 19.6139 0.377999 20.1384C0.467061 20.227 0.628311 20.333 0.892686 20.333C1.04175 20.333 1.21237 20.2875 1.39097 20.2219ZM14.8778 27.8156V27.2306L13.983 28.1236C14.0416 29.1239 14.3791 30.0952 15.0499 30.0952V30.0942L15.0536 30.0952C15.2242 30.0952 15.3728 30.0258 15.5022 29.9142C15.0738 29.5453 14.8732 28.6594 14.8732 27.8156M10.6844 29.8988C10.1617 29.3756 10.7575 28.3022 11.5342 27.5245L14.2858 24.7744C14.4794 24.5803 14.6777 24.4172 14.8774 24.2728V17.5941L13.9713 18.5002V24.2714C13.773 24.4163 13.5728 24.5789 13.3797 24.773L10.6291 27.5231C9.85144 28.3008 9.25425 29.3742 9.77925 29.8973C9.86831 29.9869 10.0305 30.0937 10.2939 30.0937C10.443 30.0937 10.6146 30.0483 10.7917 29.9808C10.7532 29.957 10.7172 29.9292 10.6844 29.8978M18.6738 28.8703L17.0416 27.2381V27.8152C17.0416 27.9202 17.035 28.0256 17.0308 28.1306L17.7686 28.8703C18.4127 29.5144 19.1261 29.9152 19.6291 29.9152C19.81 29.9152 19.9408 29.8645 20.035 29.8031C19.6113 29.6452 19.1261 29.3236 18.6738 28.8703ZM21.6611 26.925V23.0344C21.6611 22.7747 21.6817 22.5094 21.7216 22.2577L21.7057 22.2427C21.6991 22.2352 21.6921 22.2291 21.6855 22.2225L17.0421 17.5781V18.4828L20.7808 22.223C20.7864 22.2295 20.7939 22.2356 20.8005 22.2431L20.816 22.2581C20.7767 22.5152 20.7569 22.7748 20.7569 23.0348V26.9255C20.7569 27.4336 20.8328 27.9534 20.9847 28.3734C21.0199 28.4395 21.0578 28.5052 21.086 28.5684C21.1136 28.6294 21.1324 28.6833 21.1516 28.7386C21.3213 29.0222 21.5467 29.205 21.835 29.205C22.0085 29.205 22.1585 29.1356 22.2874 29.0212C21.8617 28.6514 21.6611 27.7659 21.6611 26.925ZM24.2303 24.7678L23.8178 24.3548V25.2033C24.3138 25.5872 24.8069 25.8145 25.1852 25.8145C25.3661 25.8145 25.4964 25.763 25.5902 25.7016C25.1664 25.5445 24.6827 25.2211 24.2303 24.7678ZM3.36956 9.27609H4.27331C3.17644 9.27609 1.99565 8.94047 1.99378 8.19984C1.99378 7.45875 3.17644 7.12172 4.27331 7.12172H3.36956C2.27081 7.12172 1.09003 7.45922 1.09003 8.19984C1.09003 8.94047 2.27081 9.27609 3.36956 9.27609ZM7.70362 5.17969L8.11706 5.59312V3.02062C8.11706 2.17969 8.31816 1.29422 8.74378 0.924375C8.613 0.810469 8.46394 0.741562 8.28956 0.741562C7.54987 0.741562 7.21237 1.92188 7.21237 3.02016V4.74328C7.3769 4.87266 7.54284 5.01844 7.70362 5.17969ZM8.1105 26.6705V24.3623L7.70128 24.7702C7.54545 24.9274 7.37947 25.0743 7.2044 25.2098V26.6705C7.2044 27.7692 7.5419 28.95 8.28347 28.95C8.39456 28.95 8.56331 28.9139 8.73394 28.7663C8.30878 28.3959 8.1105 27.5114 8.1105 26.6705ZM5.67675 7.12125H6.58144L6.17362 6.7125C5.55065 6.09047 5.05378 5.28187 5.14659 4.71469C5.14904 4.68663 5.1547 4.65895 5.16347 4.63219C5.17097 4.59797 5.18128 4.56375 5.19487 4.53047C5.23003 4.44984 5.27456 4.39031 5.31722 4.34578C5.32003 4.34297 5.32003 4.34531 5.32284 4.33828C5.32378 4.33641 5.32659 4.33547 5.32331 4.33266H5.32519C5.35284 4.30453 5.39081 4.27594 5.43347 4.24828C5.25347 4.18266 5.08284 4.13719 4.93472 4.13719C4.6694 4.13719 4.50815 4.24312 4.41909 4.33266H4.41815C4.41675 4.33594 4.41769 4.33641 4.41159 4.33828C4.40972 4.34109 4.40972 4.34344 4.40831 4.34578C4.35685 4.39957 4.31542 4.46211 4.28597 4.53047C4.27097 4.56375 4.26253 4.59797 4.25456 4.63219C4.24566 4.6575 4.2419 4.68516 4.23675 4.71516C4.14581 5.28234 4.64175 6.09094 5.26284 6.71297L5.67253 7.12125M1.73316 21.75C1.73316 21.0094 2.91441 20.6728 4.01269 20.6728H3.10706C2.00972 20.6728 0.826593 21.0094 0.826593 21.75C0.826593 22.4906 2.00925 22.8281 3.10706 22.8281H4.01269C2.91441 22.8281 1.73316 22.4906 1.73316 21.75ZM5.32659 25.6214L5.32565 25.6186C5.32472 25.6177 5.3219 25.6158 5.32519 25.6148C5.26705 25.5554 5.22104 25.4852 5.18972 25.4081C5.18878 25.4077 5.18925 25.3988 5.18409 25.3936C5.15323 25.3126 5.13627 25.2271 5.13394 25.1405V25.1377C5.1255 24.9642 5.163 24.7453 5.28769 24.4659C5.46487 24.0703 5.77987 23.6358 6.17409 23.2416L6.58753 22.8281H5.68284L5.2694 23.2416C4.87472 23.6358 4.56112 24.0708 4.383 24.4659C4.25691 24.7453 4.22175 24.9637 4.22925 25.1377V25.1405C4.23487 25.2403 4.25222 25.3242 4.27753 25.3936C4.28093 25.3979 4.28348 25.4028 4.28503 25.4081C4.323 25.5005 4.37409 25.5694 4.4205 25.6148C4.42237 25.6158 4.42237 25.6177 4.42425 25.6186C4.42612 25.6205 4.42612 25.6205 4.42612 25.6214C4.51566 25.71 4.67644 25.8159 4.94175 25.8159C5.08987 25.8159 5.2605 25.7714 5.4405 25.7048C5.40145 25.6805 5.36474 25.6525 5.33081 25.6214" fill="#1C679A"/>
</g>
<defs>
<clipPath id="clip0_2313_583">
<rect width="30" height="30" fill="white"/>
</clipPath>
</defs>
</svg>
