<svg width="28" height="28" viewBox="0 0 28 28" fill="none" xmlns="http://www.w3.org/2000/svg">
<g id="vuesax/linear/chart-square">
<g id="Group">
<path id="Vector" d="M11.7947 13.0078H8.70303C7.96803 13.0078 7.37305 13.6028 7.37305 14.3378V20.3111H11.7947V13.0078V13.0078Z" stroke="#292D32" stroke-width="1.5" stroke-miterlimit="10" stroke-linecap="round" stroke-linejoin="round"/>
<path id="Vector_2" d="M14.8875 7.69922H13.1142C12.3792 7.69922 11.7842 8.29424 11.7842 9.02924V20.2993H16.2059V9.02924C16.2059 8.29424 15.6225 7.69922 14.8875 7.69922Z" stroke="#292D32" stroke-width="1.5" stroke-miterlimit="10" stroke-linecap="round" stroke-linejoin="round"/>
<path id="Vector_3" d="M19.3055 14.9902H16.2139V20.2986H20.6355V16.3203C20.6239 15.5853 20.0289 14.9902 19.3055 14.9902Z" stroke="#292D32" stroke-width="1.5" stroke-miterlimit="10" stroke-linecap="round" stroke-linejoin="round"/>
</g>
<path id="Vector_4" d="M10.4997 25.6673H17.4997C23.333 25.6673 25.6663 23.334 25.6663 17.5007V10.5007C25.6663 4.66732 23.333 2.33398 17.4997 2.33398H10.4997C4.66634 2.33398 2.33301 4.66732 2.33301 10.5007V17.5007C2.33301 23.334 4.66634 25.6673 10.4997 25.6673Z" stroke="#292D32" stroke-width="1.5" stroke-linecap="round" stroke-linejoin="round"/>
</g>
</svg>
