<svg width="28" height="28" viewBox="0 0 28 28" fill="none" xmlns="http://www.w3.org/2000/svg">
<g id="material-symbols:query-stats">
<path id="Vector" d="M3.06283 21.2048L1.16699 19.834L7.00033 10.5007L10.5003 14.584L15.167 7.00065L18.3462 11.7548C17.8989 11.7743 17.4758 11.8279 17.0768 11.9158C16.6778 12.0037 16.2843 12.125 15.8962 12.2798L15.2545 11.3173L10.8212 18.5215L7.29199 14.409L3.06283 21.2048ZM25.1712 26.834L21.5253 23.1882C21.1364 23.4604 20.7036 23.6645 20.2268 23.8006C19.75 23.9368 19.2593 24.0048 18.7545 24.0048C17.2962 24.0048 16.0564 23.4942 15.0352 22.473C14.0139 21.4518 13.5037 20.2124 13.5045 18.7548C13.5045 17.2965 14.0151 16.0567 15.0363 15.0355C16.0575 14.0143 17.2969 13.504 18.7545 13.5048C20.2128 13.5048 21.4526 14.0154 22.4738 15.0366C23.495 16.0579 24.0053 17.2973 24.0045 18.7548C24.0045 19.2604 23.9364 19.7515 23.8003 20.2283C23.6642 20.7051 23.46 21.1473 23.1878 21.5548L26.8337 25.1715L25.1712 26.834ZM18.7545 21.6715C19.5712 21.6715 20.2614 21.3895 20.8253 20.8257C21.3892 20.2618 21.6712 19.5715 21.6712 18.7548C21.6712 17.9382 21.3892 17.2479 20.8253 16.684C20.2614 16.1201 19.5712 15.8382 18.7545 15.8382C17.9378 15.8382 17.2475 16.1201 16.6837 16.684C16.1198 17.2479 15.8378 17.9382 15.8378 18.7548C15.8378 19.5715 16.1198 20.2618 16.6837 20.8257C17.2475 21.3895 17.9378 21.6715 18.7545 21.6715ZM21.3503 12.3382C20.9809 12.1826 20.5967 12.0562 20.1977 11.959C19.7987 11.8618 19.3857 11.8034 18.9587 11.784L24.9378 2.33398L26.8337 3.70482L21.3503 12.3382Z" fill="black"/>
</g>
</svg>
