<svg width="28" height="28" viewBox="0 0 28 28" fill="none" xmlns="http://www.w3.org/2000/svg">
<g id="vuesax/linear/personalcard">
<g id="personalcard">
<path id="Vector" d="M19.8335 24.5H8.16683C3.50016 24.5 2.3335 23.3333 2.3335 18.6667V9.33333C2.3335 4.66667 3.50016 3.5 8.16683 3.5H19.8335C24.5002 3.5 25.6668 4.66667 25.6668 9.33333V18.6667C25.6668 23.3333 24.5002 24.5 19.8335 24.5Z" stroke="#446CFF" stroke-width="1.75" stroke-linecap="round" stroke-linejoin="round"/>
<path id="Vector_2" d="M16.3335 9.33398H22.1668" stroke="#446CFF" stroke-width="1.75" stroke-linecap="round" stroke-linejoin="round"/>
<path id="Vector_3" d="M17.5 14H22.1667" stroke="#446CFF" stroke-width="1.75" stroke-linecap="round" stroke-linejoin="round"/>
<path id="Vector_4" d="M19.8335 18.666H22.1668" stroke="#446CFF" stroke-width="1.75" stroke-linecap="round" stroke-linejoin="round"/>
<path id="Vector_5" d="M9.91733 13.1726C11.0836 13.1726 12.029 12.2271 12.029 11.0609C12.029 9.89464 11.0836 8.94922 9.91733 8.94922C8.75109 8.94922 7.80566 9.89464 7.80566 11.0609C7.80566 12.2271 8.75109 13.1726 9.91733 13.1726Z" stroke="#446CFF" stroke-width="1.75" stroke-linecap="round" stroke-linejoin="round"/>
<path id="Vector_6" d="M14.0002 19.0511C13.8368 17.3594 12.4952 16.0294 10.8035 15.8777C10.2202 15.8194 9.62516 15.8194 9.03016 15.8777C7.3385 16.0411 5.99683 17.3594 5.8335 19.0511" stroke="#446CFF" stroke-width="1.75" stroke-linecap="round" stroke-linejoin="round"/>
</g>
</g>
</svg>
