<svg width="30" height="30" viewBox="0 0 30 30" fill="none" xmlns="http://www.w3.org/2000/svg">
<g id="logos:mysql-icon" clip-path="url(#clip0_2313_573)">
<path id="Vector" d="M27.615 22.9936C25.9839 22.9529 24.7198 23.116 23.6596 23.5645C23.3538 23.6867 22.8644 23.6869 22.8236 24.0743C22.9867 24.2374 23.0071 24.5025 23.1499 24.7267C23.3948 25.1344 23.8226 25.6849 24.2101 25.9705C24.6382 26.2966 25.0665 26.6228 25.5148 26.9082C26.3101 27.3976 27.2073 27.683 27.982 28.1723C28.4307 28.4576 28.8789 28.8248 29.3275 29.1306C29.5518 29.2935 29.6944 29.5588 29.98 29.6606V29.5996C29.8372 29.4159 29.7964 29.151 29.6538 28.9471C29.4501 28.7432 29.246 28.5596 29.0421 28.3557C28.4509 27.5607 27.7169 26.8675 26.9218 26.2966C26.2694 25.848 24.8421 25.2364 24.5771 24.482C24.5771 24.482 24.5566 24.4617 24.5363 24.4413C24.9848 24.4005 25.5148 24.2374 25.9432 24.1151C26.6363 23.9314 27.2683 23.9723 27.982 23.7888C28.3081 23.7073 28.6344 23.6053 28.9605 23.5033V23.32C28.5937 22.9529 28.3286 22.4637 27.9412 22.117C26.9014 21.2197 25.7595 20.3432 24.5771 19.6092C23.945 19.2014 23.1294 18.9363 22.4566 18.5898C22.2121 18.4673 21.8042 18.4063 21.6616 18.2024C21.2944 17.7539 21.0905 17.1627 20.8256 16.6325C20.2345 15.511 19.6634 14.2675 19.1537 13.085C18.7869 12.2898 18.5626 11.4946 18.114 10.7607C16.014 7.29468 13.7305 5.19468 10.2237 3.13534C9.46929 2.70726 8.57222 2.52374 7.61398 2.29956C7.10444 2.27905 6.59456 2.23839 6.08491 2.21788C5.75866 2.07515 5.43241 1.68784 5.14694 1.50433C3.98503 0.770264 0.987726 -0.819853 0.131437 1.28015C-0.41911 2.6053 0.947062 3.91007 1.41581 4.58308C1.76269 5.05194 2.21105 5.58198 2.45573 6.11214C2.59847 6.45855 2.63913 6.82581 2.78187 7.19272C3.10823 8.08956 3.41386 9.08882 3.84218 9.92484C4.06648 10.3529 4.31105 10.8014 4.59651 11.1888C4.75964 11.413 5.04499 11.5151 5.10628 11.882C4.82093 12.2898 4.80042 12.9015 4.63718 13.4112C3.90323 15.7151 4.18882 18.5694 5.22851 20.2616C5.55464 20.7711 6.32948 21.8928 7.36929 21.4645C8.28687 21.0976 8.08296 19.9355 8.3478 18.916C8.40921 18.6711 8.36843 18.5082 8.49065 18.3451V18.386C8.77612 18.9567 9.06147 19.5074 9.32655 20.0782C9.95866 21.0771 11.0595 22.117 11.977 22.8103C12.4665 23.1771 12.8538 23.8092 13.4655 24.0335V23.9722H13.4246C13.3023 23.7887 13.1187 23.7073 12.9557 23.5644C12.5888 23.1976 12.1809 22.749 11.8955 22.3412C11.0394 21.1993 10.2848 19.9353 9.61202 18.6305C9.28589 17.9986 9.0003 17.3053 8.73534 16.6733C8.61288 16.4284 8.61288 16.0616 8.40909 15.9394C8.10323 16.3878 7.65476 16.7753 7.43046 17.3257C7.04327 18.2024 7.00237 19.283 6.85964 20.4042C6.77808 20.4248 6.81874 20.4042 6.77796 20.4452C6.12569 20.2819 5.9014 19.6092 5.65659 19.0383C5.04487 17.5908 4.94292 15.2665 5.47319 13.5947C5.61593 13.1665 6.22765 11.8209 5.98296 11.4131C5.86062 11.0257 5.45269 10.8014 5.22851 10.4957C4.96355 10.1082 4.67796 9.61909 4.49456 9.19077C4.00519 8.04901 3.7605 6.78491 3.23046 5.64315C2.98577 5.113 2.5578 4.56269 2.21105 4.07331C1.82374 3.52288 1.39554 3.13534 1.08968 2.48296C0.987843 2.25878 0.844991 1.89175 1.00812 1.64706C1.0489 1.48394 1.13034 1.42288 1.29358 1.3821C1.55866 1.15769 2.31312 1.44315 2.57796 1.5655C3.33241 1.87112 3.96441 2.15683 4.59651 2.58491C4.88187 2.78882 5.18773 3.17624 5.55464 3.27819H5.98284C6.63534 3.42081 7.36917 3.31897 7.98089 3.50237C9.06159 3.8489 10.0401 4.35866 10.9169 4.90921C13.5878 6.6014 15.7896 9.00726 17.2781 11.882C17.5228 12.3507 17.6246 12.7792 17.8489 13.2683C18.2772 14.2675 18.8073 15.2869 19.2352 16.2655C19.6634 17.2236 20.0711 18.2024 20.6828 18.9976C20.9887 19.4256 22.2119 19.65 22.7625 19.8743C23.1703 20.0577 23.8024 20.2209 24.1693 20.4451C24.8625 20.8731 25.5556 21.3627 26.2081 21.8314C26.5344 22.0761 27.5537 22.5859 27.615 22.9936Z" fill="#00546B"/>
<path id="Vector_2" d="M6.81869 5.27637C6.47217 5.27637 6.2276 5.31738 5.98291 5.37844V5.41922H6.02369C6.18693 5.74547 6.47217 5.96977 6.67596 6.25512C6.8392 6.58125 6.98182 6.90762 7.14506 7.23387C7.16533 7.21336 7.18572 7.19309 7.18572 7.19309C7.47131 6.98906 7.61393 6.66293 7.61393 6.17355C7.49158 6.03094 7.47119 5.8882 7.36924 5.74547C7.24701 5.54145 6.98182 5.43961 6.81869 5.27637Z" fill="#00546B"/>
</g>
<defs>
<clipPath id="clip0_2313_573">
<rect width="30" height="29.5312" fill="white" transform="translate(0 0.234375)"/>
</clipPath>
</defs>
</svg>
