<svg width="1163" height="1080" viewBox="0 0 1163 1080" fill="none" xmlns="http://www.w3.org/2000/svg">
<g opacity="0.5">
<path d="M23.774 -318.147L40.7571 -318.147C77.4802 -245.797 109.918 -171.308 137.9 -95.072C168.47 -13.3923 191.567 70.3466 214.664 153.399C224.854 189.778 235.723 225.47 249.309 261.162C264.331 302.748 291.894 338.52 328.111 363.433C356.012 383.026 386.403 398.726 418.461 410.107C459.22 425.207 502.017 436.876 544.135 449.231C597.802 465.018 652.148 480.805 707.173 492.473C762.198 504.142 809.75 513.751 860.02 525.42C906.636 535.483 952.147 550.198 995.885 569.348C1029.52 581.532 1059.59 602.059 1083.33 629.043C1107.07 656.027 1123.72 688.605 1131.75 723.785C1138.28 755.596 1140.79 788.116 1139.22 820.565C1139.22 878.908 1133.79 937.25 1131.07 995.593C1126.75 1088.72 1133.36 1182.03 1150.77 1273.58L1156.88 1307.21L1156.88 1381.34L1147.37 1353.2C1122.01 1263.86 1108.31 1171.57 1106.61 1078.65C1106.61 1019.62 1106.61 960.588 1106.61 902.245C1107.99 858.679 1105.95 815.071 1100.5 771.832C1096.32 737.983 1084.96 705.442 1067.21 676.424C1041.19 637.822 1005.58 606.813 963.957 586.508C921.726 566.597 877.559 551.185 832.168 540.52C781.898 528.165 730.949 517.869 681.358 504.828C609.35 486.296 537.342 466.391 466.013 447.172C427.23 436.905 389.299 423.594 352.566 407.361C303.815 386.668 263.873 349.228 239.799 301.658C231.878 285.613 225.508 268.834 220.778 251.552C207.191 200.302 194.284 148.823 182.056 97.1157C157.566 -4.6158 123.912 -103.869 81.5165 -199.403C63.1748 -239.899 42.795 -279.023 23.774 -318.147Z" fill="#0058D4"/>
<path d="M2.03589 -290.003L2.03589 -316.085C2.03589 -316.085 2.03589 -316.085 5.4325 -316.085L5.43249 -311.967C61.5544 -209.942 105.779 -101.685 137.221 10.6335C157.601 79.2719 171.866 153.401 186.812 225.472C193.598 256.959 203.851 287.579 217.381 316.761C239.249 362.637 276.58 399.139 322.676 419.719C347.385 431.566 373.071 441.212 399.44 448.547C440.199 460.215 481.638 471.197 523.076 482.18L703.776 529.54C745.215 540.522 786.654 550.132 826.734 561.114C868.703 572.438 909.098 589.041 946.974 610.534C977.421 625.618 1004.29 647.163 1025.74 673.697C1047.2 700.231 1062.73 731.13 1071.29 764.284C1077.08 786.787 1080.94 809.751 1082.84 832.922C1082.84 878.224 1086.91 923.525 1087.59 970.199C1087.72 1053.04 1092.94 1135.8 1103.22 1217.98C1111.68 1279.35 1125.78 1339.78 1145.34 1398.5L1122.92 1398.5L1122.92 1392.33C1097.9 1308.78 1082.18 1222.68 1076.04 1135.62C1071.29 1073.84 1068.57 1012.75 1065.18 950.98C1064.24 906.781 1059.93 862.721 1052.27 819.194C1045.99 785.367 1034.04 752.87 1016.94 723.101C989.259 680.306 950.809 645.72 905.535 622.888C862.688 599.434 817.022 581.67 769.67 570.037C713.966 554.936 658.941 540.522 603.236 526.108C547.532 511.694 475.524 493.848 411.667 477.375C371.879 468.43 332.992 455.792 295.503 439.624C251.51 420.71 215.791 386.327 194.964 342.844C183.981 317.152 176.222 290.174 171.867 262.537C162.356 208.312 154.204 153.401 144.014 99.1771C117.578 -34.9732 71.8026 -164.478 8.14978 -285.198L2.03589 -290.003Z" fill="#0058D4"/>
<path d="M2.03821 -228.917L2.03821 -261.177L2.03821 -256.372C30.2677 -201.369 54.7793 -144.498 75.405 -86.1487C110.721 18.7281 133.527 127.488 143.337 237.825C145.504 269.609 150.737 301.103 158.962 331.86C165.384 357.031 177.213 380.465 193.607 400.498C217.507 428.023 247.876 449.03 281.919 461.586C318.435 475.854 356.187 486.654 394.687 493.846C508.133 517.183 618.184 548.757 728.913 579.644C776.269 592.217 821.904 610.661 864.778 634.555C910.304 656.193 950.112 688.417 980.942 728.59C999.385 756.223 1012.95 786.878 1021.02 819.193C1032.35 866.056 1039.62 913.825 1042.76 961.961C1048.19 1030.6 1052.27 1099.24 1059.06 1167.88C1065.11 1225.7 1075.1 1283.04 1088.95 1339.47L1103.9 1397.81L1082.84 1397.81C1060.32 1309.79 1045.1 1220.02 1037.33 1129.44L1018.98 942.742C1015.12 903.562 1007.15 864.908 995.208 827.429C979.6 775.49 949.104 729.391 907.575 694.957C865.731 659.851 817.827 632.857 766.276 615.336C685.437 587.195 602.559 564.544 518.323 546.698C468.733 534.343 417.104 526.106 366.834 515.124C329.373 508.214 292.558 498.111 256.784 484.923C231.536 476.81 208.475 462.931 189.391 444.363C170.306 425.794 155.71 403.034 146.734 377.847C138.039 349.745 132.568 320.727 130.43 291.363C130.43 253.612 125.675 215.86 122.278 178.796C109.825 52.4588 76.7712 -70.9259 24.4558 -186.361L2.03821 -228.917Z" fill="#0058D4"/>
<path d="M1061.1 1397.82L1039.36 1397.82L1039.36 1393.7C1024.47 1328.22 1012.9 1262.01 1004.72 1195.33C996.564 1126.7 988.413 1062.18 978.902 994.91C973.472 951.016 963.686 907.785 949.691 865.87C933.434 818.711 907.028 775.783 872.375 740.176C837.722 704.569 795.685 677.171 749.291 659.955C713.516 644.845 677.013 631.559 639.92 620.144C579.481 599.726 517.749 583.445 455.144 571.411C402.836 562.488 350.528 554.938 298.221 546.015C262.009 541.721 226.292 533.906 191.567 522.678C155.956 511.293 125.887 486.792 107.331 454.039C100.03 440.73 94.7629 426.383 91.7065 411.483C85.1215 378.984 82.6109 345.777 84.2339 312.644C84.2339 265.283 87.6305 217.923 84.2339 170.562C77.9603 57.1908 51.736 -54.1433 6.79114 -158.216C6.79114 -158.216 6.79114 -158.216 6.79114 -161.648L6.79114 -198.712L6.79114 -194.594L28.5295 -145.174C62.0532 -62.9293 84.8874 23.3585 96.4617 111.533C103.578 163.613 106.983 216.143 106.652 268.715C106.415 304.86 109.599 340.945 116.162 376.478C120.973 401.434 131.436 424.927 146.732 445.116C169.389 471.715 199.081 491.239 232.326 501.4C267.953 513.649 304.54 522.834 341.697 528.855C390.608 537.778 440.199 546.701 489.11 556.311C552.287 569.352 612.747 588.571 673.886 607.103C711.922 618.484 749.144 632.473 785.295 648.972C828.834 665.942 868.143 692.388 900.429 726.434C932.715 760.479 957.187 801.289 972.109 845.965C984.501 884.334 992.925 923.899 997.244 964.023L1021.02 1179.55C1027.72 1239.5 1037.47 1299.07 1050.23 1358.01L1061.1 1397.82Z" fill="#0058D4"/>
<path d="M1021.02 1397.82L998.605 1397.82L998.605 1393.7L963.96 1165.82C955.128 1109.53 946.976 1053.94 936.787 998.341C929.473 956.352 917.392 915.356 900.783 876.164C866.337 796.428 803.206 732.886 724.159 698.391C689.81 682.381 654.665 668.176 618.864 655.835C562.858 635.215 505.101 619.821 446.316 609.847C393.328 600.924 338.983 595.433 285.316 590.628C244.557 586.51 203.797 583.078 163.717 575.528C142.445 571.591 121.538 565.851 101.22 558.368C84.5459 552.952 69.5353 543.286 57.6361 530.301C45.7369 517.316 37.3509 501.452 33.2873 484.239C30.6584 472.275 29.0672 460.103 28.5321 447.86C28.4089 405.973 32.0468 364.161 39.4013 322.938C45.6064 279.943 49.4617 236.635 50.9498 193.212C52.1813 111.975 41.4203 31.0071 19.0217 -47.0231L7.47314 -81.3423L7.47314 -126.644L7.47314 -122.525C15.6251 -97.1291 25.1356 -73.1057 32.6082 -47.7095C62.8921 55.0296 74.1762 162.528 65.8949 269.4C62.4983 309.211 60.4604 348.334 59.1017 388.145C59.3354 410.544 63.0019 432.772 69.9709 454.038C75.8182 473.145 86.073 490.575 99.891 504.895C113.709 519.215 130.695 530.014 149.452 536.404C174.504 545.763 200.461 552.434 226.894 556.309C273.768 563.859 320.641 570.037 367.514 576.214C449.185 585.519 529.74 602.993 607.994 628.379C655.565 643.657 702.28 661.529 747.935 681.917C810.127 710.265 862.608 756.603 898.745 815.076C919.396 850.823 934.732 889.445 944.259 929.702C957.693 989.533 968.123 1050.01 975.508 1110.91L1009.47 1346.34C1012.19 1362.12 1016.95 1379.97 1021.02 1397.82Z" fill="#0058D4"/>
<path d="M1156.88 679.17C1147.37 650.156 1131.58 623.646 1110.67 601.564C1089.75 579.482 1064.23 562.381 1035.96 551.502C997.4 535.245 957.357 522.831 916.404 514.438C859.794 502.083 802.731 490.414 745.215 479.432C680.509 466.522 616.556 450.024 553.646 430.012C511.528 416.971 469.41 405.302 429.33 388.829C396.371 376.128 365.464 358.547 337.621 336.664C307.389 310.591 284.045 277.334 269.689 239.884C252.646 197.485 237.906 154.178 225.533 110.157C197.681 19.5542 169.149 -70.3622 132.466 -158.906C110.728 -211.071 86.9513 -262.55 61.137 -314.029L61.137 -318.147L78.1201 -318.147L78.1201 -314.715C95.7825 -276.278 114.124 -238.526 131.107 -200.089C171.187 -108.8 203.795 -15.4514 235.044 78.5832C250.09 126.674 267.78 173.879 288.031 219.979C300.308 247.747 317.066 273.262 337.621 295.481C368.747 327.233 405.965 352.225 446.992 368.924C482.996 384.711 521.038 396.379 559.08 408.734C616.727 427.559 675.492 442.689 735.025 454.036C797.523 465.018 860.7 476 923.197 487.669C967.97 496.811 1012.2 508.498 1055.67 522.674C1093.39 534.362 1128 554.545 1156.88 581.703L1156.88 679.17Z" fill="#0058D4"/>
<path d="M2.03674 546.014L8.15063 552.877C18.3641 563.986 30.8942 572.66 44.834 578.274C72.3857 589.424 101.497 596.14 131.108 598.179C175.943 602.984 220.099 607.102 266.973 609.847C322.677 613.966 379.061 618.77 434.765 626.321C495.839 636.895 555.697 653.682 613.427 676.427C648.254 688.942 682.284 703.612 715.326 720.355C785.493 755.15 841.637 813.332 874.287 885.088C894.758 927.374 909.824 972.119 919.122 1018.25C929.991 1076.59 939.502 1135.62 948.333 1193.96L978.223 1393.01L978.223 1397.82L957.164 1397.82L957.164 1393.7L937.464 1256.42C927.274 1187.78 917.764 1112.28 902.139 1040.21C892.756 992.957 878.173 946.913 858.663 902.934C826.886 833.089 772.822 776.046 705.136 740.947C639.432 705.355 569.606 678.149 497.263 659.954C437.358 645.263 376.131 636.754 314.525 634.557C254.745 634.557 194.964 629.753 135.184 627.693C90.3522 627.557 45.6819 622.26 2.03674 611.907L2.03674 546.014Z" fill="#0058D4"/>
<path d="M1156.88 487.669L1156.88 531.597C1144.66 525.42 1133.11 519.242 1120.88 514.438C1088.63 501.811 1055.16 492.609 1021.02 486.982C953.087 475.314 885.155 463.645 817.223 452.663C736.025 441.769 655.983 423.389 578.101 397.752C538.701 383.338 498.621 370.983 461.258 354.51C419.799 337.173 381.989 312.015 349.849 280.38C328.069 256.233 309.98 228.934 296.183 199.387C273.975 152.84 254.69 104.927 238.44 55.9326C200.398 -49.7706 161.677 -154.788 114.124 -257.745L85.5925 -318.147L103.934 -318.147L103.934 -313.342C121.597 -273.532 141.297 -233.722 157.601 -193.225L256.103 55.2462C273.932 102.122 294.343 147.952 317.242 192.523C353.938 260.277 413.116 312.777 484.355 340.782C512.207 352.451 540.059 362.746 568.591 373.042C617.789 391.919 668.462 406.613 720.08 416.971C788.012 430.699 863.417 439.622 934.746 449.231C1009.74 455.661 1084.05 468.52 1156.88 487.669Z" fill="#0058D4"/>
<path d="M936.783 1397.81L915.724 1397.81L902.817 1286.62C894.341 1213.04 882.097 1139.96 866.133 1067.66C856.314 1020.36 841.275 974.309 821.298 930.387C798.589 882.885 765.347 841.312 724.155 808.897C693.469 784.307 659.653 763.991 623.615 748.495C570.025 723.082 513.726 703.967 455.822 691.525C400.667 681.445 344.758 676.164 288.709 675.738C213.984 675.738 139.258 675.738 65.2119 681.229L5.4314 681.229L5.4314 647.597C44.1528 647.597 82.8743 647.597 121.596 651.029C189.528 651.029 257.46 651.029 325.393 651.029C376.706 654.981 427.605 663.246 477.561 675.738C539.629 691.156 599.955 713.008 657.581 740.945C712.849 765.035 761.552 802.236 799.56 849.394C827.466 886.869 848.832 928.885 862.737 973.629C882.685 1035.8 897.01 1099.66 905.534 1164.44C915.724 1233.08 923.876 1301.72 933.386 1366.93L936.783 1397.81Z" fill="#0058D4"/>
<path d="M2.03729 736.827L2.03729 710.058C36.6827 710.058 69.9697 703.88 106.653 701.135C184.794 693.983 263.335 692.377 341.699 696.33C394.34 698.3 446.563 706.595 497.264 721.04C544.076 735.799 589.535 754.631 633.128 777.323C686.755 802.563 733.586 840.465 769.672 887.831C794.373 923.224 813.826 962.071 827.414 1003.14C850.324 1071.29 866.036 1141.69 874.288 1213.18C881.081 1260.54 885.836 1307.21 891.271 1354.57L895.347 1397.82L872.929 1397.82L872.929 1380.66C867.718 1293.24 856.367 1206.31 838.963 1120.52C828.384 1067.94 811.74 1016.8 789.372 968.138C766.39 918.107 732.202 874.163 689.512 839.785C655.217 812.143 617.545 789.074 577.424 771.146C515.392 742.248 449.054 723.925 381.099 716.922C320.947 712.461 260.552 712.461 200.4 716.922C137.902 720.354 69.9696 728.59 2.03729 736.827Z" fill="#0058D4"/>
<path d="M1156.88 425.21L1156.88 454.038C1120.2 448.547 1083.52 442.369 1046.15 438.251C967.353 428.642 888.552 420.405 809.75 410.796C702.432 397.185 597.899 366.611 499.979 320.193C451.174 299.243 407.901 267.039 373.625 226.158C351.833 197.971 332.941 167.613 317.241 135.555C290.748 83.3901 269.689 29.1658 249.309 -24.3722C209.908 -123.212 169.149 -222.051 124.314 -319.518L137.9 -319.518L137.9 -314.713L186.132 -203.519C220.777 -121.839 254.064 -39.4727 290.068 42.2071C308.919 86.9334 331.652 129.886 358.001 170.561C394.078 226.53 444.894 271.218 504.734 299.601C525.793 309.897 546.852 318.82 567.911 327.743C648.983 363.276 734.84 386.409 822.657 396.382C890.59 404.618 964.636 410.796 1035.29 415.6C1080.12 417.659 1120.2 421.778 1156.88 425.21Z" fill="#0058D4"/>
<path d="M2.03845 782.817L2.03845 759.48C19.7009 759.48 36.684 753.302 54.3464 751.243C134.795 738.539 216.119 732.342 297.544 732.711C343.127 732.937 388.598 737.302 433.408 745.752C505.717 760.874 574.747 789.005 637.205 828.805C677.074 853.283 711.343 886.036 737.745 924.899C756.793 952.673 772.526 982.624 784.618 1014.13C807.566 1075.52 823.741 1139.28 832.85 1204.26C842.731 1268.36 848.855 1332.99 851.192 1397.82L827.416 1397.82C827.194 1316.17 818.773 1234.76 802.281 1154.84C792.714 1104.06 777.443 1054.55 756.766 1007.26C737.99 962.396 710.502 921.785 675.927 887.834C618.769 836.388 551.017 798.409 477.564 776.639C423.578 760.313 367.482 752.216 311.13 752.616C250.479 751.458 189.831 755.13 129.751 763.598C86.2744 769.089 46.1945 775.953 2.03845 782.817Z" fill="#0058D4"/>
<path d="M1156.88 375.103L1156.88 399.813L1148.05 399.813L1070.61 395.695C995.885 392.263 920.48 388.831 846.434 380.594C794.449 375.523 742.907 366.575 692.228 353.825C638.237 338.184 585.724 317.741 535.304 292.737C473.095 264.676 419.231 220.664 379.06 165.069C354.434 131.166 333.267 94.8312 315.883 56.6206C284.634 -12.0179 255.423 -80.6564 225.533 -149.295L151.487 -320.205L169.828 -320.205L190.208 -271.471L305.014 -9.95878C325.395 38.1711 350.425 84.1526 379.739 127.318C410.173 173.164 449.17 212.567 494.545 243.317C532.221 266.773 572.029 286.539 613.426 302.346C669.223 326.777 727.901 343.848 788.012 353.139C863.453 363.745 939.437 369.933 1015.59 371.671C1063.82 373.044 1112.05 373.73 1156.88 375.103Z" fill="#0058D4"/>
<path d="M2.03601 822.625L2.03601 802.033C74.8858 786.895 148.636 776.577 222.816 771.146C268.054 768.092 313.443 768.092 358.68 771.146C423.815 777.42 487.193 796.049 545.494 826.057C615.363 857.016 674.833 907.805 716.684 972.257C741.076 1013.68 759.814 1058.24 772.388 1104.73C797.991 1200.21 809.888 1298.91 807.713 1397.82L782.578 1397.82C785.983 1337.98 783.251 1277.94 774.426 1218.67C766.031 1157.77 749.817 1098.24 726.194 1041.58C691.168 957.567 626.88 889.436 545.494 850.08C505.696 828.42 463.198 812.26 419.14 802.033C356.278 789.799 292.08 786.106 228.25 791.051C156.072 795.915 84.3324 806.008 13.5845 821.252C9.82153 822.274 5.93109 822.737 2.03601 822.625Z" fill="#0058D4"/>
<path d="M1156.88 331.173L1156.88 353.823L1072.65 353.823C1004.72 353.823 933.387 353.823 864.096 345.587C816.999 341.217 770.247 333.649 724.156 322.936C683.629 311.595 644.095 296.903 605.954 279.007C522.491 245.336 450.18 188.457 397.401 114.962C367.393 71.5018 341.035 25.5829 318.6 -22.3153C274.444 -114.291 235.043 -208.326 195.643 -301.674L189.529 -318.147L205.832 -318.147L205.832 -312.656C229.609 -257.059 252.706 -200.775 273.765 -145.178C299.918 -84.0895 329.401 -24.5117 362.077 33.2819C387.46 78.2982 418.768 119.629 455.144 156.145C502.336 201.079 556.788 237.525 616.143 263.907C673.033 290.322 733.461 308.13 795.485 316.759C847.622 325.378 900.276 330.423 953.087 331.859C1021.02 331.859 1083.52 331.859 1148.73 331.859C1150.77 331.859 1156.88 331.173 1156.88 331.173Z" fill="#0058D4"/>
<path d="M759.482 1397.82L732.309 1397.82L735.706 1372.42C741.26 1312.36 738.286 1251.8 726.875 1192.59C717.568 1140.12 700.868 1089.27 677.284 1041.58C650.309 992.17 613.411 949 568.957 914.84C524.503 880.68 473.474 856.284 419.142 843.217C369.105 829.803 317.324 824.247 265.615 826.744C199.898 828.895 134.465 836.47 69.9698 849.394C48.9108 853.513 28.5311 857.631 7.4721 862.436L7.47211 841.844C9.9527 841.521 12.4641 841.521 14.9447 841.844C46.1935 835.667 78.1216 829.489 109.37 823.998C179.752 811.42 251.248 806.359 322.678 808.898C384.068 810.983 444.49 824.964 500.66 850.081C552.584 872.791 599.824 905.155 639.922 945.488C672.108 980.924 697.452 1022.13 714.647 1066.98C750.954 1162.76 766.924 1265.19 761.52 1367.61C761.52 1377.91 760.162 1387.52 759.482 1397.82Z" fill="#0058D4"/>
<path d="M501.338 1397.82L461.258 1397.82L477.562 1362.81C505.952 1316.98 518.163 1262.79 512.207 1209.06C495.224 1075.9 360.039 991.478 236.402 985.986C191.023 983.958 145.554 986.026 100.538 992.164C69.9685 996.282 36.6816 1003.15 2.03613 1007.26L2.03613 987.359C23.0952 983.241 44.8335 979.809 65.8925 976.377C119.924 966.671 174.733 962.076 229.609 962.649C280.24 961.255 330.494 971.822 376.37 993.509C422.247 1015.2 462.48 1047.41 493.866 1087.57C523.947 1124.82 542.555 1170.16 547.385 1217.99C552.215 1265.81 543.055 1314.02 521.039 1356.63C517.642 1370.36 509.49 1384.09 501.338 1397.82Z" fill="#0058D4"/>
<path d="M646.716 1397.82L613.429 1397.82C625.127 1373.48 633.36 1347.6 637.885 1320.94C645.483 1258.29 637.063 1194.73 613.429 1136.3C595.767 1088.27 567.685 1044.85 531.244 1009.22C494.803 973.586 450.928 946.65 402.839 930.388C359.385 913.903 313.39 905.305 266.974 904.992C215.776 904.042 164.603 907.949 114.127 916.66C77.4434 922.838 41.4393 929.702 4.75592 936.565L4.75592 918.033C19.701 914.601 34.6461 911.169 49.5912 908.424C115.11 894.519 181.716 886.48 248.633 884.4C294.345 882.12 340.137 886.747 384.497 898.128C478.581 920.854 560.063 980.014 611.391 1062.86C656.501 1140.53 676.231 1230.6 667.775 1320.25C664.316 1346.96 657.23 1373.06 646.716 1397.82Z" fill="#0058D4"/>
<path d="M577.425 1397.81L538.025 1397.81C576.906 1336.86 590.338 1262.83 575.387 1191.9C568.382 1155.44 554.338 1120.73 534.057 1089.76C513.775 1058.79 487.654 1032.15 457.185 1011.38C403.487 972.147 339.899 949.065 273.768 944.8C231.067 940.705 188.078 940.705 145.376 944.8C97.1444 949.605 49.5918 958.528 2.71856 967.451L2.71857 951.664C69.5546 936.594 137.477 926.954 205.836 922.836C250.099 919.274 294.633 921.581 338.304 929.7C418.007 946.257 489.828 989.556 542.101 1052.56C574.008 1092.29 595.502 1139.5 604.598 1189.84C620.988 1260.19 611.322 1334.17 577.425 1397.81Z" fill="#0058D4"/>
<path d="M2.03937 898.812L2.03937 878.907L79.4821 865.866C145.486 852.689 212.602 846.022 279.882 845.961C329.535 844.582 379.082 851.303 426.616 865.866C476.841 880.3 523.637 904.902 564.16 938.177C604.683 971.451 638.086 1012.7 662.341 1059.43C684.821 1106.78 700.381 1157.19 708.535 1209.06C717.367 1265.22 717.367 1322.44 708.535 1378.6L708.535 1399.87L677.965 1399.87L681.362 1371.73C690.647 1323.08 691.795 1273.2 684.759 1224.16C677.651 1167.58 660.628 1112.72 634.489 1062.17C609.607 1018.1 576.322 979.455 536.559 948.469C496.797 917.483 451.347 894.773 402.84 881.653C357.47 869.339 310.521 864.016 263.579 865.866C200.83 867.18 138.318 874.071 76.7649 886.458C52.9886 888.517 29.2123 894.008 2.03937 898.812Z" fill="#0058D4"/>
<path d="M1156.88 292.735L1156.88 312.64L1080.8 312.64C1015.61 315.86 950.294 315.401 885.155 311.268C848.231 308.58 811.487 303.767 775.105 296.854C722.21 285.737 671.031 267.5 622.937 242.629C542.306 205.065 472.25 147.73 419.14 75.8377C393.688 42.5289 370.968 7.17721 351.208 -29.8655C311.807 -103.995 277.841 -180.184 245.913 -257.059L221.457 -318.147L239.799 -318.147C262.216 -264.609 284.634 -209.698 307.731 -156.16C334.266 -94.9241 365.615 -35.9351 401.477 20.2406C453.769 103.059 526.919 170.336 613.426 215.174C649.521 235.601 687.52 252.384 726.873 265.28C787.039 282.713 849.094 292.625 911.649 294.794C965.995 298.226 1019.66 294.794 1074.01 294.794C1105.26 294.794 1132.43 293.422 1156.88 292.735Z" fill="#0058D4"/>
<path d="M2.03921 1044.33L2.03921 1023.74C19.0223 1023.74 36.6847 1018.93 53.6678 1016.18C102.795 1007.52 152.57 1003.16 202.439 1003.14C249.294 1003.07 295.621 1013.13 338.304 1032.66C386.26 1050.53 426.476 1084.86 451.93 1129.65C477.384 1174.44 486.457 1226.84 477.565 1277.7C471.035 1308.98 459.81 1339.07 444.278 1366.93L426.616 1399.87L386.536 1399.87C394.688 1383.4 403.519 1367.61 410.991 1351.14C425.115 1324.14 434.536 1294.88 438.844 1264.66C443.364 1231.26 438.575 1197.25 425.014 1166.45C411.453 1135.65 389.658 1109.28 362.08 1090.31C310.691 1050.93 247.916 1029.71 183.418 1029.91C139.82 1029.33 96.2353 1031.85 52.9884 1037.46C37.364 1039.52 21.7396 1042.27 2.03921 1044.33Z" fill="#0058D4"/>
<path d="M258.822 -318.147L277.843 -318.147L277.843 -314.029C290.75 -281.769 302.977 -250.195 316.564 -218.621C344.626 -151.796 378.261 -87.5015 417.104 -26.4335C474.233 64.4561 554.47 138.178 649.432 187.032C698.708 215.113 751.814 235.697 807.035 248.12C851.883 256.487 897.309 261.306 942.899 262.534C1002.68 262.534 1061.78 262.534 1121.56 262.534C1135.15 262.534 1149.41 262.534 1163 262.534L1163 281.067L1156.89 281.067C1128.35 281.067 1099.14 281.067 1070.61 281.067C1005.6 283.819 940.486 282.443 875.646 276.949C800.743 271.641 727.589 251.588 660.301 217.919C598.403 187.602 541.379 148.034 491.15 100.548C451.873 59.2357 417.869 13.1182 389.931 -36.7293C349.589 -107.362 314.178 -180.755 283.956 -256.372L258.822 -318.147Z" fill="#0058D4"/>
<path d="M351.888 1397.82L313.167 1397.82L316.563 1388.89C329.61 1360.8 340.291 1331.64 348.491 1301.72C357.191 1271.46 357.191 1239.32 348.491 1209.06C337.815 1180.7 320.598 1155.32 298.268 1135.02C275.939 1114.73 249.141 1100.11 220.099 1092.38C186.199 1082.02 150.89 1077.16 115.484 1077.96C77.5826 1077.84 39.7054 1079.9 2.03683 1084.14L2.03683 1062.18L36.003 1058.06C78.843 1053.13 121.976 1051.3 165.074 1052.57C208.359 1053.33 250.892 1064.13 289.39 1084.14C321.451 1097.8 348.805 1120.72 368.021 1150.02C387.237 1179.33 397.459 1213.72 397.403 1248.87C396.046 1278.81 388.891 1308.2 376.344 1335.36C371.588 1355.95 361.398 1376.54 351.888 1397.82Z" fill="#0058D4"/>
<path d="M1156.88 222.038L1156.88 239.884C1126.99 239.884 1097.1 239.884 1067.21 244.002C1001.97 247.205 936.582 245.599 871.569 239.197C821.714 234.545 772.766 222.759 726.194 204.192C681.994 185.459 639.682 162.474 599.84 135.553C531.153 90.7459 472.589 31.8074 427.971 -37.4157C386.034 -102.592 350.105 -171.519 320.638 -243.331C310.448 -268.041 301.617 -293.437 292.106 -318.147L311.807 -318.147L311.807 -314.715C342.923 -223.653 384.897 -136.758 436.802 -55.9481C497.432 37.3453 581.944 112.299 681.358 160.949C724.258 183.641 769.943 200.489 817.223 211.056C874.938 222.491 933.681 227.782 992.488 226.842C1049.55 226.842 1105.26 224.097 1156.88 222.038Z" fill="#0058D4"/>
<path d="M333.546 -318.147L355.964 -318.147L355.964 -312.656C381.568 -235.819 416.964 -162.676 461.259 -95.072C523.426 0.294986 609.75 77.0877 711.249 127.317C767.137 156.499 827.569 175.769 889.911 184.287C942.901 190.34 996.245 192.634 1049.55 191.15C1086.91 191.15 1123.6 191.15 1160.28 187.032L1160.28 204.192C1160.28 204.192 1154.85 204.192 1152.13 204.192C1126.99 204.192 1102.54 204.192 1078.08 204.192C1015.76 207.163 953.312 205.328 891.27 198.701C844.666 194.708 798.892 183.839 755.405 166.441C636.07 120.19 532.995 39.2134 459.221 -66.2439C415.063 -132.01 378.589 -202.721 350.529 -276.964L333.546 -318.147Z" fill="#0058D4"/>
<path d="M375.665 -318.147L398.762 -318.147C417.491 -252.908 445.402 -190.726 481.639 -133.51C546.499 -30.577 639.456 51.189 749.292 101.92C795.618 125.681 845.369 141.897 896.705 149.967C947.74 157.63 999.332 160.845 1050.91 159.577C1088.27 159.577 1124.96 159.577 1161.64 156.145L1161.64 173.991L1156.89 173.991L1114.77 173.991C1051.88 178.103 988.801 178.103 925.916 173.991C880.65 170.195 836.095 160.268 793.448 144.476C692.581 107.152 602.313 45.4042 530.55 -35.3566C481.509 -89.8228 440.756 -151.355 409.631 -217.935C396.151 -250.552 384.805 -284.028 375.665 -318.147Z" fill="#0058D4"/>
<path d="M1156.88 90.9399L1156.88 110.845C1150.78 110.503 1144.65 110.503 1138.54 110.845C1082.82 113.133 1027.01 111.987 971.429 107.413C926.897 104.009 883.023 94.5433 840.999 79.2714C748.862 44.794 665.533 -10.0858 597.122 -81.3426C532.963 -145.624 488.806 -227.459 470.089 -316.772L502.697 -316.772L502.697 -310.595C510.595 -264.898 527.455 -221.259 552.287 -182.241C613.593 -86.5157 701.171 -10.9077 804.316 35.3428C845.843 56.2359 889.931 71.4694 935.425 80.6442C1008.73 91.4084 1082.91 94.8569 1156.88 90.9399Z" fill="#0058D4"/>
<path d="M421.179 -318.147L448.352 -318.147L448.352 -309.224C470.868 -228.327 510.375 -153.283 564.183 -89.2036C617.99 -25.1242 684.834 26.4854 760.161 62.1101C796.934 83.2376 836.19 99.6104 877.005 110.843C925.761 122.42 975.692 128.179 1025.78 128.003C1070.61 128.003 1115.45 128.003 1161.64 128.003L1161.64 145.163C1091.98 149.968 1022.07 149.968 952.409 145.163C908.066 139.578 864.658 128.036 823.338 110.843C732.364 77.67 649.45 25.2513 580.141 -42.9068C526.538 -96.7635 483.444 -160.33 453.107 -230.29C439.726 -258.484 429.035 -287.903 421.179 -318.147Z" fill="#0058D4"/>
<path d="M535.984 -318.147L571.988 -318.147L571.988 -297.556C581.873 -244.778 605.298 -195.548 639.92 -154.788C688.475 -95.0015 748.869 -46.1372 817.223 -11.3331C859.882 12.6915 905.594 30.7046 953.088 42.2049C995.601 50.7019 1038.82 55.0689 1082.16 55.2462C1107.29 55.2462 1133.11 55.2462 1158.24 55.2462L1158.24 73.0922C1158.24 73.0922 1154.17 73.0922 1152.13 73.0922C1107.97 73.0922 1063.82 73.0922 1016.26 73.0922C971.447 70.7797 927.131 62.4706 884.476 48.3824C799.664 17.2962 722.335 -31.5958 657.582 -95.072C607.583 -140.015 569.12 -196.542 545.494 -259.804C540.011 -278.794 536.818 -298.384 535.984 -318.147Z" fill="#0058D4"/>
<path d="M606.634 -318.147L646.034 -318.147C649.517 -264.1 670.527 -212.718 705.815 -171.947C748.826 -119.245 802.28 -76.2236 862.738 -45.6523C900.879 -24.3836 941.5 -8.01237 983.658 3.08102C1026.55 12.4724 1070.22 17.7581 1114.09 18.8679C1129.71 18.8679 1144.66 18.8679 1159.6 18.8679L1159.6 42.2049L1156.88 42.2049C1123.6 42.2049 1088.95 42.2049 1057.02 38.773C1015 36.7818 973.427 29.1651 933.388 16.1223C841.807 -14.2519 758.841 -66.5266 691.549 -136.255C653.534 -174.015 626.309 -221.442 612.748 -273.532C609.351 -287.946 608.672 -300.987 606.634 -318.147Z" fill="#0058D4"/>
<path d="M1156.88 -14.7621L1156.88 5.1431C1135.83 5.1431 1114.77 5.1431 1093.71 5.14309C1055.5 3.26516 1017.64 -3.18616 980.94 -14.0757C896.004 -40.5658 818.797 -87.702 756.084 -151.353C723.848 -183.126 700.425 -222.886 688.152 -266.665C684.076 -282.452 682.717 -299.612 680 -315.398L727.552 -315.398L727.552 -303.044C732.31 -262.331 748.319 -223.795 773.746 -191.849C833.173 -117.456 913.435 -62.9131 1004.04 -35.3536C1053.78 -21.2749 1105.23 -14.343 1156.88 -14.7621Z" fill="#0058D4"/>
<path d="M2.03777 -33.2949L10.1897 -2.40757C25.0886 61.6513 31.2594 127.466 28.5313 193.212C26.49 237.048 21.0386 280.653 12.2276 323.625L3.39643 369.613L3.39643 374.417L3.39644 257.046L3.39644 252.927C12.5679 189.43 12.5679 124.924 3.39645 61.4261L2.03777 42.2074L2.03777 -33.2949Z" fill="#0058D4"/>
<path d="M1156.88 1209.06L1156.88 1181.61C1151.11 1115.38 1151.11 1048.78 1156.88 982.554C1156.88 957.845 1156.88 934.508 1156.88 909.111L1156.88 1209.06Z" fill="#0058D4"/>
</g>
</svg>
