<svg width="30" height="30" viewBox="0 0 30 30" fill="none" xmlns="http://www.w3.org/2000/svg">
<g id="simple-icons:googlesheets">
<path id="Vector" d="M14.1476 15.6812H9.88756V13.295H14.1501V15.6825L14.1476 15.6812ZM18.4101 0V7.5H25.9101L18.4101 0ZM20.1138 13.295H15.8513V15.6825H20.1138V13.295ZM20.1138 17.3862H15.8513V19.7738H20.1138V17.3862ZM25.9088 8.125V27.955C25.9088 29.085 24.9938 30 23.8638 30H6.13631C5.86776 30 5.60183 29.9471 5.35372 29.8443C5.10561 29.7416 4.88017 29.5909 4.69028 29.401C4.30676 29.0175 4.09131 28.4974 4.09131 27.955V2.045C4.09131 0.915 5.00631 0 6.13631 0H17.7838V8.125H25.9088ZM21.8176 11.5912H8.18131V21.4775H21.8188V11.59L21.8176 11.5912ZM14.1476 17.3862H9.88756V19.7738H14.1501V17.3862H14.1476Z" fill="#21A366"/>
</g>
</svg>
