<svg width="30" height="30" viewBox="0 0 30 30" fill="none" xmlns="http://www.w3.org/2000/svg">
<g id="simple-icons:amazonredshift">
<path id="Vector" d="M20.7988 12.415C20.5267 12.415 20.2657 12.3071 20.0731 12.1149C19.8805 11.9228 19.772 11.6621 19.7713 11.39C19.7806 11.1235 19.893 10.8711 20.0848 10.6859C20.2766 10.5006 20.5328 10.3971 20.7994 10.3971C21.066 10.3971 21.3223 10.5006 21.5141 10.6859C21.7059 10.8711 21.8182 11.1235 21.8275 11.39C21.8275 11.955 21.365 12.415 20.7988 12.415ZM18.1913 18.6575C17.9189 18.6572 17.6577 18.5488 17.4651 18.3562C17.2725 18.1636 17.1641 17.9024 17.1638 17.63C17.1638 17.3573 17.2721 17.0958 17.4649 16.903C17.6577 16.7102 17.9192 16.6019 18.1919 16.6019C18.4646 16.6019 18.7261 16.7102 18.9189 16.903C19.1117 17.0958 19.22 17.3573 19.22 17.63C19.22 17.765 19.1934 17.8988 19.1417 18.0235C19.09 18.1482 19.0142 18.2616 18.9186 18.357C18.8231 18.4524 18.7097 18.5281 18.5849 18.5796C18.4601 18.6312 18.3263 18.6577 18.1913 18.6575ZM11.9363 17.6163C11.8014 17.6161 11.6678 17.5893 11.5432 17.5376C11.4186 17.4858 11.3054 17.4099 11.2101 17.3144C11.1148 17.2189 11.0393 17.1055 10.9878 16.9808C10.9363 16.8561 10.9099 16.7224 10.91 16.5875C10.9102 16.4526 10.9369 16.319 10.9887 16.1944C11.0405 16.0698 11.1163 15.9566 11.2119 15.8613C11.3074 15.766 11.4208 15.6905 11.5455 15.639C11.6702 15.5875 11.8039 15.5611 11.9388 15.5613C12.2113 15.5616 12.4725 15.6702 12.665 15.8631C12.8574 16.056 12.9654 16.3175 12.965 16.59C12.9647 16.8625 12.8561 17.1237 12.6632 17.3162C12.4703 17.5086 12.2088 17.6166 11.9363 17.6163ZM9.33254 23.3387C9.06035 23.3388 8.79925 23.2309 8.60643 23.0388C8.4136 22.8466 8.30478 22.5859 8.30379 22.3137C8.31308 22.0473 8.42547 21.7948 8.61727 21.6096C8.80906 21.4244 9.06528 21.3209 9.33191 21.3209C9.59855 21.3209 9.85477 21.4244 10.0466 21.6096C10.2384 21.7948 10.3507 22.0473 10.36 22.3137C10.36 22.8787 9.89754 23.3387 9.33254 23.3387ZM20.7988 9.29375C20.2427 9.29375 19.7093 9.51431 19.3156 9.90706C18.9219 10.2998 18.7001 10.8327 18.6988 11.3888C18.6988 12.0963 19.055 12.7212 19.5963 13.1012L18.6188 15.5788C18.1188 15.476 17.5984 15.5595 17.1557 15.8137C16.7129 16.0679 16.3784 16.4751 16.215 16.9587L14.0238 16.4613C13.9982 15.9123 13.7579 15.3953 13.3545 15.022C12.9512 14.6487 12.4172 14.4489 11.8679 14.4658C11.3186 14.4827 10.7979 14.715 10.4183 15.1124C10.0387 15.5098 9.83055 16.0405 9.83879 16.59C9.83879 17.13 10.05 17.6187 10.3863 17.99L9.43129 20.2275C9.39629 20.2262 9.36504 20.2175 9.33129 20.2175C8.7752 20.2175 8.24181 20.4381 7.84813 20.8308C7.45445 21.2236 7.23261 21.7564 7.23129 22.3125C7.23129 22.8695 7.45254 23.4036 7.84636 23.7974C8.24019 24.1912 8.77433 24.4125 9.33129 24.4125C9.88824 24.4125 10.4224 24.1912 10.8162 23.7974C11.21 23.4036 11.4313 22.8695 11.4313 22.3125C11.4313 21.5713 11.0413 20.9225 10.4588 20.55L11.3013 18.5763C11.5025 18.6413 11.7138 18.6863 11.9363 18.6863C12.7625 18.6863 13.4713 18.2038 13.8138 17.5112L16.1338 18.0362C16.2364 18.5463 16.5246 19.0001 16.9427 19.3097C17.3608 19.6194 17.8789 19.7628 18.3967 19.7122C18.9145 19.6616 19.3951 19.4206 19.7453 19.0359C20.0956 18.6513 20.2906 18.1502 20.2925 17.63C20.2925 17.005 20.0125 16.4513 19.575 16.0675L20.6025 13.4637C20.6688 13.47 20.7325 13.4837 20.7988 13.4837C21.3549 13.4838 21.8883 13.2632 22.2819 12.8704C22.6756 12.4777 22.8975 11.9448 22.8988 11.3888C22.8975 10.8327 22.6756 10.2998 22.2819 9.90706C21.8883 9.51431 21.3549 9.29375 20.7988 9.29375ZM15 28.9313C9.78754 28.9313 5.89254 27.3662 5.89254 25.9688V5.9875C7.67504 7.4225 11.4138 8.18375 15 8.18375C18.5863 8.18375 22.325 7.4225 24.1075 5.98875V25.9675C24.1075 27.3675 20.2125 28.93 15 28.93M15 1.07C20.3663 1.07 24.1075 2.6625 24.1075 4.09375C24.1075 5.5225 20.3663 7.11625 15 7.11625C9.63379 7.11625 5.89254 5.5225 5.89254 4.09375C5.89254 2.66125 9.63379 1.07 15 1.07ZM25.1788 4.0925C25.1788 1.43375 19.9338 0 15 0C10.065 0 4.82129 1.43375 4.82129 4.0925L4.82379 4.105H4.82129V25.9675C4.82129 28.5875 10.065 30 15 30C19.9338 30 25.1788 28.5875 25.1788 25.9675V4.105H25.1763L25.1788 4.0925Z" fill="#F70000"/>
</g>
</svg>
